<svg xmlns="http://www.w3.org/2000/svg" xmlns:xlink="http://www.w3.org/1999/xlink" width="1920" zoomAndPan="magnify" viewBox="0 0 1440 809.999993" height="1080" preserveAspectRatio="xMidYMid meet" version="1.0"><defs><clipPath id="8c2f519016"><path d="M 1173 559 L 1302 559 L 1302 669.589844 L 1173 669.589844 Z M 1173 559 " clip-rule="nonzero"/></clipPath><clipPath id="bfe6657fb8"><path d="M 812.40625 239.089844 L 1078 239.089844 L 1078 319 L 812.40625 319 Z M 812.40625 239.089844 " clip-rule="nonzero"/></clipPath></defs><path fill="#000000" d="M 1286.007812 609.972656 C 1309.640625 601.960938 1330.347656 596.238281 1343.214844 597.050781 C 1362.425781 598.265625 1364.273438 605.589844 1345.164062 614.535156 C 1336.996094 618.359375 1341.4375 614.285156 1327.433594 624.449219 C 1327.433594 624.449219 1325.78125 625.132812 1323 626.050781 L 1227.214844 660.605469 L 1214.6875 657.285156 L 1268.636719 629.074219 L 1188.742188 649.792969 L 1170.113281 648.613281 C 1201.894531 641.710938 1245.734375 623.800781 1282.972656 611.011719 L 1285.195312 609.398438 C 1285.464844 609.59375 1285.734375 609.785156 1286.007812 609.972656 Z M 1286.007812 609.972656 " fill-opacity="0.1" fill-rule="nonzero"/><path fill="#9d6d4b" d="M 1171.832031 423.875 C 1183.746094 394.734375 1190.8125 390.28125 1188.796875 368.359375 L 1181.761719 363.605469 C 1177.339844 373.359375 1170.609375 391.421875 1159.917969 413.28125 C 1145.664062 442.417969 1139.328125 453.597656 1124.902344 469.207031 L 1132.117188 480.132812 C 1150.148438 464.523438 1159.917969 445.070312 1171.832031 423.875 Z M 1171.832031 423.875 " fill-opacity="1" fill-rule="evenodd"/><path fill="#2b1603" d="M 1174.574219 320.148438 C 1182.21875 310.957031 1186.457031 311.980469 1187.953125 311.980469 C 1189.960938 311.980469 1190.628906 312.660156 1190.628906 312.660156 C 1190.628906 312.660156 1191.878906 311.765625 1193.976562 311.980469 C 1200.667969 312.660156 1211.078125 315.246094 1214.046875 323.546875 C 1227.429688 360.980469 1228.097656 377.996094 1228.097656 377.996094 C 1228.097656 377.996094 1217.929688 371.726562 1210.699219 384.800781 L 1165.875 384.800781 C 1165.875 384.800781 1167.214844 328.992188 1174.574219 320.148438 Z M 1174.574219 320.148438 " fill-opacity="1" fill-rule="nonzero"/><path fill="#9d6d4b" d="M 1210.523438 334.992188 C 1210.585938 335.65625 1210.621094 336.316406 1210.625 336.980469 C 1210.628906 337.640625 1210.601562 338.300781 1210.546875 338.953125 C 1210.492188 339.609375 1210.410156 340.257812 1210.296875 340.898438 C 1210.183594 341.539062 1210.039062 342.171875 1209.871094 342.792969 C 1209.699219 343.414062 1209.5 344.023438 1209.273438 344.621094 C 1209.046875 345.21875 1208.792969 345.796875 1208.511719 346.363281 C 1208.234375 346.929688 1207.925781 347.476562 1207.597656 348.003906 C 1207.265625 348.53125 1206.910156 349.039062 1206.53125 349.527344 C 1206.152344 350.011719 1205.75 350.476562 1205.328125 350.917969 C 1204.90625 351.359375 1204.460938 351.773438 1204 352.164062 C 1203.535156 352.550781 1203.054688 352.914062 1202.558594 353.25 C 1202.058594 353.585938 1201.546875 353.890625 1201.015625 354.167969 C 1200.488281 354.445312 1199.945312 354.695312 1199.390625 354.910156 C 1198.835938 355.128906 1198.269531 355.316406 1197.695312 355.46875 C 1197.117188 355.625 1196.535156 355.746094 1195.945312 355.839844 C 1195.355469 355.929688 1194.761719 355.988281 1194.164062 356.015625 C 1193.5625 356.039062 1192.960938 356.035156 1192.359375 355.996094 C 1191.757812 355.957031 1191.15625 355.882812 1190.558594 355.78125 C 1189.957031 355.675781 1189.359375 355.542969 1188.769531 355.375 C 1188.175781 355.207031 1187.59375 355.007812 1187.015625 354.78125 C 1186.4375 354.550781 1185.871094 354.292969 1185.3125 354.003906 C 1184.753906 353.714844 1184.207031 353.394531 1183.675781 353.050781 C 1183.140625 352.703125 1182.621094 352.332031 1182.117188 351.929688 C 1181.617188 351.53125 1181.128906 351.105469 1180.660156 350.65625 C 1180.191406 350.207031 1179.746094 349.734375 1179.316406 349.238281 C 1178.886719 348.742188 1178.480469 348.226562 1178.09375 347.691406 C 1177.707031 347.15625 1177.347656 346.601562 1177.007812 346.027344 C 1176.667969 345.457031 1176.355469 344.871094 1176.070312 344.269531 C 1175.78125 343.667969 1175.519531 343.050781 1175.285156 342.425781 C 1175.050781 341.800781 1174.84375 341.164062 1174.664062 340.519531 C 1174.488281 339.875 1174.335938 339.226562 1174.214844 338.570312 C 1174.09375 337.914062 1174 337.253906 1173.9375 336.589844 C 1173.875 335.929688 1173.839844 335.265625 1173.835938 334.605469 C 1173.832031 333.941406 1173.855469 333.285156 1173.910156 332.628906 C 1173.964844 331.976562 1174.050781 331.328125 1174.164062 330.6875 C 1174.277344 330.042969 1174.417969 329.414062 1174.589844 328.792969 C 1174.761719 328.167969 1174.957031 327.558594 1175.183594 326.964844 C 1175.410156 326.367188 1175.664062 325.785156 1175.945312 325.222656 C 1176.226562 324.65625 1176.53125 324.109375 1176.863281 323.582031 C 1177.195312 323.050781 1177.546875 322.542969 1177.925781 322.058594 C 1178.304688 321.570312 1178.707031 321.105469 1179.128906 320.667969 C 1179.554688 320.226562 1179.996094 319.8125 1180.460938 319.421875 C 1180.921875 319.03125 1181.402344 318.667969 1181.902344 318.335938 C 1182.398438 318 1182.914062 317.691406 1183.441406 317.414062 C 1183.972656 317.136719 1184.515625 316.890625 1185.070312 316.671875 C 1185.625 316.457031 1186.191406 316.269531 1186.765625 316.113281 C 1187.339844 315.960938 1187.921875 315.835938 1188.511719 315.746094 C 1189.101562 315.65625 1189.695312 315.597656 1190.296875 315.570312 C 1190.894531 315.542969 1191.496094 315.550781 1192.097656 315.589844 C 1192.699219 315.628906 1193.300781 315.699219 1193.902344 315.804688 C 1194.503906 315.90625 1195.097656 316.042969 1195.691406 316.210938 C 1196.28125 316.375 1196.867188 316.574219 1197.445312 316.804688 C 1198.023438 317.035156 1198.589844 317.292969 1199.148438 317.582031 C 1199.707031 317.871094 1200.25 318.1875 1200.785156 318.535156 C 1201.320312 318.878906 1201.835938 319.253906 1202.339844 319.652344 C 1202.84375 320.054688 1203.328125 320.480469 1203.796875 320.929688 C 1204.265625 321.378906 1204.714844 321.851562 1205.144531 322.347656 C 1205.574219 322.839844 1205.980469 323.355469 1206.367188 323.894531 C 1206.75 324.429688 1207.113281 324.984375 1207.449219 325.554688 C 1207.789062 326.128906 1208.101562 326.714844 1208.390625 327.316406 C 1208.679688 327.917969 1208.9375 328.53125 1209.171875 329.15625 C 1209.40625 329.785156 1209.613281 330.417969 1209.792969 331.0625 C 1209.972656 331.707031 1210.121094 332.359375 1210.246094 333.015625 C 1210.367188 333.671875 1210.457031 334.332031 1210.523438 334.992188 Z M 1210.523438 334.992188 " fill-opacity="1" fill-rule="nonzero"/><path stroke-linecap="butt" transform="matrix(1.32385, 0, 0, 1.324606, 812.407645, 239.092287)" fill="none" stroke-linejoin="miter" d="M 276.999417 284.000584 L 276.999417 305.000338 " stroke="#9d6d4b" stroke-width="8" stroke-opacity="0.8" stroke-miterlimit="4"/><g clip-path="url(#8c2f519016)"><path stroke-linecap="butt" transform="matrix(1.32385, 0, 0, 1.324606, 812.407645, 239.092287)" fill="none" stroke-linejoin="miter" d="M 317.99904 286.999706 L 324.000712 312.001239 " stroke="#9d6d4b" stroke-width="8" stroke-opacity="1" stroke-miterlimit="4"/></g><path fill="#ffffff" d="M 1206.914062 662.964844 L 1233.390625 647.070312 L 1246.628906 647.070312 L 1246.628906 660.695312 Z M 1206.914062 662.964844 " fill-opacity="1" fill-rule="nonzero"/><path fill="#1f3c5f" d="M 1166.539062 464.9375 L 1193.675781 481.496094 L 1187.058594 633.824219 L 1169.183594 633.824219 Z M 1166.539062 464.9375 " fill-opacity="1" fill-rule="nonzero"/><path fill="#1f3c5f" d="M 1200.296875 485.46875 L 1234.054688 490.105469 C 1234.054688 490.105469 1233.390625 589.558594 1246.628906 638.136719 C 1239.027344 639.539062 1226.773438 640.449219 1226.773438 640.449219 C 1216.84375 596.5 1200.296875 485.46875 1200.296875 485.46875 Z M 1200.296875 485.46875 " fill-opacity="1" fill-rule="nonzero"/><path fill="#ffffff" d="M 1146.019531 660.316406 L 1173.378906 643.097656 L 1187.058594 643.097656 L 1187.058594 657.855469 Z M 1146.019531 660.316406 " fill-opacity="1" fill-rule="nonzero"/><path fill="#1f3c5f" d="M 1234.085938 464.898438 L 1234.085938 492.890625 L 1207.160156 490.582031 L 1166.769531 481.359375 L 1166.769531 460.089844 Z M 1234.085938 464.898438 " fill-opacity="1" fill-rule="evenodd"/><path fill="#000000" d="M 1228.332031 375.699219 C 1218.613281 364.089844 1191.886719 358.914062 1181.761719 360.296875 L 1161.242188 465.601562 L 1246.554688 466.90625 C 1247.570312 440.652344 1238.050781 387.308594 1228.332031 375.699219 Z M 1228.332031 375.699219 " fill-opacity="1" fill-rule="nonzero"/><path fill="#9d6d4b" d="M 1278.84375 363.085938 C 1260.882812 378.257812 1236.777344 388.53125 1212.011719 387.964844 L 1209.359375 372.757812 C 1231.71875 373.503906 1252.257812 364.597656 1269.011719 350.304688 C 1285.683594 336.152344 1297.203125 317.335938 1300.574219 299.167969 L 1314.15625 305.183594 C 1310.136719 326.839844 1296.878906 347.773438 1278.84375 363.085938 Z M 1278.84375 363.085938 " fill-opacity="1" fill-rule="evenodd"/><path fill="#000000" d="M 1259.539062 378.324219 C 1245.59375 386.464844 1229.21875 391.15625 1211.550781 390.648438 L 1204.792969 371.449219 C 1220.449219 372.082031 1234.480469 368.269531 1246.625 361.195312 Z M 1259.539062 378.324219 " fill-opacity="1" fill-rule="evenodd"/><path fill="#99ceff" d="M 1115.570312 303.996094 L 1070.558594 289.9375 L 1074.648438 273.53125 Z M 1115.570312 303.996094 " fill-opacity="1" fill-rule="nonzero"/><g clip-path="url(#bfe6657fb8)"><path fill="#99ceff" d="M 852.125 239.09375 L 1037.460938 239.09375 C 1038.761719 239.09375 1040.058594 239.15625 1041.355469 239.285156 C 1042.648438 239.410156 1043.933594 239.601562 1045.210938 239.855469 C 1046.484375 240.109375 1047.746094 240.425781 1048.992188 240.804688 C 1050.234375 241.179688 1051.457031 241.617188 1052.660156 242.117188 C 1053.863281 242.613281 1055.035156 243.171875 1056.183594 243.785156 C 1057.332031 244.398438 1058.445312 245.066406 1059.527344 245.789062 C 1060.609375 246.511719 1061.652344 247.285156 1062.65625 248.113281 C 1063.664062 248.9375 1064.625 249.8125 1065.546875 250.730469 C 1066.464844 251.652344 1067.335938 252.613281 1068.164062 253.621094 C 1068.988281 254.625 1069.761719 255.671875 1070.484375 256.753906 C 1071.207031 257.835938 1071.875 258.949219 1072.488281 260.097656 C 1073.101562 261.246094 1073.65625 262.421875 1074.15625 263.625 C 1074.652344 264.824219 1075.089844 266.050781 1075.46875 267.296875 C 1075.84375 268.539062 1076.160156 269.800781 1076.414062 271.078125 C 1076.667969 272.355469 1076.859375 273.640625 1076.988281 274.933594 C 1077.113281 276.230469 1077.175781 277.527344 1077.175781 278.832031 C 1077.175781 280.132812 1077.113281 281.429688 1076.988281 282.726562 C 1076.859375 284.019531 1076.667969 285.304688 1076.414062 286.582031 C 1076.160156 287.859375 1075.84375 289.121094 1075.46875 290.367188 C 1075.089844 291.609375 1074.652344 292.835938 1074.15625 294.039062 C 1073.65625 295.238281 1073.101562 296.414062 1072.488281 297.5625 C 1071.875 298.710938 1071.207031 299.824219 1070.484375 300.90625 C 1069.761719 301.988281 1068.988281 303.035156 1068.164062 304.039062 C 1067.335938 305.046875 1066.464844 306.007812 1065.546875 306.929688 C 1064.625 307.851562 1063.664062 308.722656 1062.65625 309.546875 C 1061.652344 310.375 1060.609375 311.148438 1059.527344 311.871094 C 1058.445312 312.59375 1057.332031 313.261719 1056.183594 313.875 C 1055.035156 314.488281 1053.863281 315.046875 1052.660156 315.542969 C 1051.457031 316.042969 1050.234375 316.480469 1048.992188 316.859375 C 1047.746094 317.234375 1046.484375 317.550781 1045.210938 317.804688 C 1043.933594 318.058594 1042.648438 318.25 1041.355469 318.378906 C 1040.058594 318.503906 1038.761719 318.570312 1037.460938 318.570312 L 852.125 318.570312 C 850.824219 318.570312 849.523438 318.503906 848.230469 318.378906 C 846.9375 318.25 845.652344 318.058594 844.375 317.804688 C 843.097656 317.550781 841.839844 317.234375 840.59375 316.859375 C 839.351562 316.480469 838.125 316.042969 836.925781 315.542969 C 835.722656 315.046875 834.546875 314.488281 833.402344 313.875 C 832.253906 313.261719 831.140625 312.59375 830.058594 311.871094 C 828.976562 311.148438 827.933594 310.375 826.929688 309.546875 C 825.921875 308.722656 824.960938 307.851562 824.039062 306.929688 C 823.121094 306.007812 822.246094 305.046875 821.421875 304.039062 C 820.597656 303.035156 819.824219 301.988281 819.101562 300.90625 C 818.378906 299.824219 817.710938 298.710938 817.097656 297.5625 C 816.484375 296.414062 815.929688 295.238281 815.429688 294.039062 C 814.933594 292.835938 814.496094 291.609375 814.117188 290.367188 C 813.738281 289.121094 813.425781 287.859375 813.171875 286.582031 C 812.917969 285.304688 812.726562 284.019531 812.597656 282.726562 C 812.472656 281.429688 812.40625 280.132812 812.40625 278.832031 C 812.40625 277.527344 812.472656 276.230469 812.597656 274.933594 C 812.726562 273.640625 812.917969 272.355469 813.171875 271.078125 C 813.425781 269.800781 813.738281 268.539062 814.117188 267.296875 C 814.496094 266.050781 814.933594 264.824219 815.429688 263.625 C 815.929688 262.421875 816.484375 261.246094 817.097656 260.097656 C 817.710938 258.949219 818.378906 257.835938 819.101562 256.753906 C 819.824219 255.671875 820.597656 254.625 821.421875 253.621094 C 822.246094 252.613281 823.121094 251.652344 824.039062 250.730469 C 824.960938 249.8125 825.921875 248.9375 826.929688 248.113281 C 827.933594 247.285156 828.976562 246.511719 830.058594 245.789062 C 831.140625 245.066406 832.253906 244.398438 833.402344 243.785156 C 834.546875 243.171875 835.722656 242.613281 836.925781 242.117188 C 838.125 241.617188 839.351562 241.179688 840.59375 240.804688 C 841.839844 240.425781 843.097656 240.109375 844.375 239.855469 C 845.652344 239.601562 846.9375 239.410156 848.230469 239.285156 C 849.523438 239.15625 850.824219 239.09375 852.125 239.09375 Z M 852.125 239.09375 " fill-opacity="1" fill-rule="nonzero"/></g><path fill="#135fc5" d="M 886.121094 291.132812 C 885.039062 291.132812 883.96875 290.933594 882.910156 290.53125 C 881.875 290.105469 880.972656 289.585938 880.210938 288.972656 L 881.925781 286.621094 C 882.625 287.171875 883.3125 287.605469 883.992188 287.921875 C 884.691406 288.21875 885.441406 288.367188 886.246094 288.367188 C 887.09375 288.367188 887.71875 288.199219 888.121094 287.859375 C 888.523438 287.5 888.726562 287.042969 888.726562 286.492188 C 888.726562 286.175781 888.628906 285.898438 888.441406 285.664062 C 888.25 285.410156 887.996094 285.1875 887.675781 284.996094 C 887.359375 284.808594 887 284.636719 886.597656 284.488281 C 886.195312 284.320312 885.792969 284.148438 885.390625 283.980469 C 884.882812 283.789062 884.363281 283.566406 883.832031 283.3125 C 883.304688 283.058594 882.828125 282.75 882.402344 282.390625 C 882 282.03125 881.660156 281.617188 881.386719 281.152344 C 881.132812 280.664062 881.003906 280.089844 881.003906 279.433594 C 881.003906 278.058594 881.511719 276.933594 882.53125 276.066406 C 883.546875 275.195312 884.933594 274.761719 886.691406 274.761719 C 887.773438 274.761719 888.746094 274.953125 889.617188 275.332031 C 890.484375 275.714844 891.234375 276.148438 891.871094 276.636719 L 890.1875 278.863281 C 889.636719 278.460938 889.074219 278.140625 888.503906 277.910156 C 887.953125 277.652344 887.371094 277.527344 886.753906 277.527344 C 885.972656 277.527344 885.390625 277.695312 885.007812 278.035156 C 884.648438 278.355469 884.46875 278.757812 884.46875 279.242188 C 884.46875 279.5625 884.554688 279.835938 884.722656 280.070312 C 884.914062 280.28125 885.15625 280.472656 885.453125 280.640625 C 885.75 280.8125 886.089844 280.972656 886.46875 281.121094 C 886.871094 281.269531 887.285156 281.417969 887.710938 281.566406 C 888.238281 281.753906 888.769531 281.976562 889.296875 282.230469 C 889.828125 282.464844 890.304688 282.761719 890.726562 283.121094 C 891.171875 283.484375 891.523438 283.925781 891.777344 284.457031 C 892.050781 284.964844 892.1875 285.582031 892.1875 286.300781 C 892.1875 286.980469 892.050781 287.617188 891.777344 288.207031 C 891.523438 288.78125 891.140625 289.289062 890.632812 289.734375 C 890.125 290.160156 889.488281 290.496094 888.726562 290.75 C 887.964844 291.007812 887.09375 291.132812 886.121094 291.132812 Z M 899.230469 291.132812 C 897.855469 291.132812 896.742188 290.71875 895.894531 289.894531 C 895.046875 289.046875 894.625 287.933594 894.625 286.554688 C 894.625 285.730469 894.792969 284.996094 895.132812 284.363281 C 895.492188 283.703125 896.042969 283.144531 896.785156 282.675781 C 897.546875 282.210938 898.5 281.820312 899.644531 281.5 C 900.808594 281.183594 902.195312 280.9375 903.808594 280.769531 C 903.785156 280.367188 903.722656 279.984375 903.617188 279.625 C 903.53125 279.242188 903.371094 278.914062 903.140625 278.640625 C 902.929688 278.34375 902.640625 278.121094 902.28125 277.972656 C 901.921875 277.800781 901.476562 277.71875 900.949219 277.71875 C 900.183594 277.71875 899.433594 277.867188 898.691406 278.164062 C 897.972656 278.460938 897.261719 278.820312 896.5625 279.242188 L 895.226562 276.796875 C 896.097656 276.246094 897.070312 275.769531 898.152344 275.367188 C 899.230469 274.960938 900.398438 274.761719 901.648438 274.761719 C 903.59375 274.761719 905.046875 275.34375 906 276.507812 C 906.972656 277.652344 907.460938 279.316406 907.460938 281.5 L 907.460938 290.75 L 904.441406 290.75 L 904.1875 289.035156 L 904.0625 289.035156 C 903.363281 289.628906 902.609375 290.125 901.804688 290.53125 C 901.023438 290.933594 900.164062 291.132812 899.230469 291.132812 Z M 900.40625 288.273438 C 901.042969 288.273438 901.613281 288.125 902.125 287.828125 C 902.652344 287.53125 903.214844 287.105469 903.808594 286.554688 L 903.808594 283.058594 C 902.746094 283.1875 901.859375 283.355469 901.136719 283.566406 C 900.417969 283.777344 899.835938 284.023438 899.390625 284.296875 C 898.945312 284.554688 898.628906 284.847656 898.4375 285.1875 C 898.246094 285.527344 898.152344 285.886719 898.152344 286.269531 C 898.152344 286.96875 898.363281 287.476562 898.785156 287.796875 C 899.210938 288.113281 899.75 288.273438 900.40625 288.273438 Z M 912.882812 297.171875 C 912.457031 297.171875 912.085938 297.140625 911.769531 297.078125 C 911.453125 297.035156 911.144531 296.960938 910.847656 296.855469 L 911.515625 293.996094 C 911.664062 294.035156 911.832031 294.078125 912.023438 294.121094 C 912.234375 294.183594 912.4375 294.21875 912.628906 294.21875 C 913.453125 294.21875 914.109375 293.960938 914.597656 293.453125 C 915.105469 292.964844 915.488281 292.332031 915.742188 291.546875 L 916.027344 290.5625 L 909.894531 275.144531 L 913.613281 275.144531 L 916.3125 282.804688 C 916.546875 283.484375 916.769531 284.203125 916.980469 284.964844 C 917.214844 285.707031 917.445312 286.449219 917.679688 287.191406 L 917.808594 287.191406 C 917.996094 286.472656 918.1875 285.738281 918.378906 284.996094 C 918.589844 284.234375 918.792969 283.503906 918.980469 282.804688 L 921.332031 275.144531 L 924.859375 275.144531 L 919.203125 291.453125 C 918.886719 292.339844 918.539062 293.136719 918.15625 293.835938 C 917.773438 294.535156 917.332031 295.128906 916.820312 295.617188 C 916.335938 296.125 915.761719 296.507812 915.105469 296.761719 C 914.46875 297.035156 913.730469 297.171875 912.882812 297.171875 Z M 933.925781 290.75 L 933.925781 268.308594 L 937.578125 268.308594 L 937.578125 274.09375 L 937.453125 277.113281 C 938.109375 276.5 938.828125 275.957031 939.613281 275.492188 C 940.417969 275.003906 941.359375 274.761719 942.441406 274.761719 C 944.113281 274.761719 945.332031 275.300781 946.09375 276.382812 C 946.855469 277.441406 947.238281 278.96875 947.238281 280.960938 L 947.238281 290.75 L 943.585938 290.75 L 943.585938 281.4375 C 943.585938 280.144531 943.394531 279.234375 943.011719 278.703125 C 942.632812 278.171875 942.007812 277.910156 941.136719 277.910156 C 940.460938 277.910156 939.855469 278.078125 939.328125 278.417969 C 938.816406 278.734375 938.234375 279.210938 937.578125 279.847656 L 937.578125 290.75 Z M 958.3125 291.132812 C 957.234375 291.132812 956.226562 290.953125 955.296875 290.59375 C 954.363281 290.210938 953.546875 289.671875 952.847656 288.972656 C 952.152344 288.273438 951.601562 287.425781 951.199219 286.429688 C 950.816406 285.410156 950.625 284.257812 950.625 282.964844 C 950.625 281.691406 950.828125 280.546875 951.230469 279.53125 C 951.632812 278.511719 952.160156 277.652344 952.816406 276.953125 C 953.496094 276.253906 954.269531 275.714844 955.136719 275.332031 C 956.003906 274.953125 956.894531 274.761719 957.804688 274.761719 C 958.863281 274.761719 959.796875 274.941406 960.601562 275.300781 C 961.40625 275.660156 962.074219 276.171875 962.605469 276.828125 C 963.15625 277.484375 963.566406 278.269531 963.84375 279.179688 C 964.117188 280.089844 964.257812 281.085938 964.257812 282.167969 C 964.257812 282.527344 964.234375 282.867188 964.191406 283.1875 C 964.171875 283.503906 964.140625 283.757812 964.097656 283.949219 L 954.183594 283.949219 C 954.351562 285.347656 954.839844 286.429688 955.644531 287.191406 C 956.472656 287.933594 957.519531 288.304688 958.789062 288.304688 C 959.46875 288.304688 960.09375 288.207031 960.664062 288.019531 C 961.257812 287.804688 961.839844 287.519531 962.414062 287.160156 L 963.652344 289.449219 C 962.910156 289.9375 962.085938 290.339844 961.175781 290.65625 C 960.261719 290.972656 959.308594 291.132812 958.3125 291.132812 Z M 954.152344 281.46875 L 961.078125 281.46875 C 961.078125 280.261719 960.8125 279.316406 960.285156 278.640625 C 959.777344 277.941406 958.980469 277.589844 957.902344 277.589844 C 956.96875 277.589844 956.152344 277.917969 955.453125 278.574219 C 954.757812 279.234375 954.320312 280.199219 954.152344 281.46875 Z M 971.304688 291.132812 C 969.992188 291.132812 969.070312 290.742188 968.539062 289.957031 C 968.011719 289.171875 967.746094 288.101562 967.746094 286.746094 L 967.746094 268.308594 L 971.398438 268.308594 L 971.398438 286.9375 C 971.398438 287.382812 971.484375 287.699219 971.652344 287.890625 C 971.824219 288.058594 972.003906 288.144531 972.195312 288.144531 C 972.277344 288.144531 972.351562 288.144531 972.417969 288.144531 C 972.5 288.144531 972.617188 288.125 972.765625 288.082031 L 973.242188 290.816406 C 972.753906 291.027344 972.109375 291.132812 971.304688 291.132812 Z M 979.929688 291.132812 C 978.617188 291.132812 977.695312 290.742188 977.167969 289.957031 C 976.636719 289.171875 976.371094 288.101562 976.371094 286.746094 L 976.371094 268.308594 L 980.027344 268.308594 L 980.027344 286.9375 C 980.027344 287.382812 980.109375 287.699219 980.28125 287.890625 C 980.449219 288.058594 980.628906 288.144531 980.820312 288.144531 C 980.90625 288.144531 980.980469 288.144531 981.042969 288.144531 C 981.128906 288.144531 981.242188 288.125 981.390625 288.082031 L 981.867188 290.816406 C 981.382812 291.027344 980.734375 291.132812 979.929688 291.132812 Z M 991.382812 291.132812 C 990.410156 291.132812 989.476562 290.953125 988.585938 290.59375 C 987.699219 290.234375 986.902344 289.703125 986.203125 289.003906 C 985.527344 288.304688 984.984375 287.445312 984.582031 286.429688 C 984.179688 285.410156 983.980469 284.257812 983.980469 282.964844 C 983.980469 281.671875 984.179688 280.515625 984.582031 279.5 C 984.984375 278.480469 985.527344 277.621094 986.203125 276.921875 C 986.902344 276.222656 987.699219 275.695312 988.585938 275.332031 C 989.476562 274.953125 990.410156 274.761719 991.382812 274.761719 C 992.355469 274.761719 993.289062 274.953125 994.179688 275.332031 C 995.089844 275.695312 995.882812 276.222656 996.5625 276.921875 C 997.238281 277.621094 997.78125 278.480469 998.183594 279.5 C 998.605469 280.515625 998.816406 281.671875 998.816406 282.964844 C 998.816406 284.257812 998.605469 285.410156 998.183594 286.429688 C 997.78125 287.445312 997.238281 288.304688 996.5625 289.003906 C 995.882812 289.703125 995.089844 290.234375 994.179688 290.59375 C 993.289062 290.953125 992.355469 291.132812 991.382812 291.132812 Z M 991.382812 288.144531 C 992.527344 288.144531 993.425781 287.679688 994.082031 286.746094 C 994.738281 285.792969 995.070312 284.53125 995.070312 282.964844 C 995.070312 281.375 994.738281 280.113281 994.082031 279.179688 C 993.425781 278.226562 992.527344 277.75 991.382812 277.75 C 990.238281 277.75 989.339844 278.226562 988.683594 279.179688 C 988.046875 280.113281 987.730469 281.375 987.730469 282.964844 C 987.730469 284.53125 988.046875 285.792969 988.683594 286.746094 C 989.339844 287.679688 990.238281 288.144531 991.382812 288.144531 Z M 1003.894531 283.917969 L 1003.386719 273.078125 L 1003.292969 269.453125 L 1006.976562 269.453125 L 1006.851562 273.078125 L 1006.34375 283.917969 Z M 1005.136719 291.132812 C 1004.457031 291.132812 1003.886719 290.898438 1003.417969 290.433594 C 1002.972656 289.96875 1002.753906 289.375 1002.753906 288.652344 C 1002.753906 287.933594 1002.972656 287.339844 1003.417969 286.875 C 1003.886719 286.40625 1004.457031 286.175781 1005.136719 286.175781 C 1005.8125 286.175781 1006.375 286.40625 1006.820312 286.875 C 1007.265625 287.339844 1007.484375 287.933594 1007.484375 288.652344 C 1007.484375 289.375 1007.265625 289.96875 1006.820312 290.433594 C 1006.375 290.898438 1005.8125 291.132812 1005.136719 291.132812 Z M 1005.136719 291.132812 " fill-opacity="1" fill-rule="nonzero"/><path stroke-linecap="butt" transform="matrix(1.32385, 0, 0, 1.324606, 812.407645, 239.092287)" fill-opacity="1" fill="#000000" fill-rule="nonzero" stroke-linejoin="miter" d="M 262.499803 130.499785 C 262.499803 130.499785 277.999696 92.000728 279.498639 92.000728 C 281.000532 92.000728 283.667942 143.316093 274.500196 136.999358 Z M 262.499803 130.499785 " stroke="#000000" stroke-width="1" stroke-opacity="1" stroke-miterlimit="4"/><path stroke-linecap="butt" transform="matrix(1.32385, 0, 0, 1.324606, 812.407645, 239.092287)" fill="none" stroke-linejoin="miter" d="M 276.999417 83.955885 C 282.877161 87.382611 284.629862 85.365502 288.262142 83.230433 " stroke="#000000" stroke-width="2.671" stroke-opacity="1" stroke-miterlimit="4"/><path stroke-linecap="butt" transform="matrix(1.32385, 0, 0, 1.324606, 812.407645, 239.092287)" fill="none" stroke-linejoin="miter" d="M 280.138935 74.241914 C 280.236307 75.757694 279.174065 78.742071 278.63114 80.045525 L 284.261027 79.682799 " stroke="#000000" stroke-width="2.671" stroke-opacity="1" stroke-miterlimit="4"/><path fill="#2a1603" d="M 1185.070312 326.515625 C 1185.070312 326.515625 1186.394531 313.269531 1191.691406 313.933594 C 1196.984375 314.59375 1203.308594 315.621094 1207.578125 319.890625 C 1215.828125 334.484375 1215.109375 342.90625 1216.84375 358.96875 C 1217.730469 367.210938 1218.828125 384.796875 1218.828125 384.796875 L 1198.972656 384.796875 C 1198.972656 384.796875 1202.28125 376.851562 1202.28125 356.320312 C 1202.28125 335.789062 1201.621094 326.40625 1193.015625 325.191406 C 1189.941406 324.757812 1185.070312 326.515625 1185.070312 326.515625 Z M 1185.070312 326.515625 " fill-opacity="1" fill-rule="nonzero"/><path fill="#2a1603" d="M 1185.070312 326.515625 C 1185.070312 326.515625 1187.058594 319.230469 1188.527344 315.738281 C 1189.996094 312.25 1183.085938 313.933594 1178.597656 319.714844 C 1176.558594 322.339844 1175.140625 325.191406 1173.300781 330.3125 C 1171.433594 335.515625 1168.523438 384.800781 1168.523438 384.800781 L 1183.746094 384.800781 C 1183.746094 384.800781 1181.761719 378.839844 1177.128906 355.65625 C 1172.492188 332.476562 1176.757812 324.53125 1181.761719 324.53125 C 1182.421875 324.53125 1185.070312 326.515625 1185.070312 326.515625 Z M 1185.070312 326.515625 " fill-opacity="1" fill-rule="nonzero"/></svg>