<svg xmlns="http://www.w3.org/2000/svg" xmlns:xlink="http://www.w3.org/1999/xlink" width="1920" zoomAndPan="magnify" viewBox="0 0 1440 809.999993" height="1080" preserveAspectRatio="xMidYMid meet" version="1.0"><defs><g/><clipPath id="a6cb96c19b"><rect x="0" width="1090" y="0" height="242"/></clipPath><clipPath id="41259f5cf7"><path d="M 568 323 L 750 323 L 750 405 L 568 405 Z M 568 323 " clip-rule="nonzero"/></clipPath><clipPath id="a2691fb81a"><path d="M 632.871094 262.265625 L 754.046875 359.316406 L 662.617188 473.46875 L 541.445312 376.414062 Z M 632.871094 262.265625 " clip-rule="nonzero"/></clipPath><clipPath id="a50cef7a78"><path d="M 632.871094 262.265625 L 754.046875 359.316406 L 662.617188 473.46875 L 541.445312 376.414062 Z M 632.871094 262.265625 " clip-rule="nonzero"/></clipPath><clipPath id="610d09a79f"><path d="M 571 326 L 747 326 L 747 402 L 571 402 Z M 571 326 " clip-rule="nonzero"/></clipPath><clipPath id="aadae65b28"><path d="M 632.871094 262.265625 L 754.046875 359.316406 L 662.617188 473.46875 L 541.445312 376.414062 Z M 632.871094 262.265625 " clip-rule="nonzero"/></clipPath><clipPath id="72ad49b456"><path d="M 632.871094 262.265625 L 754.046875 359.316406 L 662.617188 473.46875 L 541.445312 376.414062 Z M 632.871094 262.265625 " clip-rule="nonzero"/></clipPath></defs><g transform="matrix(1, 0, 0, 1, 175, 311)"><g clip-path="url(#a6cb96c19b)"><g fill="#ffffff" fill-opacity="1"><g transform="translate(0.713872, 190.706668)"><g><path d="M 64.328125 -118.90625 C 81.359375 -118.90625 95.875 -112.898438 107.875 -100.890625 C 119.882812 -88.890625 125.890625 -74.375 125.890625 -57.34375 C 125.890625 -40.3125 119.882812 -25.789062 107.875 -13.78125 C 95.875 -1.769531 81.359375 4.234375 64.328125 4.234375 C 47.296875 4.234375 32.773438 -1.769531 20.765625 -13.78125 C 8.753906 -25.789062 2.75 -40.3125 2.75 -57.34375 C 2.75 -74.375 8.753906 -88.890625 20.765625 -100.890625 C 32.773438 -112.898438 47.296875 -118.90625 64.328125 -118.90625 Z M 89.6875 -31.984375 C 96.664062 -38.960938 100.15625 -47.414062 100.15625 -57.34375 C 100.15625 -67.257812 96.664062 -75.710938 89.6875 -82.703125 C 82.695312 -89.679688 74.242188 -93.171875 64.328125 -93.171875 C 54.398438 -93.171875 45.945312 -89.679688 38.96875 -82.703125 C 31.976562 -75.710938 28.484375 -67.257812 28.484375 -57.34375 C 28.484375 -47.414062 31.976562 -38.960938 38.96875 -31.984375 C 46.195312 -24.992188 54.648438 -21.5 64.328125 -21.5 C 74.003906 -21.5 82.457031 -24.992188 89.6875 -31.984375 Z M 89.6875 -31.984375 "/></g></g></g><g fill="#ffffff" fill-opacity="1"><g transform="translate(129.359414, 190.706668)"><g><path d="M 52.5625 -94.28125 C 66.039062 -95.382812 77.191406 -91.890625 86.015625 -83.796875 C 95.441406 -75.097656 100.15625 -62.910156 100.15625 -47.234375 L 100.15625 0 L 76.265625 0 L 76.265625 -46.6875 L 76.078125 -46.6875 L 76.078125 -47.046875 C 76.078125 -53.535156 73.8125 -59.050781 69.28125 -63.59375 C 64.75 -68.125 59.238281 -70.390625 52.75 -70.390625 C 46.132812 -70.140625 40.617188 -67.8125 36.203125 -63.40625 C 31.546875 -58.75 29.34375 -53.234375 29.59375 -46.859375 L 29.59375 -46.6875 L 29.40625 -46.6875 L 29.40625 0 L 3.671875 0 L 3.671875 -95.015625 L 29.40625 -95.015625 L 29.40625 -82.703125 C 35.164062 -89.566406 42.882812 -93.425781 52.5625 -94.28125 Z M 52.5625 -94.28125 "/></g></g></g><g fill="#ffffff" fill-opacity="1"><g transform="translate(225.659596, 190.706668)"><g><path d="M 73.703125 -94.640625 L 73.703125 -68.921875 L 52.5625 -68.921875 L 52.5625 0 L 26.828125 0 L 26.828125 -68.921875 L 5.515625 -68.921875 L 5.515625 -94.640625 L 26.828125 -94.640625 L 26.828125 -127.734375 L 52.5625 -127.734375 L 52.5625 -94.640625 Z M 73.703125 -94.640625 "/></g></g></g><g fill="#ffffff" fill-opacity="1"><g transform="translate(299.538731, 190.706668)"><g><path d="M 73.515625 -95.015625 L 99.234375 -95.015625 L 99.234375 0 L 73.515625 0 L 73.515625 -10.65625 C 68.242188 -3.800781 60.28125 -0.375 49.625 -0.375 C 36.632812 -0.25 25.484375 -4.78125 16.171875 -13.96875 C 6.859375 -23.15625 2.140625 -34.304688 2.015625 -47.421875 C 1.898438 -60.398438 6.4375 -71.546875 15.625 -80.859375 C 24.8125 -90.171875 35.957031 -94.890625 49.0625 -95.015625 C 59.851562 -95.015625 68.003906 -91.523438 73.515625 -84.546875 Z M 65.796875 -31.25 C 70.328125 -35.78125 72.59375 -41.289062 72.59375 -47.78125 C 72.59375 -54.394531 70.265625 -59.910156 65.609375 -64.328125 C 60.953125 -68.984375 55.5 -71.1875 49.25 -70.9375 C 42.757812 -70.9375 37.25 -68.671875 32.71875 -64.140625 C 28.175781 -59.609375 25.90625 -54.09375 25.90625 -47.59375 C 25.90625 -41.226562 28.234375 -35.71875 32.890625 -31.0625 C 37.429688 -26.53125 42.945312 -24.265625 49.4375 -24.265625 C 56.050781 -24.503906 61.503906 -26.832031 65.796875 -31.25 Z M 65.796875 -31.25 "/></g></g></g><g fill="#ffffff" fill-opacity="1"><g transform="translate(404.292976, 190.706668)"><g><path d="M 31.25 -80.5 C 33.320312 -86.375 36.8125 -90.476562 41.71875 -92.8125 C 46.5 -95.132812 53.664062 -96.296875 63.21875 -96.296875 L 63.21875 -70.015625 C 53.90625 -70.015625 46.125 -66.832031 39.875 -60.46875 C 34.125 -54.832031 31.25 -48.644531 31.25 -41.90625 L 31.25 0 L 5.515625 0 L 5.515625 -94.640625 L 31.25 -94.640625 Z M 31.25 -80.5 "/></g></g></g><g fill="#ffffff" fill-opacity="1"><g transform="translate(470.269768, 190.706668)"><g><path d="M 31.0625 -128.09375 L 31.0625 -106.40625 L 5.515625 -106.40625 L 5.515625 -128.09375 Z M 31.25 -94.46875 L 31.25 0 L 5.515625 0 L 5.515625 -94.46875 Z M 31.25 -94.46875 "/></g></g></g><g fill="#ffffff" fill-opacity="1"><g transform="translate(507.025612, 190.706668)"><g><path d="M 49.0625 -94.640625 C 62.175781 -94.765625 73.328125 -90.234375 82.515625 -81.046875 C 91.828125 -71.734375 96.484375 -60.582031 96.484375 -47.59375 C 96.609375 -34.488281 92.078125 -23.34375 82.890625 -14.15625 C 73.703125 -4.84375 62.613281 -0.125 49.625 0 C 36.507812 0.125 25.296875 -4.40625 15.984375 -13.59375 C 6.671875 -22.789062 2.015625 -33.941406 2.015625 -47.046875 C 1.898438 -60.160156 6.4375 -71.3125 15.625 -80.5 C 24.8125 -89.8125 35.957031 -94.523438 49.0625 -94.640625 Z M 65.796875 -30.875 C 70.328125 -35.40625 72.59375 -40.921875 72.59375 -47.421875 C 72.59375 -53.785156 70.265625 -59.296875 65.609375 -63.953125 C 60.953125 -68.367188 55.4375 -70.578125 49.0625 -70.578125 C 42.695312 -70.578125 37.25 -68.304688 32.71875 -63.765625 C 28.175781 -58.992188 25.90625 -53.484375 25.90625 -47.234375 C 25.90625 -40.859375 28.234375 -35.34375 32.890625 -30.6875 C 37.429688 -26.15625 42.945312 -23.890625 49.4375 -23.890625 C 56.050781 -24.140625 61.503906 -26.46875 65.796875 -30.875 Z M 65.796875 -30.875 "/></g></g></g><g fill="#ffffff" fill-opacity="1"><g transform="translate(605.531399, 190.706668)"><g/></g></g><g fill="#ffffff" fill-opacity="1"><g transform="translate(653.313995, 190.706668)"><g><path d="M 96.296875 -90.78125 L 65.25 -90.78125 L 65.25 0 L 36.578125 0 L 36.578125 -90.78125 L 5.515625 -90.78125 L 5.515625 -119.453125 L 96.296875 -119.453125 Z M 96.296875 -90.78125 "/></g></g></g><g fill="#ffffff" fill-opacity="1"><g transform="translate(738.403424, 190.706668)"><g><path d="M 96.671875 -43.1875 C 96.796875 -40.613281 96.796875 -39.082031 96.671875 -38.59375 L 27.5625 -38.78125 C 28.539062 -35.957031 30.316406 -33.257812 32.890625 -30.6875 C 37.671875 -26.15625 43.1875 -23.890625 49.4375 -23.890625 C 56.050781 -24.140625 61.566406 -26.46875 65.984375 -30.875 L 66.71875 -31.609375 L 90.609375 -24.078125 C 85.335938 -15.867188 79.820312 -9.988281 74.0625 -6.4375 C 67.570312 -2.269531 59.425781 -0.125 49.625 0 C 36.632812 0.125 25.484375 -4.40625 16.171875 -13.59375 C 6.859375 -22.789062 2.140625 -33.941406 2.015625 -47.046875 C 1.898438 -60.035156 6.4375 -71.1875 15.625 -80.5 C 24.8125 -89.8125 35.957031 -94.523438 49.0625 -94.640625 C 62.050781 -94.765625 73.203125 -90.234375 82.515625 -81.046875 C 91.828125 -71.859375 96.546875 -60.707031 96.671875 -47.59375 Z M 49.25 -70.578125 C 42.757812 -70.578125 37.25 -68.304688 32.71875 -63.765625 C 30.382812 -61.191406 28.726562 -58.617188 27.75 -56.046875 L 70.9375 -56.046875 C 69.957031 -58.617188 68.242188 -61.253906 65.796875 -63.953125 C 61.140625 -68.367188 55.625 -70.578125 49.25 -70.578125 Z M 49.25 -70.578125 "/></g></g></g><g fill="#ffffff" fill-opacity="1"><g transform="translate(837.092936, 190.706668)"><g><path d="M 43.734375 0 C 37.367188 0 31.796875 -0.976562 27.015625 -2.9375 C 23.210938 -4.289062 19.289062 -6.800781 15.25 -10.46875 C 8.269531 -16.96875 5.085938 -25.179688 5.703125 -35.109375 L 5.703125 -37.125 L 26.28125 -36.75 L 27.9375 -36.75 L 27.9375 -35.28125 C 28.0625 -32.21875 28.734375 -29.707031 29.953125 -27.75 C 32.035156 -24.195312 36.628906 -22.421875 43.734375 -22.421875 C 49.617188 -22.421875 53.847656 -23.09375 56.421875 -24.4375 C 57.765625 -25.050781 58.679688 -25.847656 59.171875 -26.828125 C 59.421875 -27.203125 59.546875 -27.570312 59.546875 -27.9375 L 59.734375 -28.859375 C 59.734375 -31.429688 57.710938 -33.515625 53.671875 -35.109375 C 52.078125 -35.710938 50.238281 -36.203125 48.15625 -36.578125 C 46.5625 -36.941406 44.785156 -37.242188 42.828125 -37.484375 C 35.472656 -38.222656 29.34375 -39.695312 24.4375 -41.90625 C 19.539062 -43.863281 15.5 -46.554688 12.3125 -49.984375 C 7.90625 -55.015625 5.703125 -60.773438 5.703125 -67.265625 C 5.703125 -71.304688 6.4375 -75.039062 7.90625 -78.46875 C 9.007812 -81.164062 10.476562 -83.554688 12.3125 -85.640625 C 18.925781 -93.234375 29.523438 -97.03125 44.109375 -97.03125 C 52.804688 -97.03125 60.15625 -95.316406 66.15625 -91.890625 C 70.8125 -89.316406 74.550781 -85.828125 77.375 -81.421875 C 79.582031 -78.109375 81.113281 -74.25 81.96875 -69.84375 C 82.207031 -68.363281 82.390625 -66.953125 82.515625 -65.609375 L 82.515625 -61.75 L 60.28125 -61.75 L 60.28125 -64.5 C 60.15625 -65 60.09375 -65.492188 60.09375 -65.984375 C 59.726562 -67.328125 59.238281 -68.425781 58.625 -69.28125 C 55.925781 -72.957031 51.085938 -74.796875 44.109375 -74.796875 C 33.816406 -74.796875 28.671875 -72.648438 28.671875 -68.359375 C 28.671875 -66.160156 29.894531 -64.382812 32.34375 -63.03125 C 34.914062 -61.4375 39.265625 -60.273438 45.390625 -59.546875 C 59.484375 -58.078125 69.710938 -53.601562 76.078125 -46.125 C 80.367188 -41.101562 82.515625 -35.347656 82.515625 -28.859375 L 82.515625 -27.5625 L 82.328125 -25.90625 C 82.328125 -24.320312 82.144531 -22.851562 81.78125 -21.5 C 80.800781 -17.582031 78.960938 -14.09375 76.265625 -11.03125 C 73.203125 -7.351562 68.914062 -4.59375 63.40625 -2.75 C 57.894531 -0.914062 51.335938 0 43.734375 0 Z M 43.734375 0 "/></g></g></g><g fill="#ffffff" fill-opacity="1"><g transform="translate(921.998915, 190.706668)"><g><path d="M 73.703125 -94.640625 L 73.703125 -68.921875 L 52.5625 -68.921875 L 52.5625 0 L 26.828125 0 L 26.828125 -68.921875 L 5.515625 -68.921875 L 5.515625 -94.640625 L 26.828125 -94.640625 L 26.828125 -127.734375 L 52.5625 -127.734375 L 52.5625 -94.640625 Z M 73.703125 -94.640625 "/></g></g></g><g fill="#ffffff" fill-opacity="1"><g transform="translate(1001.207794, 190.706668)"><g><path d="M 43.734375 0 C 37.367188 0 31.796875 -0.976562 27.015625 -2.9375 C 23.210938 -4.289062 19.289062 -6.800781 15.25 -10.46875 C 8.269531 -16.96875 5.085938 -25.179688 5.703125 -35.109375 L 5.703125 -37.125 L 26.28125 -36.75 L 27.9375 -36.75 L 27.9375 -35.28125 C 28.0625 -32.21875 28.734375 -29.707031 29.953125 -27.75 C 32.035156 -24.195312 36.628906 -22.421875 43.734375 -22.421875 C 49.617188 -22.421875 53.847656 -23.09375 56.421875 -24.4375 C 57.765625 -25.050781 58.679688 -25.847656 59.171875 -26.828125 C 59.421875 -27.203125 59.546875 -27.570312 59.546875 -27.9375 L 59.734375 -28.859375 C 59.734375 -31.429688 57.710938 -33.515625 53.671875 -35.109375 C 52.078125 -35.710938 50.238281 -36.203125 48.15625 -36.578125 C 46.5625 -36.941406 44.785156 -37.242188 42.828125 -37.484375 C 35.472656 -38.222656 29.34375 -39.695312 24.4375 -41.90625 C 19.539062 -43.863281 15.5 -46.554688 12.3125 -49.984375 C 7.90625 -55.015625 5.703125 -60.773438 5.703125 -67.265625 C 5.703125 -71.304688 6.4375 -75.039062 7.90625 -78.46875 C 9.007812 -81.164062 10.476562 -83.554688 12.3125 -85.640625 C 18.925781 -93.234375 29.523438 -97.03125 44.109375 -97.03125 C 52.804688 -97.03125 60.15625 -95.316406 66.15625 -91.890625 C 70.8125 -89.316406 74.550781 -85.828125 77.375 -81.421875 C 79.582031 -78.109375 81.113281 -74.25 81.96875 -69.84375 C 82.207031 -68.363281 82.390625 -66.953125 82.515625 -65.609375 L 82.515625 -61.75 L 60.28125 -61.75 L 60.28125 -64.5 C 60.15625 -65 60.09375 -65.492188 60.09375 -65.984375 C 59.726562 -67.328125 59.238281 -68.425781 58.625 -69.28125 C 55.925781 -72.957031 51.085938 -74.796875 44.109375 -74.796875 C 33.816406 -74.796875 28.671875 -72.648438 28.671875 -68.359375 C 28.671875 -66.160156 29.894531 -64.382812 32.34375 -63.03125 C 34.914062 -61.4375 39.265625 -60.273438 45.390625 -59.546875 C 59.484375 -58.078125 69.710938 -53.601562 76.078125 -46.125 C 80.367188 -41.101562 82.515625 -35.347656 82.515625 -28.859375 L 82.515625 -27.5625 L 82.328125 -25.90625 C 82.328125 -24.320312 82.144531 -22.851562 81.78125 -21.5 C 80.800781 -17.582031 78.960938 -14.09375 76.265625 -11.03125 C 73.203125 -7.351562 68.914062 -4.59375 63.40625 -2.75 C 57.894531 -0.914062 51.335938 0 43.734375 0 Z M 43.734375 0 "/></g></g></g></g></g><g clip-path="url(#41259f5cf7)"><g clip-path="url(#a2691fb81a)"><g clip-path="url(#a50cef7a78)"><path fill="#ffffff" d="M 570.667969 399.847656 C 569.945312 399.269531 569.386719 398.570312 569.039062 397.773438 C 568.414062 396.371094 568.3125 394.816406 568.242188 393.554688 C 568.238281 393.335938 568.214844 393.121094 568.203125 392.933594 C 567.292969 381.25 572.597656 369.464844 581.769531 362.660156 C 583.570312 359.695312 586.886719 358.179688 590.160156 358.605469 C 591.886719 355.980469 594.050781 353.273438 596.84375 350.242188 C 598.054688 348.929688 599.226562 347.710938 600.367188 346.554688 C 594.390625 343.042969 588.226562 339.421875 581.878906 336.550781 C 581.554688 336.394531 581.265625 336.21875 581.003906 336.007812 C 580.554688 335.648438 580.195312 335.21875 579.941406 334.707031 C 579.332031 333.644531 579.28125 332.363281 579.773438 331.210938 L 579.894531 330.949219 C 580.753906 328.957031 581.644531 326.902344 582.898438 324.976562 C 583.785156 323.621094 585.328125 322.949219 586.855469 323.21875 C 591.953125 323.347656 597.148438 323.460938 602.160156 323.554688 C 620.082031 323.921875 638.601562 324.300781 656.839844 325.820312 C 658.035156 324.507812 659.554688 323.640625 661.328125 323.246094 C 663.304688 322.796875 665.273438 323.257812 666.871094 324.539062 C 667.816406 325.292969 668.574219 326.296875 669.101562 327.457031 C 682.058594 329.871094 694.082031 334.519531 706.273438 339.484375 C 711.167969 341.480469 716.324219 343.164062 721.296875 344.8125 C 722.933594 345.351562 724.582031 345.894531 726.210938 346.445312 C 733.46875 348.878906 740 351.160156 746.167969 353.40625 C 746.695312 353.554688 747.152344 353.796875 747.566406 354.128906 C 747.664062 354.207031 747.765625 354.285156 747.855469 354.375 C 748.15625 354.671875 748.414062 355.003906 748.613281 355.359375 C 749.0625 356.078125 749.285156 356.925781 749.238281 357.789062 L 748.960938 363.320312 C 748.871094 365.296875 747.433594 366.84375 745.5 367.054688 C 745.140625 367.125 744.761719 367.128906 744.398438 367.089844 C 733.589844 365.964844 723.613281 365.113281 713.871094 364.503906 C 712.203125 364.40625 710.453125 364.300781 708.617188 364.214844 C 710.652344 370.628906 711.925781 377.257812 712.398438 383.964844 C 712.472656 385.101562 712.109375 386.160156 711.382812 386.980469 C 711.296875 387.089844 711.152344 387.246094 710.972656 387.40625 C 704.316406 393.511719 698.414062 397.71875 692.367188 400.644531 C 685.949219 403.738281 679.214844 405.140625 672.328125 404.804688 C 664.152344 404.421875 656.199219 402.027344 650.929688 400.25 C 638.046875 395.867188 625.558594 388.917969 613.835938 379.53125 C 613.003906 378.863281 612.160156 378.167969 611.332031 377.472656 C 610.441406 376.722656 609.914062 375.652344 609.859375 374.53125 C 609.851562 374.382812 609.84375 374.191406 609.847656 373.980469 C 609.984375 371.679688 610.296875 369.359375 610.773438 367.0625 C 610.800781 366.867188 610.839844 366.683594 610.886719 366.488281 C 611.289062 364.6875 611.789062 362.894531 612.394531 361.152344 C 612.472656 360.851562 612.558594 360.5625 612.699219 360.28125 C 613.371094 358.429688 614.171875 356.621094 615.070312 354.84375 C 614.089844 354.34375 613.058594 353.789062 611.964844 353.203125 C 609.664062 355.132812 607.402344 357.28125 605.214844 359.609375 C 603.285156 361.660156 600.902344 364.320312 598.917969 367.292969 C 599.570312 368.878906 599.75 370.605469 599.433594 372.238281 C 599.097656 373.894531 598.28125 375.359375 597.078125 376.503906 C 596.601562 379.769531 596.8125 383.300781 597.023438 386.742188 L 597.027344 386.78125 C 597.078125 387.613281 597.195312 388.5 597.308594 389.433594 C 597.539062 391.21875 597.757812 393.050781 597.636719 394.929688 C 597.554688 396.15625 596.933594 397.222656 595.96875 397.910156 C 591.75 401.742188 586.488281 403.710938 581.136719 403.433594 C 578.214844 403.285156 575.246094 402.4375 572.578125 400.984375 L 572.335938 400.863281 C 571.828125 400.617188 571.246094 400.3125 570.667969 399.847656 Z M 570.667969 399.847656 " fill-opacity="1" fill-rule="nonzero"/></g></g></g><g clip-path="url(#610d09a79f)"><g clip-path="url(#aadae65b28)"><g clip-path="url(#72ad49b456)"><path fill="#ffffff" d="M 745.074219 364 C 744.964844 364.019531 744.847656 364.035156 744.726562 364.027344 C 734.527344 362.957031 724.304688 362.070312 714.082031 361.433594 C 710.8125 361.226562 707.539062 361.070312 704.28125 360.917969 C 707.089844 368.386719 708.8125 376.183594 709.371094 384.148438 C 709.402344 384.496094 709.28125 384.757812 709.082031 384.957031 C 709.039062 385.011719 708.996094 385.070312 708.933594 385.125 C 703.53125 390.09375 697.675781 394.664062 691.050781 397.863281 C 685.210938 400.6875 678.972656 402.035156 672.476562 401.722656 C 665.492188 401.398438 658.519531 399.550781 651.914062 397.316406 C 637.71875 392.546875 624.734375 384.738281 613.292969 375.140625 C 613.027344 374.910156 612.90625 374.632812 612.914062 374.351562 C 612.910156 374.292969 612.910156 374.222656 612.914062 374.152344 C 613.046875 371.921875 613.351562 369.722656 613.8125 367.554688 C 613.820312 367.453125 613.839844 367.363281 613.867188 367.257812 C 614.269531 365.457031 614.769531 363.683594 615.367188 361.949219 C 615.382812 361.800781 615.445312 361.652344 615.511719 361.527344 C 616.503906 358.761719 617.777344 356.09375 619.300781 353.539062 C 616.707031 352.289062 614.152344 350.945312 611.632812 349.554688 C 608.558594 352 605.667969 354.6875 603 357.527344 C 600.210938 360.492188 597.480469 363.679688 595.382812 367.195312 C 595.425781 367.25 595.472656 367.304688 595.519531 367.359375 C 597.222656 369.855469 596.820312 373.1875 594.28125 374.855469 C 593.488281 378.804688 593.742188 383 593.984375 386.988281 C 594.144531 389.507812 594.765625 392.234375 594.59375 394.757812 C 594.5625 395.109375 594.371094 395.371094 594.097656 395.511719 C 590.613281 398.761719 586.070312 400.660156 581.273438 400.414062 C 578.742188 400.292969 576.234375 399.542969 574.015625 398.339844 C 573.121094 397.859375 572.21875 397.441406 571.796875 396.527344 C 571.316406 395.441406 571.304688 393.867188 571.214844 392.699219 C 570.386719 382.039062 575.316406 370.921875 584.097656 364.738281 C 584.128906 364.65625 584.171875 364.582031 584.21875 364.496094 C 585.640625 361.890625 588.871094 360.867188 591.515625 362.191406 C 593.59375 358.605469 596.277344 355.34375 599.058594 352.320312 C 601 350.210938 603.109375 348.050781 605.367188 345.992188 C 598.066406 341.730469 590.839844 337.304688 583.113281 333.796875 C 582.863281 333.6875 582.703125 333.503906 582.609375 333.304688 C 582.464844 333.0625 582.429688 332.746094 582.558594 332.402344 C 583.410156 330.441406 584.269531 328.429688 585.429688 326.644531 C 585.703125 326.234375 586.09375 326.148438 586.441406 326.25 C 586.441406 326.25 586.453125 326.261719 586.464844 326.25 C 610.402344 326.867188 634.378906 326.921875 658.25 328.996094 C 659.027344 327.644531 660.242188 326.601562 661.96875 326.21875 C 664.375 325.683594 666.164062 327.605469 666.6875 329.800781 C 666.71875 329.917969 666.742188 330.046875 666.753906 330.164062 C 666.855469 330.152344 666.945312 330.152344 667.054688 330.171875 C 680.273438 332.433594 692.757812 337.253906 705.113281 342.277344 C 711.699219 344.964844 718.507812 347.035156 725.238281 349.296875 C 731.9375 351.554688 738.613281 353.859375 745.25 356.28125 C 745.445312 356.328125 745.613281 356.410156 745.726562 356.539062 C 745.828125 356.636719 745.910156 356.757812 745.953125 356.863281 C 746.105469 357.054688 746.199219 357.292969 746.183594 357.585938 C 746.085938 359.433594 746 361.269531 745.90625 363.117188 C 745.902344 363.707031 745.511719 363.96875 745.074219 364 Z M 745.074219 364 " fill-opacity="1" fill-rule="nonzero"/><path fill="#ffffff" d="M 745.925781 363.117188 C 746.019531 361.269531 746.105469 359.433594 746.203125 357.585938 C 746.21875 357.292969 746.132812 357.042969 745.972656 356.859375 C 745.929688 356.734375 745.855469 356.625 745.746094 356.535156 C 745.632812 356.410156 745.464844 356.328125 745.269531 356.28125 C 738.632812 353.859375 731.957031 351.550781 725.257812 349.296875 C 718.527344 347.035156 711.710938 344.953125 705.132812 342.277344 C 692.777344 337.25 680.285156 332.441406 667.074219 330.167969 C 666.964844 330.152344 666.875 330.152344 666.777344 330.160156 C 666.75 330.035156 666.738281 329.917969 666.707031 329.800781 C 666.183594 327.601562 664.414062 325.679688 661.988281 326.21875 C 660.261719 326.597656 659.050781 327.640625 658.269531 328.996094 C 634.398438 326.921875 610.421875 326.867188 586.484375 326.246094 C 586.484375 326.246094 586.472656 326.238281 586.464844 326.25 C 586.121094 326.136719 585.71875 326.210938 585.449219 326.640625 C 584.277344 328.4375 583.421875 330.449219 582.578125 332.398438 C 582.429688 332.746094 582.472656 333.050781 582.628906 333.300781 C 582.722656 333.5 582.890625 333.671875 583.132812 333.796875 C 590.847656 337.296875 598.078125 341.71875 605.386719 345.992188 C 603.140625 348.058594 601.03125 350.21875 599.078125 352.320312 C 596.296875 355.34375 593.613281 358.605469 591.535156 362.1875 C 588.902344 360.871094 585.660156 361.890625 584.242188 364.492188 C 584.199219 364.566406 584.160156 364.660156 584.117188 364.734375 C 575.335938 370.917969 570.40625 382.035156 571.234375 392.695312 C 571.324219 393.863281 571.328125 395.433594 571.816406 396.527344 C 572.226562 397.449219 573.140625 397.855469 574.035156 398.335938 C 576.253906 399.539062 578.761719 400.292969 581.292969 400.410156 C 586.089844 400.660156 590.621094 398.75 594.117188 395.507812 C 594.390625 395.367188 594.582031 395.109375 594.613281 394.753906 C 594.785156 392.230469 594.152344 389.496094 594.003906 386.984375 C 593.761719 383 593.507812 378.804688 594.300781 374.851562 C 596.84375 373.183594 597.242188 369.855469 595.539062 367.355469 C 595.5 367.292969 595.445312 367.246094 595.402344 367.191406 C 597.507812 363.664062 600.238281 360.476562 603.019531 357.523438 C 605.699219 354.671875 608.574219 351.980469 611.652344 349.550781 C 614.171875 350.941406 616.71875 352.296875 619.320312 353.535156 C 617.796875 356.089844 616.523438 358.757812 615.53125 361.523438 C 615.457031 361.660156 615.402344 361.796875 615.386719 361.949219 C 614.769531 363.683594 614.269531 365.457031 613.886719 367.257812 C 613.847656 367.351562 613.839844 367.453125 613.832031 367.550781 C 613.371094 369.71875 613.066406 371.917969 612.933594 374.152344 C 612.929688 374.222656 612.929688 374.289062 612.933594 374.351562 C 612.933594 374.621094 613.035156 374.898438 613.3125 375.136719 C 624.753906 384.734375 637.75 392.554688 651.945312 397.324219 C 658.558594 399.546875 665.511719 401.394531 672.507812 401.730469 C 679.003906 402.042969 685.234375 400.683594 691.082031 397.871094 C 697.714844 394.660156 703.558594 390.082031 708.960938 385.132812 C 709.015625 385.085938 709.070312 385.019531 709.113281 384.964844 C 709.300781 384.773438 709.421875 384.492188 709.402344 384.15625 C 708.832031 376.199219 707.121094 368.394531 704.308594 360.925781 C 707.582031 361.0625 710.84375 361.234375 714.109375 361.441406 C 724.347656 362.085938 734.566406 362.972656 744.757812 364.035156 C 744.890625 364.050781 745.007812 364.035156 745.105469 364.003906 C 745.511719 363.96875 745.902344 363.707031 745.925781 363.117188 Z M 607.023438 344.53125 C 606.96875 344.488281 606.925781 344.453125 606.863281 344.421875 C 599.636719 340.21875 592.511719 335.824219 584.933594 332.289062 C 585.457031 331.050781 586.007812 329.804688 586.679688 328.652344 C 594.847656 332.460938 602.382812 337.417969 610.144531 341.980469 C 609.078125 342.796875 608.035156 343.652344 607.023438 344.53125 Z M 661.550781 328.671875 C 664.066406 327.417969 664.949219 330.441406 664.699219 332.417969 C 664.5 334.039062 663.757812 335.546875 663.058594 337.003906 C 662.183594 337.648438 660.980469 337.621094 660.167969 336.863281 C 660.121094 336.808594 660.070312 336.785156 660.027344 336.75 C 658.808594 334.316406 658.785156 330.054688 661.550781 328.671875 Z M 706.585938 378.175781 C 706.863281 380.050781 707.070312 381.925781 707.21875 383.828125 C 698.1875 392.054688 687.390625 399.605469 674.707031 399.660156 C 667.652344 399.691406 660.535156 397.890625 653.855469 395.726562 C 647.175781 393.558594 640.710938 390.71875 634.574219 387.3125 C 627.632812 383.476562 621.144531 378.894531 615.042969 373.828125 C 615.152344 372.367188 615.332031 370.929688 615.570312 369.484375 C 626.53125 378.117188 638.796875 385.121094 652.101562 389.429688 C 658.726562 391.574219 665.671875 393.339844 672.660156 393.507812 C 678.875 393.648438 684.84375 392.210938 690.414062 389.476562 C 696.351562 386.574219 701.660156 382.574219 706.585938 378.175781 Z M 704.632812 368.898438 C 696.0625 376.542969 685.894531 383.539062 674.046875 383.9375 C 667.511719 384.152344 660.929688 382.671875 654.695312 380.828125 C 648.441406 378.980469 642.371094 376.546875 636.554688 373.597656 C 629.902344 370.230469 623.632812 366.179688 617.703125 361.664062 C 618.644531 359.164062 619.804688 356.75 621.21875 354.445312 C 625.457031 356.382812 629.816406 358.007812 634.375 359.050781 C 642.511719 360.929688 650.914062 360.808594 659.207031 360.601562 C 673.464844 360.242188 687.734375 360.253906 701.972656 360.816406 C 703.003906 363.476562 703.890625 366.164062 704.632812 368.898438 Z M 691.648438 358.371094 C 682.753906 358.1875 673.855469 358.183594 664.960938 358.355469 C 656.371094 358.527344 647.714844 359.054688 639.179688 357.792969 C 629.976562 356.441406 621.566406 352.550781 613.464844 348.144531 C 614.585938 347.300781 615.726562 346.507812 616.902344 345.757812 L 616.910156 345.746094 C 623.726562 349.246094 631 351.976562 638.628906 353.070312 C 646.792969 354.234375 655.089844 353.796875 663.300781 353.558594 C 680.515625 353.054688 697.71875 353.957031 714.871094 355.414062 C 724.617188 356.246094 734.335938 357.25 744.050781 358.269531 C 743.992188 359.445312 743.941406 360.628906 743.875 361.816406 C 726.511719 360.011719 709.089844 358.75 691.648438 358.371094 Z M 691.648438 358.371094 " fill-opacity="1" fill-rule="nonzero"/><path fill="#ffffff" d="M 745.925781 363.117188 C 746.019531 361.269531 746.105469 359.433594 746.203125 357.585938 C 746.21875 357.292969 746.132812 357.042969 745.972656 356.859375 C 745.929688 356.734375 745.855469 356.625 745.746094 356.535156 C 745.632812 356.410156 745.464844 356.328125 745.269531 356.28125 C 738.632812 353.859375 731.957031 351.550781 725.257812 349.296875 C 718.527344 347.035156 711.710938 344.953125 705.132812 342.277344 C 692.777344 337.25 680.285156 332.441406 667.074219 330.167969 C 666.964844 330.152344 666.875 330.152344 666.777344 330.160156 C 666.75 330.035156 666.738281 329.917969 666.707031 329.800781 C 666.183594 327.601562 664.414062 325.679688 661.988281 326.21875 C 660.261719 326.597656 659.050781 327.640625 658.269531 328.996094 C 634.398438 326.921875 610.421875 326.867188 586.484375 326.246094 C 586.484375 326.246094 586.472656 326.238281 586.464844 326.25 C 586.121094 326.136719 585.71875 326.210938 585.449219 326.640625 C 584.277344 328.4375 583.421875 330.449219 582.578125 332.398438 C 582.429688 332.746094 582.472656 333.050781 582.628906 333.300781 C 582.722656 333.5 582.890625 333.671875 583.132812 333.796875 C 590.847656 337.296875 598.078125 341.71875 605.386719 345.992188 C 603.140625 348.058594 601.03125 350.21875 599.078125 352.320312 C 596.296875 355.34375 593.613281 358.605469 591.535156 362.1875 C 588.902344 360.871094 585.660156 361.890625 584.242188 364.492188 C 584.199219 364.566406 584.160156 364.660156 584.117188 364.734375 C 575.335938 370.917969 570.40625 382.035156 571.234375 392.695312 C 571.324219 393.863281 571.328125 395.433594 571.816406 396.527344 C 572.226562 397.449219 573.140625 397.855469 574.035156 398.335938 C 576.253906 399.539062 578.761719 400.292969 581.292969 400.410156 C 586.089844 400.660156 590.621094 398.75 594.117188 395.507812 C 594.390625 395.367188 594.582031 395.109375 594.613281 394.753906 C 594.785156 392.230469 594.152344 389.496094 594.003906 386.984375 C 593.761719 383 593.507812 378.804688 594.300781 374.851562 C 596.84375 373.183594 597.242188 369.855469 595.539062 367.355469 C 595.5 367.292969 595.445312 367.246094 595.402344 367.191406 C 597.507812 363.664062 600.238281 360.476562 603.019531 357.523438 C 605.699219 354.671875 608.574219 351.980469 611.652344 349.550781 C 614.171875 350.941406 616.71875 352.296875 619.320312 353.535156 C 617.796875 356.089844 616.523438 358.757812 615.53125 361.523438 C 615.457031 361.660156 615.402344 361.796875 615.386719 361.949219 C 614.769531 363.683594 614.269531 365.457031 613.886719 367.257812 C 613.847656 367.351562 613.839844 367.453125 613.832031 367.550781 C 613.371094 369.71875 613.066406 371.917969 612.933594 374.152344 C 612.929688 374.222656 612.929688 374.289062 612.933594 374.351562 C 612.933594 374.621094 613.035156 374.898438 613.3125 375.136719 C 624.753906 384.734375 637.75 392.554688 651.945312 397.324219 C 658.558594 399.546875 665.511719 401.394531 672.507812 401.730469 C 679.003906 402.042969 685.234375 400.683594 691.082031 397.871094 C 697.714844 394.660156 703.558594 390.082031 708.960938 385.132812 C 709.015625 385.085938 709.070312 385.019531 709.113281 384.964844 C 709.300781 384.773438 709.421875 384.492188 709.402344 384.15625 C 708.832031 376.199219 707.121094 368.394531 704.308594 360.925781 C 707.582031 361.0625 710.84375 361.234375 714.109375 361.441406 C 724.347656 362.085938 734.566406 362.972656 744.757812 364.035156 C 744.890625 364.050781 745.007812 364.035156 745.105469 364.003906 C 745.511719 363.96875 745.902344 363.707031 745.925781 363.117188 Z M 661.550781 328.671875 C 664.066406 327.417969 664.949219 330.441406 664.699219 332.417969 C 664.5 334.039062 663.757812 335.546875 663.058594 337.003906 C 662.183594 337.648438 660.980469 337.621094 660.167969 336.863281 C 660.121094 336.808594 660.070312 336.785156 660.027344 336.75 C 658.808594 334.316406 658.785156 330.054688 661.550781 328.671875 Z M 584.933594 332.289062 C 585.457031 331.050781 586.007812 329.804688 586.679688 328.652344 C 594.847656 332.460938 602.382812 337.417969 610.144531 341.980469 C 609.078125 342.796875 608.035156 343.652344 607.011719 344.523438 C 606.957031 344.480469 606.914062 344.445312 606.851562 344.414062 C 599.648438 340.207031 592.523438 335.8125 584.933594 332.289062 Z M 591.984375 375.675781 C 591.460938 379.140625 591.652344 382.761719 591.832031 386.21875 C 591.925781 388.144531 592.078125 390.0625 592.25 391.980469 C 592.304688 392.5625 592.371094 393.15625 592.425781 393.738281 C 592.429688 393.796875 592.441406 393.988281 592.453125 394.175781 C 590.625 395.785156 588.535156 397.023438 586.246094 397.726562 C 586.257812 397.644531 586.265625 397.542969 586.253906 397.445312 C 585.644531 391.382812 586.652344 385.410156 589.195312 379.878906 C 589.757812 378.640625 587.816406 377.804688 587.257812 379.046875 C 584.566406 384.894531 583.515625 391.28125 584.15625 397.6875 C 584.175781 397.886719 584.234375 398.039062 584.328125 398.167969 C 583.445312 398.304688 582.53125 398.367188 581.609375 398.328125 C 580.496094 398.28125 579.386719 398.09375 578.328125 397.804688 C 577.976562 394.628906 578.109375 391.476562 578.679688 388.339844 C 578.921875 387.003906 576.832031 386.695312 576.589844 388.03125 C 576.039062 391.007812 575.894531 394.019531 576.132812 397.015625 C 575.894531 396.914062 575.660156 396.800781 575.417969 396.675781 C 573.863281 395.902344 573.738281 395.585938 573.519531 393.953125 C 573.367188 392.859375 573.289062 391.769531 573.285156 390.671875 C 573.179688 382.117188 576.96875 373.484375 583.480469 367.929688 C 583.550781 369.351562 584.042969 370.734375 584.871094 371.921875 C 583.566406 373.214844 582.414062 374.609375 581.402344 376.136719 C 580.660156 377.269531 582.304688 378.605469 583.058594 377.460938 C 584.007812 376.03125 585.082031 374.714844 586.285156 373.5 C 587.8125 374.871094 589.933594 375.882812 591.984375 375.675781 Z M 593.316406 370.738281 C 593.503906 370.636719 593.667969 370.480469 593.769531 370.238281 C 593.917969 369.941406 594.054688 369.636719 594.199219 369.34375 C 594.769531 370.785156 594.292969 372.347656 593.058594 373.101562 C 592.933594 373.144531 592.820312 373.199219 592.71875 373.28125 C 592.347656 373.449219 591.917969 373.539062 591.453125 373.558594 C 589.722656 373.609375 587.886719 372.375 586.839844 371.035156 C 585.738281 369.628906 585.199219 367.742188 585.867188 366.011719 C 586.617188 364.039062 588.679688 363.214844 590.546875 364.023438 C 590.410156 364.308594 590.28125 364.585938 590.140625 364.867188 C 589.171875 367.09375 590.660156 369.09375 592.15625 370.617188 C 592.523438 371.054688 592.984375 370.992188 593.316406 370.738281 Z M 614.335938 344.921875 C 609.6875 348.121094 605.414062 351.910156 601.542969 356 C 598.144531 359.589844 594.847656 363.53125 592.53125 367.949219 C 592.046875 367.273438 591.710938 366.503906 592.042969 365.726562 C 595.890625 357.445312 603.230469 350.304688 610.3125 344.738281 C 613.875 341.929688 617.746094 339.292969 622.011719 337.675781 C 627.144531 335.730469 633.148438 335.824219 638.550781 336.195312 C 645.421875 336.664062 652.214844 337.972656 659.042969 338.875 C 659.148438 338.921875 659.257812 338.9375 659.378906 338.925781 C 660.914062 339.90625 663.167969 339.804688 664.507812 338.539062 C 664.523438 338.515625 664.542969 338.496094 664.570312 338.480469 C 664.6875 338.378906 664.785156 338.257812 664.859375 338.101562 C 664.875 338.078125 664.882812 338.046875 664.890625 338.039062 C 665.210938 338.601562 665.433594 339.246094 665.464844 339.902344 C 665.535156 341.25 664.410156 341.625 663.214844 341.746094 C 661.457031 341.921875 659.671875 341.570312 657.953125 341.308594 C 654.359375 340.769531 650.792969 340.125 647.210938 339.59375 C 640.417969 338.574219 633.363281 337.886719 626.5625 339.199219 C 622.113281 340.058594 618.039062 342.386719 614.335938 344.921875 Z M 707.21875 383.828125 C 698.1875 392.054688 687.390625 399.605469 674.707031 399.660156 C 667.652344 399.691406 660.535156 397.890625 653.855469 395.726562 C 647.175781 393.558594 640.710938 390.71875 634.574219 387.3125 C 627.632812 383.476562 621.144531 378.894531 615.042969 373.828125 C 615.152344 372.367188 615.332031 370.929688 615.570312 369.484375 C 626.53125 378.117188 638.796875 385.121094 652.101562 389.429688 C 658.726562 391.574219 665.671875 393.339844 672.660156 393.507812 C 678.875 393.648438 684.84375 392.210938 690.414062 389.476562 C 696.351562 386.554688 701.660156 382.554688 706.574219 378.167969 C 706.863281 380.050781 707.070312 381.925781 707.21875 383.828125 Z M 706.171875 375.707031 C 697.363281 383.699219 686.832031 391.121094 674.503906 391.40625 C 667.710938 391.558594 660.851562 389.929688 654.402344 387.949219 C 647.808594 385.921875 641.433594 383.242188 635.34375 380 C 628.5 376.355469 622.078125 372 616.042969 367.167969 C 616.304688 366.011719 616.613281 364.886719 616.976562 363.761719 C 627.78125 371.910156 639.796875 378.460938 652.746094 382.449219 C 659.039062 384.378906 665.582031 385.953125 672.195312 386.070312 C 678.226562 386.171875 684.019531 384.734375 689.429688 382.109375 C 695.207031 379.292969 700.394531 375.445312 705.214844 371.199219 C 705.582031 372.695312 705.90625 374.199219 706.171875 375.707031 Z M 704.632812 368.898438 C 696.0625 376.542969 685.894531 383.539062 674.046875 383.9375 C 667.511719 384.152344 660.929688 382.671875 654.695312 380.828125 C 648.441406 378.980469 642.371094 376.546875 636.554688 373.597656 C 629.902344 370.230469 623.632812 366.179688 617.703125 361.664062 C 618.644531 359.164062 619.804688 356.75 621.21875 354.445312 C 625.457031 356.382812 629.816406 358.007812 634.375 359.050781 C 642.511719 360.929688 650.914062 360.808594 659.207031 360.601562 C 673.464844 360.242188 687.734375 360.253906 701.972656 360.816406 C 703.003906 363.476562 703.890625 366.164062 704.632812 368.898438 Z M 691.648438 358.371094 C 682.753906 358.1875 673.855469 358.183594 664.960938 358.355469 C 656.371094 358.527344 647.714844 359.054688 639.179688 357.792969 C 629.976562 356.441406 621.566406 352.550781 613.464844 348.144531 C 614.585938 347.300781 615.726562 346.507812 616.902344 345.757812 L 616.910156 345.746094 C 623.726562 349.246094 631 351.976562 638.628906 353.070312 C 646.792969 354.234375 655.089844 353.796875 663.300781 353.558594 C 680.515625 353.054688 697.71875 353.957031 714.871094 355.414062 C 724.617188 356.246094 734.335938 357.25 744.050781 358.269531 C 743.992188 359.445312 743.941406 360.628906 743.875 361.816406 C 726.511719 360.011719 709.089844 358.75 691.648438 358.371094 Z M 691.648438 358.371094 " fill-opacity="1" fill-rule="nonzero"/><path fill="#000000" d="M 745.925781 363.117188 C 746.019531 361.269531 746.105469 359.433594 746.203125 357.585938 C 746.21875 357.292969 746.132812 357.042969 745.972656 356.859375 C 745.929688 356.734375 745.855469 356.625 745.746094 356.535156 C 745.632812 356.410156 745.464844 356.328125 745.269531 356.28125 C 738.632812 353.859375 731.957031 351.550781 725.257812 349.296875 C 718.527344 347.035156 711.710938 344.953125 705.132812 342.277344 C 692.777344 337.25 680.285156 332.441406 667.074219 330.167969 C 666.964844 330.152344 666.875 330.152344 666.777344 330.160156 C 666.75 330.035156 666.738281 329.917969 666.707031 329.800781 C 666.183594 327.601562 664.414062 325.679688 661.988281 326.21875 C 660.261719 326.597656 659.050781 327.640625 658.269531 328.996094 C 634.398438 326.921875 610.421875 326.867188 586.484375 326.246094 C 586.484375 326.246094 586.472656 326.238281 586.464844 326.25 C 586.121094 326.136719 585.71875 326.210938 585.449219 326.640625 C 584.277344 328.4375 583.421875 330.449219 582.578125 332.398438 C 582.429688 332.746094 582.472656 333.050781 582.628906 333.300781 C 582.722656 333.5 582.890625 333.671875 583.132812 333.796875 C 590.847656 337.296875 598.078125 341.71875 605.386719 345.992188 C 603.140625 348.058594 601.03125 350.21875 599.078125 352.320312 C 596.296875 355.34375 593.613281 358.605469 591.535156 362.1875 C 588.902344 360.871094 585.660156 361.890625 584.242188 364.492188 C 584.199219 364.566406 584.160156 364.660156 584.117188 364.734375 C 575.335938 370.917969 570.40625 382.035156 571.234375 392.695312 C 571.324219 393.863281 571.328125 395.433594 571.816406 396.527344 C 572.226562 397.449219 573.140625 397.855469 574.035156 398.335938 C 576.253906 399.539062 578.761719 400.292969 581.292969 400.410156 C 586.089844 400.660156 590.621094 398.75 594.117188 395.507812 C 594.390625 395.367188 594.582031 395.109375 594.613281 394.753906 C 594.785156 392.230469 594.152344 389.496094 594.003906 386.984375 C 593.761719 383 593.507812 378.804688 594.300781 374.851562 C 596.84375 373.183594 597.242188 369.855469 595.539062 367.355469 C 595.5 367.292969 595.445312 367.246094 595.402344 367.191406 C 597.507812 363.664062 600.238281 360.476562 603.019531 357.523438 C 605.699219 354.671875 608.574219 351.980469 611.652344 349.550781 C 614.171875 350.941406 616.71875 352.296875 619.320312 353.535156 C 617.796875 356.089844 616.523438 358.757812 615.53125 361.523438 C 615.457031 361.660156 615.402344 361.796875 615.386719 361.949219 C 614.769531 363.683594 614.269531 365.457031 613.886719 367.257812 C 613.847656 367.351562 613.839844 367.453125 613.832031 367.550781 C 613.371094 369.71875 613.066406 371.917969 612.933594 374.152344 C 612.929688 374.222656 612.929688 374.289062 612.933594 374.351562 C 612.933594 374.621094 613.035156 374.898438 613.3125 375.136719 C 624.753906 384.734375 637.75 392.554688 651.945312 397.324219 C 658.558594 399.546875 665.511719 401.394531 672.507812 401.730469 C 679.003906 402.042969 685.234375 400.683594 691.082031 397.871094 C 697.714844 394.660156 703.558594 390.082031 708.960938 385.132812 C 709.015625 385.085938 709.070312 385.019531 709.113281 384.964844 C 709.300781 384.773438 709.421875 384.492188 709.402344 384.15625 C 708.832031 376.199219 707.121094 368.394531 704.308594 360.925781 C 707.582031 361.0625 710.84375 361.234375 714.109375 361.441406 C 724.347656 362.085938 734.566406 362.972656 744.757812 364.035156 C 744.890625 364.050781 745.007812 364.035156 745.105469 364.003906 C 745.511719 363.96875 745.902344 363.707031 745.925781 363.117188 Z M 705.011719 344.515625 C 711.363281 347.066406 717.933594 349.058594 724.414062 351.246094 C 728.398438 352.582031 732.371094 353.949219 736.339844 355.347656 C 722.140625 353.882812 707.917969 352.558594 693.671875 351.847656 C 685.472656 351.445312 677.261719 351.238281 669.035156 351.335938 C 660.550781 351.445312 652.03125 352.117188 643.554688 351.476562 C 634.914062 350.835938 626.804688 348.277344 619.078125 344.480469 C 623.433594 342.070312 627.851562 340.84375 633.0625 340.648438 C 640.628906 340.359375 648.125 341.90625 655.574219 343.089844 C 658.59375 343.566406 662.964844 344.839844 665.863281 343.242188 C 668.480469 341.792969 667.824219 338.210938 666.246094 336.210938 C 666.152344 336.082031 666.03125 335.984375 665.902344 335.917969 C 666.382812 334.738281 666.757812 333.527344 666.882812 332.296875 C 680.132812 334.566406 692.570312 339.511719 705.011719 344.515625 Z M 661.550781 328.671875 C 664.066406 327.417969 664.949219 330.441406 664.699219 332.417969 C 664.5 334.039062 663.757812 335.546875 663.058594 337.003906 C 662.183594 337.648438 660.980469 337.621094 660.167969 336.863281 C 660.121094 336.808594 660.070312 336.785156 660.027344 336.75 C 658.808594 334.316406 658.785156 330.054688 661.550781 328.671875 Z M 657.476562 331.039062 C 657.046875 332.835938 657.148438 334.839844 657.699219 336.554688 C 651.785156 335.722656 645.878906 334.675781 639.914062 334.179688 C 634.273438 333.722656 628.152344 333.550781 622.667969 335.214844 C 618.917969 336.347656 615.347656 338.273438 611.992188 340.621094 C 605.023438 336.566406 598.253906 332.132812 591.097656 328.453125 C 613.238281 328.960938 635.402344 329.144531 657.476562 331.039062 Z M 584.933594 332.289062 C 585.457031 331.050781 586.007812 329.804688 586.679688 328.652344 C 594.847656 332.460938 602.382812 337.417969 610.144531 341.980469 C 609.078125 342.796875 608.035156 343.652344 607.011719 344.523438 C 606.957031 344.480469 606.914062 344.445312 606.851562 344.414062 C 599.648438 340.207031 592.523438 335.8125 584.933594 332.289062 Z M 591.984375 375.675781 C 591.460938 379.140625 591.652344 382.761719 591.832031 386.21875 C 591.925781 388.144531 592.078125 390.0625 592.25 391.980469 C 592.304688 392.5625 592.371094 393.15625 592.425781 393.738281 C 592.429688 393.796875 592.441406 393.988281 592.453125 394.175781 C 590.625 395.785156 588.535156 397.023438 586.246094 397.726562 C 586.257812 397.644531 586.265625 397.542969 586.253906 397.445312 C 585.644531 391.382812 586.652344 385.410156 589.195312 379.878906 C 589.757812 378.640625 587.816406 377.804688 587.257812 379.046875 C 584.566406 384.894531 583.515625 391.28125 584.15625 397.6875 C 584.175781 397.886719 584.234375 398.039062 584.328125 398.167969 C 583.445312 398.304688 582.53125 398.367188 581.609375 398.328125 C 580.496094 398.28125 579.386719 398.09375 578.328125 397.804688 C 577.976562 394.628906 578.109375 391.476562 578.679688 388.339844 C 578.921875 387.003906 576.832031 386.695312 576.589844 388.03125 C 576.039062 391.007812 575.894531 394.019531 576.132812 397.015625 C 575.894531 396.914062 575.660156 396.800781 575.417969 396.675781 C 573.863281 395.902344 573.738281 395.585938 573.519531 393.953125 C 573.367188 392.859375 573.289062 391.769531 573.285156 390.671875 C 573.179688 382.117188 576.96875 373.484375 583.480469 367.929688 C 583.550781 369.351562 584.042969 370.734375 584.871094 371.921875 C 583.566406 373.214844 582.414062 374.609375 581.402344 376.136719 C 580.660156 377.269531 582.304688 378.605469 583.058594 377.460938 C 584.007812 376.03125 585.082031 374.714844 586.285156 373.5 C 587.8125 374.871094 589.933594 375.882812 591.984375 375.675781 Z M 593.316406 370.738281 C 593.503906 370.636719 593.667969 370.480469 593.769531 370.238281 C 593.917969 369.941406 594.054688 369.636719 594.199219 369.34375 C 594.769531 370.785156 594.292969 372.347656 593.058594 373.101562 C 592.933594 373.144531 592.820312 373.199219 592.71875 373.28125 C 592.347656 373.449219 591.917969 373.539062 591.453125 373.558594 C 589.722656 373.609375 587.886719 372.375 586.839844 371.035156 C 585.738281 369.628906 585.199219 367.742188 585.867188 366.011719 C 586.617188 364.039062 588.679688 363.214844 590.546875 364.023438 C 590.410156 364.308594 590.28125 364.585938 590.140625 364.867188 C 589.171875 367.09375 590.660156 369.09375 592.15625 370.617188 C 592.523438 371.054688 592.984375 370.992188 593.316406 370.738281 Z M 614.335938 344.921875 C 609.6875 348.121094 605.414062 351.910156 601.542969 356 C 598.144531 359.589844 594.847656 363.53125 592.53125 367.949219 C 592.046875 367.273438 591.710938 366.503906 592.042969 365.726562 C 595.890625 357.445312 603.230469 350.304688 610.3125 344.738281 C 613.875 341.929688 617.746094 339.292969 622.011719 337.675781 C 627.144531 335.730469 633.148438 335.824219 638.550781 336.195312 C 645.421875 336.664062 652.214844 337.972656 659.042969 338.875 C 659.148438 338.921875 659.257812 338.9375 659.378906 338.925781 C 660.914062 339.90625 663.167969 339.804688 664.507812 338.539062 C 664.523438 338.515625 664.542969 338.496094 664.570312 338.480469 C 664.6875 338.378906 664.785156 338.257812 664.859375 338.101562 C 664.875 338.078125 664.882812 338.046875 664.890625 338.039062 C 665.210938 338.601562 665.433594 339.246094 665.464844 339.902344 C 665.535156 341.25 664.410156 341.625 663.214844 341.746094 C 661.457031 341.921875 659.671875 341.570312 657.953125 341.308594 C 654.359375 340.769531 650.792969 340.125 647.210938 339.59375 C 640.417969 338.574219 633.363281 337.886719 626.5625 339.199219 C 622.113281 340.058594 618.039062 342.386719 614.335938 344.921875 Z M 707.21875 383.828125 C 698.1875 392.054688 687.390625 399.605469 674.707031 399.660156 C 667.652344 399.691406 660.535156 397.890625 653.855469 395.726562 C 647.175781 393.558594 640.710938 390.71875 634.574219 387.3125 C 627.632812 383.476562 621.144531 378.894531 615.042969 373.828125 C 615.152344 372.367188 615.332031 370.929688 615.570312 369.484375 C 626.53125 378.117188 638.796875 385.121094 652.101562 389.429688 C 658.726562 391.574219 665.671875 393.339844 672.660156 393.507812 C 678.875 393.648438 684.84375 392.210938 690.414062 389.476562 C 696.351562 386.554688 701.660156 382.554688 706.574219 378.167969 C 706.863281 380.050781 707.070312 381.925781 707.21875 383.828125 Z M 706.171875 375.707031 C 697.363281 383.699219 686.832031 391.121094 674.503906 391.40625 C 667.710938 391.558594 660.851562 389.929688 654.402344 387.949219 C 647.808594 385.921875 641.433594 383.242188 635.34375 380 C 628.5 376.355469 622.078125 372 616.042969 367.167969 C 616.304688 366.011719 616.613281 364.886719 616.976562 363.761719 C 627.78125 371.910156 639.796875 378.460938 652.746094 382.449219 C 659.039062 384.378906 665.582031 385.953125 672.195312 386.070312 C 678.226562 386.171875 684.019531 384.734375 689.429688 382.109375 C 695.207031 379.292969 700.394531 375.445312 705.214844 371.199219 C 705.582031 372.695312 705.90625 374.199219 706.171875 375.707031 Z M 704.632812 368.898438 C 696.0625 376.542969 685.894531 383.539062 674.046875 383.9375 C 667.511719 384.152344 660.929688 382.671875 654.695312 380.828125 C 648.441406 378.980469 642.371094 376.546875 636.554688 373.597656 C 629.902344 370.230469 623.632812 366.179688 617.703125 361.664062 C 618.644531 359.164062 619.804688 356.75 621.21875 354.445312 C 625.457031 356.382812 629.816406 358.007812 634.375 359.050781 C 642.511719 360.929688 650.914062 360.808594 659.207031 360.601562 C 673.464844 360.242188 687.734375 360.253906 701.972656 360.816406 C 703.003906 363.476562 703.890625 366.164062 704.632812 368.898438 Z M 691.648438 358.371094 C 682.753906 358.1875 673.855469 358.183594 664.960938 358.355469 C 656.371094 358.527344 647.714844 359.054688 639.179688 357.792969 C 629.976562 356.441406 621.566406 352.550781 613.464844 348.144531 C 614.585938 347.300781 615.726562 346.507812 616.902344 345.757812 L 616.910156 345.746094 C 623.726562 349.246094 631 351.976562 638.628906 353.070312 C 646.792969 354.234375 655.089844 353.796875 663.300781 353.558594 C 680.515625 353.054688 697.71875 353.957031 714.871094 355.414062 C 724.617188 356.246094 734.335938 357.25 744.050781 358.269531 C 743.992188 359.445312 743.941406 360.628906 743.875 361.816406 C 726.511719 360.011719 709.089844 358.75 691.648438 358.371094 Z M 691.648438 358.371094 " fill-opacity="1" fill-rule="nonzero"/></g></g></g></svg>