<svg xmlns="http://www.w3.org/2000/svg" xmlns:xlink="http://www.w3.org/1999/xlink" width="1920" zoomAndPan="magnify" viewBox="0 0 1440 809.999993" height="1080" preserveAspectRatio="xMidYMid meet" version="1.0"><defs><g/><clipPath id="dcf8760545"><rect x="0" width="1090" y="0" height="242"/></clipPath><clipPath id="a7383e3ddf"><path d="M 119 325 L 312 325 L 312 454 L 119 454 Z M 119 325 " clip-rule="nonzero"/></clipPath><clipPath id="a0380b6fef"><path d="M 144.277344 281.1875 L 314.078125 328.433594 L 269.449219 488.839844 L 99.648438 441.597656 Z M 144.277344 281.1875 " clip-rule="nonzero"/></clipPath><clipPath id="1ae1997f0d"><path d="M 144.277344 281.1875 L 314.078125 328.433594 L 269.449219 488.839844 L 99.648438 441.597656 Z M 144.277344 281.1875 " clip-rule="nonzero"/></clipPath><clipPath id="783acd9d5b"><path d="M 122 329 L 308 329 L 308 451 L 122 451 Z M 122 329 " clip-rule="nonzero"/></clipPath><clipPath id="a59a098cf5"><path d="M 144.277344 281.1875 L 314.078125 328.433594 L 269.449219 488.839844 L 99.648438 441.597656 Z M 144.277344 281.1875 " clip-rule="nonzero"/></clipPath><clipPath id="2d9ffe1601"><path d="M 144.277344 281.1875 L 314.078125 328.433594 L 269.449219 488.839844 L 99.648438 441.597656 Z M 144.277344 281.1875 " clip-rule="nonzero"/></clipPath><clipPath id="5051696598"><path d="M 123 329 L 308 329 L 308 451 L 123 451 Z M 123 329 " clip-rule="nonzero"/></clipPath><clipPath id="cab0afb9fb"><path d="M 144.277344 281.1875 L 314.078125 328.433594 L 269.449219 488.839844 L 99.648438 441.597656 Z M 144.277344 281.1875 " clip-rule="nonzero"/></clipPath><clipPath id="c7bee0cd64"><path d="M 144.277344 281.1875 L 314.078125 328.433594 L 269.449219 488.839844 L 99.648438 441.597656 Z M 144.277344 281.1875 " clip-rule="nonzero"/></clipPath></defs><g transform="matrix(1, 0, 0, 1, 175, 311)"><g clip-path="url(#dcf8760545)"><g fill="#ffffff" fill-opacity="1"><g transform="translate(0.713872, 190.706668)"><g><path d="M 64.328125 -118.90625 C 81.359375 -118.90625 95.875 -112.898438 107.875 -100.890625 C 119.882812 -88.890625 125.890625 -74.375 125.890625 -57.34375 C 125.890625 -40.3125 119.882812 -25.789062 107.875 -13.78125 C 95.875 -1.769531 81.359375 4.234375 64.328125 4.234375 C 47.296875 4.234375 32.773438 -1.769531 20.765625 -13.78125 C 8.753906 -25.789062 2.75 -40.3125 2.75 -57.34375 C 2.75 -74.375 8.753906 -88.890625 20.765625 -100.890625 C 32.773438 -112.898438 47.296875 -118.90625 64.328125 -118.90625 Z M 89.6875 -31.984375 C 96.664062 -38.960938 100.15625 -47.414062 100.15625 -57.34375 C 100.15625 -67.257812 96.664062 -75.710938 89.6875 -82.703125 C 82.695312 -89.679688 74.242188 -93.171875 64.328125 -93.171875 C 54.398438 -93.171875 45.945312 -89.679688 38.96875 -82.703125 C 31.976562 -75.710938 28.484375 -67.257812 28.484375 -57.34375 C 28.484375 -47.414062 31.976562 -38.960938 38.96875 -31.984375 C 46.195312 -24.992188 54.648438 -21.5 64.328125 -21.5 C 74.003906 -21.5 82.457031 -24.992188 89.6875 -31.984375 Z M 89.6875 -31.984375 "/></g></g></g><g fill="#ffffff" fill-opacity="1"><g transform="translate(129.359414, 190.706668)"><g><path d="M 52.5625 -94.28125 C 66.039062 -95.382812 77.191406 -91.890625 86.015625 -83.796875 C 95.441406 -75.097656 100.15625 -62.910156 100.15625 -47.234375 L 100.15625 0 L 76.265625 0 L 76.265625 -46.6875 L 76.078125 -46.6875 L 76.078125 -47.046875 C 76.078125 -53.535156 73.8125 -59.050781 69.28125 -63.59375 C 64.75 -68.125 59.238281 -70.390625 52.75 -70.390625 C 46.132812 -70.140625 40.617188 -67.8125 36.203125 -63.40625 C 31.546875 -58.75 29.34375 -53.234375 29.59375 -46.859375 L 29.59375 -46.6875 L 29.40625 -46.6875 L 29.40625 0 L 3.671875 0 L 3.671875 -95.015625 L 29.40625 -95.015625 L 29.40625 -82.703125 C 35.164062 -89.566406 42.882812 -93.425781 52.5625 -94.28125 Z M 52.5625 -94.28125 "/></g></g></g><g fill="#ffffff" fill-opacity="1"><g transform="translate(225.659596, 190.706668)"><g><path d="M 73.703125 -94.640625 L 73.703125 -68.921875 L 52.5625 -68.921875 L 52.5625 0 L 26.828125 0 L 26.828125 -68.921875 L 5.515625 -68.921875 L 5.515625 -94.640625 L 26.828125 -94.640625 L 26.828125 -127.734375 L 52.5625 -127.734375 L 52.5625 -94.640625 Z M 73.703125 -94.640625 "/></g></g></g><g fill="#ffffff" fill-opacity="1"><g transform="translate(299.538731, 190.706668)"><g><path d="M 73.515625 -95.015625 L 99.234375 -95.015625 L 99.234375 0 L 73.515625 0 L 73.515625 -10.65625 C 68.242188 -3.800781 60.28125 -0.375 49.625 -0.375 C 36.632812 -0.25 25.484375 -4.78125 16.171875 -13.96875 C 6.859375 -23.15625 2.140625 -34.304688 2.015625 -47.421875 C 1.898438 -60.398438 6.4375 -71.546875 15.625 -80.859375 C 24.8125 -90.171875 35.957031 -94.890625 49.0625 -95.015625 C 59.851562 -95.015625 68.003906 -91.523438 73.515625 -84.546875 Z M 65.796875 -31.25 C 70.328125 -35.78125 72.59375 -41.289062 72.59375 -47.78125 C 72.59375 -54.394531 70.265625 -59.910156 65.609375 -64.328125 C 60.953125 -68.984375 55.5 -71.1875 49.25 -70.9375 C 42.757812 -70.9375 37.25 -68.671875 32.71875 -64.140625 C 28.175781 -59.609375 25.90625 -54.09375 25.90625 -47.59375 C 25.90625 -41.226562 28.234375 -35.71875 32.890625 -31.0625 C 37.429688 -26.53125 42.945312 -24.265625 49.4375 -24.265625 C 56.050781 -24.503906 61.503906 -26.832031 65.796875 -31.25 Z M 65.796875 -31.25 "/></g></g></g><g fill="#ffffff" fill-opacity="1"><g transform="translate(404.292976, 190.706668)"><g><path d="M 31.25 -80.5 C 33.320312 -86.375 36.8125 -90.476562 41.71875 -92.8125 C 46.5 -95.132812 53.664062 -96.296875 63.21875 -96.296875 L 63.21875 -70.015625 C 53.90625 -70.015625 46.125 -66.832031 39.875 -60.46875 C 34.125 -54.832031 31.25 -48.644531 31.25 -41.90625 L 31.25 0 L 5.515625 0 L 5.515625 -94.640625 L 31.25 -94.640625 Z M 31.25 -80.5 "/></g></g></g><g fill="#ffffff" fill-opacity="1"><g transform="translate(470.269768, 190.706668)"><g><path d="M 31.0625 -128.09375 L 31.0625 -106.40625 L 5.515625 -106.40625 L 5.515625 -128.09375 Z M 31.25 -94.46875 L 31.25 0 L 5.515625 0 L 5.515625 -94.46875 Z M 31.25 -94.46875 "/></g></g></g><g fill="#ffffff" fill-opacity="1"><g transform="translate(507.025612, 190.706668)"><g><path d="M 49.0625 -94.640625 C 62.175781 -94.765625 73.328125 -90.234375 82.515625 -81.046875 C 91.828125 -71.734375 96.484375 -60.582031 96.484375 -47.59375 C 96.609375 -34.488281 92.078125 -23.34375 82.890625 -14.15625 C 73.703125 -4.84375 62.613281 -0.125 49.625 0 C 36.507812 0.125 25.296875 -4.40625 15.984375 -13.59375 C 6.671875 -22.789062 2.015625 -33.941406 2.015625 -47.046875 C 1.898438 -60.160156 6.4375 -71.3125 15.625 -80.5 C 24.8125 -89.8125 35.957031 -94.523438 49.0625 -94.640625 Z M 65.796875 -30.875 C 70.328125 -35.40625 72.59375 -40.921875 72.59375 -47.421875 C 72.59375 -53.785156 70.265625 -59.296875 65.609375 -63.953125 C 60.953125 -68.367188 55.4375 -70.578125 49.0625 -70.578125 C 42.695312 -70.578125 37.25 -68.304688 32.71875 -63.765625 C 28.175781 -58.992188 25.90625 -53.484375 25.90625 -47.234375 C 25.90625 -40.859375 28.234375 -35.34375 32.890625 -30.6875 C 37.429688 -26.15625 42.945312 -23.890625 49.4375 -23.890625 C 56.050781 -24.140625 61.503906 -26.46875 65.796875 -30.875 Z M 65.796875 -30.875 "/></g></g></g><g fill="#ffffff" fill-opacity="1"><g transform="translate(605.531399, 190.706668)"><g/></g></g><g fill="#ffffff" fill-opacity="1"><g transform="translate(653.313995, 190.706668)"><g><path d="M 96.296875 -90.78125 L 65.25 -90.78125 L 65.25 0 L 36.578125 0 L 36.578125 -90.78125 L 5.515625 -90.78125 L 5.515625 -119.453125 L 96.296875 -119.453125 Z M 96.296875 -90.78125 "/></g></g></g><g fill="#ffffff" fill-opacity="1"><g transform="translate(738.403424, 190.706668)"><g><path d="M 96.671875 -43.1875 C 96.796875 -40.613281 96.796875 -39.082031 96.671875 -38.59375 L 27.5625 -38.78125 C 28.539062 -35.957031 30.316406 -33.257812 32.890625 -30.6875 C 37.671875 -26.15625 43.1875 -23.890625 49.4375 -23.890625 C 56.050781 -24.140625 61.566406 -26.46875 65.984375 -30.875 L 66.71875 -31.609375 L 90.609375 -24.078125 C 85.335938 -15.867188 79.820312 -9.988281 74.0625 -6.4375 C 67.570312 -2.269531 59.425781 -0.125 49.625 0 C 36.632812 0.125 25.484375 -4.40625 16.171875 -13.59375 C 6.859375 -22.789062 2.140625 -33.941406 2.015625 -47.046875 C 1.898438 -60.035156 6.4375 -71.1875 15.625 -80.5 C 24.8125 -89.8125 35.957031 -94.523438 49.0625 -94.640625 C 62.050781 -94.765625 73.203125 -90.234375 82.515625 -81.046875 C 91.828125 -71.859375 96.546875 -60.707031 96.671875 -47.59375 Z M 49.25 -70.578125 C 42.757812 -70.578125 37.25 -68.304688 32.71875 -63.765625 C 30.382812 -61.191406 28.726562 -58.617188 27.75 -56.046875 L 70.9375 -56.046875 C 69.957031 -58.617188 68.242188 -61.253906 65.796875 -63.953125 C 61.140625 -68.367188 55.625 -70.578125 49.25 -70.578125 Z M 49.25 -70.578125 "/></g></g></g><g fill="#ffffff" fill-opacity="1"><g transform="translate(837.092936, 190.706668)"><g><path d="M 43.734375 0 C 37.367188 0 31.796875 -0.976562 27.015625 -2.9375 C 23.210938 -4.289062 19.289062 -6.800781 15.25 -10.46875 C 8.269531 -16.96875 5.085938 -25.179688 5.703125 -35.109375 L 5.703125 -37.125 L 26.28125 -36.75 L 27.9375 -36.75 L 27.9375 -35.28125 C 28.0625 -32.21875 28.734375 -29.707031 29.953125 -27.75 C 32.035156 -24.195312 36.628906 -22.421875 43.734375 -22.421875 C 49.617188 -22.421875 53.847656 -23.09375 56.421875 -24.4375 C 57.765625 -25.050781 58.679688 -25.847656 59.171875 -26.828125 C 59.421875 -27.203125 59.546875 -27.570312 59.546875 -27.9375 L 59.734375 -28.859375 C 59.734375 -31.429688 57.710938 -33.515625 53.671875 -35.109375 C 52.078125 -35.710938 50.238281 -36.203125 48.15625 -36.578125 C 46.5625 -36.941406 44.785156 -37.242188 42.828125 -37.484375 C 35.472656 -38.222656 29.34375 -39.695312 24.4375 -41.90625 C 19.539062 -43.863281 15.5 -46.554688 12.3125 -49.984375 C 7.90625 -55.015625 5.703125 -60.773438 5.703125 -67.265625 C 5.703125 -71.304688 6.4375 -75.039062 7.90625 -78.46875 C 9.007812 -81.164062 10.476562 -83.554688 12.3125 -85.640625 C 18.925781 -93.234375 29.523438 -97.03125 44.109375 -97.03125 C 52.804688 -97.03125 60.15625 -95.316406 66.15625 -91.890625 C 70.8125 -89.316406 74.550781 -85.828125 77.375 -81.421875 C 79.582031 -78.109375 81.113281 -74.25 81.96875 -69.84375 C 82.207031 -68.363281 82.390625 -66.953125 82.515625 -65.609375 L 82.515625 -61.75 L 60.28125 -61.75 L 60.28125 -64.5 C 60.15625 -65 60.09375 -65.492188 60.09375 -65.984375 C 59.726562 -67.328125 59.238281 -68.425781 58.625 -69.28125 C 55.925781 -72.957031 51.085938 -74.796875 44.109375 -74.796875 C 33.816406 -74.796875 28.671875 -72.648438 28.671875 -68.359375 C 28.671875 -66.160156 29.894531 -64.382812 32.34375 -63.03125 C 34.914062 -61.4375 39.265625 -60.273438 45.390625 -59.546875 C 59.484375 -58.078125 69.710938 -53.601562 76.078125 -46.125 C 80.367188 -41.101562 82.515625 -35.347656 82.515625 -28.859375 L 82.515625 -27.5625 L 82.328125 -25.90625 C 82.328125 -24.320312 82.144531 -22.851562 81.78125 -21.5 C 80.800781 -17.582031 78.960938 -14.09375 76.265625 -11.03125 C 73.203125 -7.351562 68.914062 -4.59375 63.40625 -2.75 C 57.894531 -0.914062 51.335938 0 43.734375 0 Z M 43.734375 0 "/></g></g></g><g fill="#ffffff" fill-opacity="1"><g transform="translate(921.998915, 190.706668)"><g><path d="M 73.703125 -94.640625 L 73.703125 -68.921875 L 52.5625 -68.921875 L 52.5625 0 L 26.828125 0 L 26.828125 -68.921875 L 5.515625 -68.921875 L 5.515625 -94.640625 L 26.828125 -94.640625 L 26.828125 -127.734375 L 52.5625 -127.734375 L 52.5625 -94.640625 Z M 73.703125 -94.640625 "/></g></g></g><g fill="#ffffff" fill-opacity="1"><g transform="translate(1001.207794, 190.706668)"><g><path d="M 43.734375 0 C 37.367188 0 31.796875 -0.976562 27.015625 -2.9375 C 23.210938 -4.289062 19.289062 -6.800781 15.25 -10.46875 C 8.269531 -16.96875 5.085938 -25.179688 5.703125 -35.109375 L 5.703125 -37.125 L 26.28125 -36.75 L 27.9375 -36.75 L 27.9375 -35.28125 C 28.0625 -32.21875 28.734375 -29.707031 29.953125 -27.75 C 32.035156 -24.195312 36.628906 -22.421875 43.734375 -22.421875 C 49.617188 -22.421875 53.847656 -23.09375 56.421875 -24.4375 C 57.765625 -25.050781 58.679688 -25.847656 59.171875 -26.828125 C 59.421875 -27.203125 59.546875 -27.570312 59.546875 -27.9375 L 59.734375 -28.859375 C 59.734375 -31.429688 57.710938 -33.515625 53.671875 -35.109375 C 52.078125 -35.710938 50.238281 -36.203125 48.15625 -36.578125 C 46.5625 -36.941406 44.785156 -37.242188 42.828125 -37.484375 C 35.472656 -38.222656 29.34375 -39.695312 24.4375 -41.90625 C 19.539062 -43.863281 15.5 -46.554688 12.3125 -49.984375 C 7.90625 -55.015625 5.703125 -60.773438 5.703125 -67.265625 C 5.703125 -71.304688 6.4375 -75.039062 7.90625 -78.46875 C 9.007812 -81.164062 10.476562 -83.554688 12.3125 -85.640625 C 18.925781 -93.234375 29.523438 -97.03125 44.109375 -97.03125 C 52.804688 -97.03125 60.15625 -95.316406 66.15625 -91.890625 C 70.8125 -89.316406 74.550781 -85.828125 77.375 -81.421875 C 79.582031 -78.109375 81.113281 -74.25 81.96875 -69.84375 C 82.207031 -68.363281 82.390625 -66.953125 82.515625 -65.609375 L 82.515625 -61.75 L 60.28125 -61.75 L 60.28125 -64.5 C 60.15625 -65 60.09375 -65.492188 60.09375 -65.984375 C 59.726562 -67.328125 59.238281 -68.425781 58.625 -69.28125 C 55.925781 -72.957031 51.085938 -74.796875 44.109375 -74.796875 C 33.816406 -74.796875 28.671875 -72.648438 28.671875 -68.359375 C 28.671875 -66.160156 29.894531 -64.382812 32.34375 -63.03125 C 34.914062 -61.4375 39.265625 -60.273438 45.390625 -59.546875 C 59.484375 -58.078125 69.710938 -53.601562 76.078125 -46.125 C 80.367188 -41.101562 82.515625 -35.347656 82.515625 -28.859375 L 82.515625 -27.5625 L 82.328125 -25.90625 C 82.328125 -24.320312 82.144531 -22.851562 81.78125 -21.5 C 80.800781 -17.582031 78.960938 -14.09375 76.265625 -11.03125 C 73.203125 -7.351562 68.914062 -4.59375 63.40625 -2.75 C 57.894531 -0.914062 51.335938 0 43.734375 0 Z M 43.734375 0 "/></g></g></g></g></g><g clip-path="url(#a7383e3ddf)"><g clip-path="url(#a0380b6fef)"><g clip-path="url(#1ae1997f0d)"><path fill="#ffffff" d="M 140.722656 453.011719 C 139.707031 452.730469 138.8125 452.25 138.089844 451.566406 C 136.8125 450.382812 136.007812 448.800781 135.371094 447.511719 C 135.269531 447.285156 135.148438 447.066406 135.050781 446.875 C 128.871094 435.058594 129.152344 420.347656 135.707031 409.121094 C 136.261719 405.214844 139.058594 402.144531 142.671875 401.128906 C 143.304688 397.605469 144.363281 393.804688 145.925781 389.382812 C 146.605469 387.46875 147.289062 385.667969 147.964844 383.949219 C 140.136719 382.949219 132.070312 381.914062 124.140625 381.746094 C 123.730469 381.734375 123.347656 381.675781 122.976562 381.574219 C 122.347656 381.398438 121.78125 381.109375 121.285156 380.6875 C 120.175781 379.847656 119.546875 378.53125 119.546875 377.105469 L 119.554688 376.773438 C 119.5625 374.304688 119.574219 371.757812 120.027344 369.179688 C 120.351562 367.363281 121.664062 365.972656 123.386719 365.570312 C 128.773438 363.421875 134.261719 361.21875 139.550781 359.074219 C 158.46875 351.441406 178.023438 343.550781 197.792969 336.980469 C 198.453125 335.074219 199.660156 333.488281 201.335938 332.28125 C 203.207031 330.925781 205.472656 330.527344 207.71875 331.152344 C 209.042969 331.523438 210.289062 332.234375 211.359375 333.210938 C 225.996094 329.9375 240.664062 329.425781 255.640625 329.167969 C 261.652344 329.066406 267.808594 328.523438 273.75 328.019531 C 275.703125 327.851562 277.671875 327.6875 279.621094 327.53125 C 288.304688 326.832031 296.164062 326.300781 303.625 325.886719 C 304.242188 325.8125 304.824219 325.855469 305.410156 326.019531 C 305.550781 326.058594 305.6875 326.097656 305.820312 326.152344 C 306.269531 326.324219 306.6875 326.558594 307.054688 326.84375 C 307.847656 327.394531 308.457031 328.175781 308.796875 329.101562 L 310.980469 335.015625 C 311.769531 337.125 310.960938 339.386719 309.03125 340.472656 C 308.683594 340.710938 308.289062 340.878906 307.890625 341.003906 C 296.078125 344.664062 285.253906 348.234375 274.785156 351.953125 C 272.996094 352.597656 271.117188 353.269531 269.15625 354 C 274.160156 359.804688 278.457031 366.171875 281.949219 372.980469 C 282.539062 374.136719 282.632812 375.40625 282.238281 376.589844 C 282.195312 376.746094 282.117188 376.972656 281.996094 377.21875 C 277.765625 386.589844 273.46875 393.632812 268.449219 399.398438 C 263.117188 405.507812 256.699219 409.988281 249.339844 412.71875 C 240.609375 415.976562 231.214844 417.027344 224.90625 417.527344 C 209.457031 418.699219 193.28125 417.015625 176.816406 412.433594 C 175.644531 412.109375 174.449219 411.761719 173.273438 411.398438 C 172.003906 411.015625 170.972656 410.128906 170.414062 408.980469 C 170.339844 408.828125 170.246094 408.632812 170.160156 408.410156 C 169.269531 405.941406 168.558594 403.375 168.027344 400.753906 C 167.972656 400.539062 167.929688 400.332031 167.894531 400.105469 C 167.507812 398.039062 167.226562 395.941406 167.082031 393.84375 C 167.03125 393.496094 166.992188 393.15625 167.007812 392.796875 C 166.886719 390.554688 166.914062 388.308594 167.0625 386.046875 C 165.808594 385.960938 164.484375 385.84375 163.078125 385.714844 C 161.53125 388.769531 160.128906 392.023438 158.878906 395.441406 C 157.777344 398.449219 156.472656 402.300781 155.722656 406.300781 C 157.117188 407.667969 158.078125 409.394531 158.476562 411.246094 C 158.863281 413.128906 158.667969 415.03125 157.921875 416.761719 C 158.882812 420.394531 160.683594 423.996094 162.441406 427.503906 L 162.464844 427.542969 C 162.890625 428.390625 163.410156 429.265625 163.949219 430.195312 C 164.984375 431.957031 166.035156 433.777344 166.75 435.796875 C 167.210938 437.121094 167.039062 438.515625 166.339844 439.664062 C 163.636719 445.558594 159.007812 449.976562 153.285156 452.078125 C 150.160156 453.234375 146.671875 453.671875 143.230469 453.34375 L 142.921875 453.324219 C 142.285156 453.296875 141.539062 453.238281 140.722656 453.011719 Z M 140.722656 453.011719 " fill-opacity="1" fill-rule="nonzero"/></g></g></g><g clip-path="url(#783acd9d5b)"><g clip-path="url(#a59a098cf5)"><g clip-path="url(#2d9ffe1601)"><path fill="#ffffff" d="M 307.214844 337.464844 C 307.113281 337.535156 306.996094 337.601562 306.867188 337.648438 C 295.710938 341.09375 284.617188 344.738281 273.632812 348.648438 C 270.117188 349.890625 266.625 351.191406 263.144531 352.492188 C 269.425781 359.050781 274.714844 366.441406 278.867188 374.527344 C 279.050781 374.875 279.042969 375.203125 278.925781 375.503906 C 278.90625 375.582031 278.882812 375.65625 278.84375 375.746094 C 275.414062 383.363281 271.332031 390.765625 265.828125 397.078125 C 260.980469 402.644531 255.050781 406.847656 248.117188 409.425781 C 240.660156 412.210938 232.539062 413.398438 224.621094 414.015625 C 207.632812 415.371094 190.550781 413.007812 174.277344 408.082031 C 173.898438 407.960938 173.648438 407.726562 173.53125 407.425781 C 173.5 407.367188 173.46875 407.292969 173.441406 407.21875 C 172.582031 404.824219 171.917969 402.386719 171.429688 399.910156 C 171.394531 399.800781 171.371094 399.695312 171.355469 399.578125 C 170.96875 397.511719 170.703125 395.429688 170.550781 393.351562 C 170.5 393.1875 170.5 393.003906 170.511719 392.839844 C 170.3125 389.503906 170.453125 386.144531 170.90625 382.789062 C 167.628906 382.640625 164.355469 382.375 161.097656 382.046875 C 158.972656 385.984375 157.152344 390.085938 155.628906 394.253906 C 154.035156 398.605469 152.601562 403.160156 151.980469 407.78125 C 152.054688 407.816406 152.125 407.855469 152.199219 407.890625 C 155.097656 409.742188 156.167969 413.40625 154.253906 416.289062 C 155.195312 420.777344 157.335938 425.054688 159.375 429.121094 C 160.664062 431.683594 162.535156 434.261719 163.488281 436.980469 C 163.613281 437.363281 163.53125 437.71875 163.304688 437.988281 C 161.113281 442.949219 157.207031 446.972656 152.074219 448.859375 C 149.375 449.863281 146.410156 450.203125 143.550781 449.9375 C 142.402344 449.832031 141.269531 449.796875 140.421875 449.03125 C 139.433594 448.109375 138.714844 446.46875 138.097656 445.285156 C 132.460938 434.5 132.648438 420.65625 139.070312 410.257812 C 139.066406 410.15625 139.078125 410.058594 139.089844 409.949219 C 139.414062 406.589844 142.335938 404.070312 145.695312 404.273438 C 146.265625 399.59375 147.617188 394.976562 149.175781 390.570312 C 150.265625 387.492188 151.503906 384.285156 152.945312 381.125 C 143.398438 379.925781 133.855469 378.53125 124.199219 378.316406 C 123.886719 378.3125 123.636719 378.191406 123.453125 378.023438 C 123.1875 377.835938 123.011719 377.519531 122.996094 377.101562 C 123.007812 374.667969 123.003906 372.179688 123.421875 369.792969 C 123.523438 369.242188 123.894531 368.980469 124.308594 368.929688 C 124.308594 368.929688 124.324219 368.933594 124.328125 368.917969 C 149.660156 358.855469 174.777344 348.1875 200.6875 339.675781 C 200.898438 337.910156 201.699219 336.277344 203.335938 335.109375 C 205.617188 333.46875 208.347656 334.679688 209.878906 336.746094 C 209.964844 336.851562 210.046875 336.972656 210.113281 337.09375 C 210.210938 337.035156 210.304688 336.996094 210.429688 336.964844 C 225.277344 333.417969 240.5 332.878906 255.679688 332.609375 C 263.773438 332.472656 271.824219 331.597656 279.878906 330.953125 C 287.898438 330.316406 295.917969 329.746094 303.949219 329.308594 C 304.171875 329.273438 304.386719 329.285156 304.5625 329.367188 C 304.710938 329.421875 304.851562 329.511719 304.945312 329.605469 C 305.1875 329.738281 305.394531 329.945312 305.507812 330.257812 C 306.234375 332.234375 306.964844 334.195312 307.691406 336.171875 C 307.953125 336.789062 307.660156 337.242188 307.214844 337.464844 Z M 307.214844 337.464844 " fill-opacity="1" fill-rule="nonzero"/></g></g></g><g clip-path="url(#5051696598)"><g clip-path="url(#cab0afb9fb)"><g clip-path="url(#c7bee0cd64)"><path fill="#ffffff" d="M 307.710938 336.160156 C 306.984375 334.183594 306.253906 332.222656 305.527344 330.246094 C 305.414062 329.933594 305.210938 329.710938 304.964844 329.59375 C 304.863281 329.480469 304.734375 329.398438 304.582031 329.355469 C 304.40625 329.273438 304.191406 329.261719 303.96875 329.300781 C 295.9375 329.734375 287.921875 330.304688 279.902344 330.941406 C 271.847656 331.585938 263.777344 332.460938 255.699219 332.597656 C 240.519531 332.867188 225.292969 333.425781 210.449219 336.953125 C 210.324219 336.984375 210.230469 337.027344 210.132812 337.082031 C 210.050781 336.960938 209.984375 336.839844 209.898438 336.734375 C 208.367188 334.667969 205.65625 333.449219 203.355469 335.097656 C 201.722656 336.265625 200.917969 337.898438 200.707031 339.664062 C 174.796875 348.175781 149.679688 358.84375 124.347656 368.90625 C 124.347656 368.90625 124.332031 368.902344 124.328125 368.917969 C 123.917969 368.953125 123.535156 369.210938 123.441406 369.78125 C 123.019531 372.183594 123.023438 374.671875 123.015625 377.089844 C 123.011719 377.519531 123.195312 377.820312 123.472656 378.011719 C 123.65625 378.179688 123.910156 378.285156 124.21875 378.304688 C 133.859375 378.515625 143.402344 379.910156 152.964844 381.113281 C 151.539062 384.28125 150.300781 387.484375 149.195312 390.558594 C 147.636719 394.964844 146.285156 399.582031 145.714844 404.261719 C 142.371094 404.0625 139.433594 406.578125 139.109375 409.9375 C 139.101562 410.035156 139.101562 410.148438 139.089844 410.246094 C 132.667969 420.644531 132.480469 434.488281 138.117188 445.273438 C 138.734375 446.457031 139.4375 448.09375 140.441406 449.019531 C 141.285156 449.800781 142.421875 449.820312 143.570312 449.925781 C 146.429688 450.191406 149.394531 449.855469 152.09375 448.847656 C 157.226562 446.960938 161.117188 442.933594 163.324219 437.980469 C 163.550781 437.710938 163.632812 437.351562 163.507812 436.96875 C 162.554688 434.25 160.671875 431.667969 159.394531 429.109375 C 157.355469 425.042969 155.214844 420.765625 154.273438 416.277344 C 156.1875 413.394531 155.117188 409.730469 152.21875 407.878906 C 152.148438 407.828125 152.074219 407.804688 152 407.769531 C 152.625 403.136719 154.058594 398.578125 155.648438 394.242188 C 157.175781 390.058594 158.980469 385.953125 161.117188 382.035156 C 164.375 382.363281 167.644531 382.644531 170.925781 382.777344 C 170.472656 386.132812 170.332031 389.492188 170.53125 392.832031 C 170.515625 393.007812 170.519531 393.175781 170.570312 393.339844 C 170.703125 395.429688 170.96875 397.511719 171.375 399.566406 C 171.378906 399.679688 171.414062 399.789062 171.449219 399.898438 C 171.9375 402.375 172.601562 404.8125 173.460938 407.207031 C 173.488281 407.28125 173.519531 407.355469 173.550781 407.414062 C 173.671875 407.699219 173.902344 407.945312 174.296875 408.070312 C 190.570312 412.996094 207.667969 415.367188 224.65625 414.007812 C 232.578125 413.375 240.679688 412.199219 248.152344 409.417969 C 255.085938 406.839844 261 402.632812 265.863281 397.070312 C 271.371094 390.742188 275.4375 383.335938 278.878906 375.738281 C 278.914062 375.667969 278.941406 375.574219 278.960938 375.496094 C 279.074219 375.214844 279.070312 374.863281 278.902344 374.519531 C 274.746094 366.449219 269.460938 359.042969 263.179688 352.488281 C 266.664062 351.167969 270.152344 349.882812 273.667969 348.640625 C 284.667969 344.738281 295.761719 341.09375 306.902344 337.644531 C 307.046875 337.601562 307.164062 337.535156 307.25 337.457031 C 307.660156 337.242188 307.953125 336.789062 307.710938 336.160156 Z M 154.027344 378.855469 C 153.949219 378.832031 153.886719 378.816406 153.804688 378.808594 C 144.367188 377.640625 134.941406 376.230469 125.429688 375.921875 C 125.421875 374.394531 125.441406 372.839844 125.628906 371.335938 C 135.882812 371.667969 145.988281 373.484375 156.152344 374.785156 C 155.402344 376.121094 154.691406 377.480469 154.027344 378.855469 Z M 203.996094 337.859375 C 206.066406 335.421875 208.347656 338.191406 208.96875 340.371094 C 209.484375 342.15625 209.382812 344.070312 209.300781 345.902344 C 208.671875 346.972656 207.40625 347.480469 206.214844 347.050781 C 206.140625 347.011719 206.074219 347.011719 206.015625 346.996094 C 203.652344 344.996094 201.722656 340.546875 203.996094 337.859375 Z M 273.277344 369.523438 C 274.40625 371.363281 275.464844 373.230469 276.46875 375.152344 C 270.695312 387.804688 262.777344 400.539062 249.523438 406.269531 C 242.15625 409.457031 233.902344 410.761719 225.941406 411.480469 C 217.980469 412.199219 209.945312 412.121094 202 411.300781 C 193.019531 410.394531 184.175781 408.5 175.527344 405.925781 C 174.984375 404.347656 174.53125 402.765625 174.136719 401.144531 C 189.46875 405.277344 205.4375 407.117188 221.289062 405.675781 C 229.183594 404.953125 237.242188 403.699219 244.628906 400.746094 C 251.199219 398.113281 256.804688 393.9375 261.410156 388.585938 C 266.324219 382.890625 270.089844 376.328125 273.277344 369.523438 Z M 267.082031 360.6875 C 261.535156 372.523438 254.019531 384.390625 241.800781 390.109375 C 235.058594 393.257812 227.503906 394.65625 220.15625 395.511719 C 212.785156 396.378906 205.34375 396.546875 197.933594 396.0625 C 189.464844 395.511719 181.09375 394.078125 172.867188 392.003906 C 172.734375 388.964844 172.867188 385.921875 173.316406 382.878906 C 178.617188 383.011719 183.910156 382.757812 189.148438 381.8125 C 198.5 380.136719 207.242188 376.25 215.828125 372.324219 C 230.589844 365.570312 245.527344 359.199219 260.683594 353.417969 C 262.953125 355.738281 265.082031 358.15625 267.082031 360.6875 Z M 248.785156 355.480469 C 239.390625 359.265625 230.078125 363.238281 220.847656 367.402344 C 211.933594 371.421875 203.109375 375.847656 193.613281 378.34375 C 183.375 381.050781 172.835938 380.738281 162.382812 379.753906 C 163.179688 378.367188 164.019531 377.023438 164.914062 375.714844 L 164.917969 375.699219 C 173.617188 376.3125 182.449219 375.917969 190.921875 373.652344 C 199.988281 371.214844 208.476562 367.046875 216.964844 363.121094 C 234.753906 354.890625 253.164062 348.140625 271.769531 341.996094 C 282.339844 338.503906 292.957031 335.207031 303.585938 331.929688 C 304.046875 333.183594 304.523438 334.445312 304.984375 335.714844 C 286.007812 341.59375 267.210938 348.070312 248.785156 355.480469 Z M 248.785156 355.480469 " fill-opacity="1" fill-rule="nonzero"/><path fill="#ffffff" d="M 307.710938 336.160156 C 306.984375 334.183594 306.253906 332.222656 305.527344 330.246094 C 305.414062 329.933594 305.210938 329.710938 304.964844 329.59375 C 304.863281 329.480469 304.734375 329.398438 304.582031 329.355469 C 304.40625 329.273438 304.191406 329.261719 303.96875 329.300781 C 295.9375 329.734375 287.921875 330.304688 279.902344 330.941406 C 271.847656 331.585938 263.777344 332.460938 255.699219 332.597656 C 240.519531 332.867188 225.292969 333.425781 210.449219 336.953125 C 210.324219 336.984375 210.230469 337.027344 210.132812 337.082031 C 210.050781 336.960938 209.984375 336.839844 209.898438 336.734375 C 208.367188 334.667969 205.65625 333.449219 203.355469 335.097656 C 201.722656 336.265625 200.917969 337.898438 200.707031 339.664062 C 174.796875 348.175781 149.679688 358.84375 124.347656 368.90625 C 124.347656 368.90625 124.332031 368.902344 124.328125 368.917969 C 123.917969 368.953125 123.535156 369.210938 123.441406 369.78125 C 123.019531 372.183594 123.023438 374.671875 123.015625 377.089844 C 123.011719 377.519531 123.195312 377.820312 123.472656 378.011719 C 123.65625 378.179688 123.910156 378.285156 124.21875 378.304688 C 133.859375 378.515625 143.402344 379.910156 152.964844 381.113281 C 151.539062 384.28125 150.300781 387.484375 149.195312 390.558594 C 147.636719 394.964844 146.285156 399.582031 145.714844 404.261719 C 142.371094 404.0625 139.433594 406.578125 139.109375 409.9375 C 139.101562 410.035156 139.101562 410.148438 139.089844 410.246094 C 132.667969 420.644531 132.480469 434.488281 138.117188 445.273438 C 138.734375 446.457031 139.4375 448.09375 140.441406 449.019531 C 141.285156 449.800781 142.421875 449.820312 143.570312 449.925781 C 146.429688 450.191406 149.394531 449.855469 152.09375 448.847656 C 157.226562 446.960938 161.117188 442.933594 163.324219 437.980469 C 163.550781 437.710938 163.632812 437.351562 163.507812 436.96875 C 162.554688 434.25 160.671875 431.667969 159.394531 429.109375 C 157.355469 425.042969 155.214844 420.765625 154.273438 416.277344 C 156.1875 413.394531 155.117188 409.730469 152.21875 407.878906 C 152.148438 407.828125 152.074219 407.804688 152 407.769531 C 152.625 403.136719 154.058594 398.578125 155.648438 394.242188 C 157.175781 390.058594 158.980469 385.953125 161.117188 382.035156 C 164.375 382.363281 167.644531 382.644531 170.925781 382.777344 C 170.472656 386.132812 170.332031 389.492188 170.53125 392.832031 C 170.515625 393.007812 170.519531 393.175781 170.570312 393.339844 C 170.703125 395.429688 170.96875 397.511719 171.375 399.566406 C 171.378906 399.679688 171.414062 399.789062 171.449219 399.898438 C 171.9375 402.375 172.601562 404.8125 173.460938 407.207031 C 173.488281 407.28125 173.519531 407.355469 173.550781 407.414062 C 173.671875 407.699219 173.902344 407.945312 174.296875 408.070312 C 190.570312 412.996094 207.667969 415.367188 224.65625 414.007812 C 232.578125 413.375 240.679688 412.199219 248.152344 409.417969 C 255.085938 406.839844 261 402.632812 265.863281 397.070312 C 271.371094 390.742188 275.4375 383.335938 278.878906 375.738281 C 278.914062 375.667969 278.941406 375.574219 278.960938 375.496094 C 279.074219 375.214844 279.070312 374.863281 278.902344 374.519531 C 274.746094 366.449219 269.460938 359.042969 263.179688 352.488281 C 266.664062 351.167969 270.152344 349.882812 273.667969 348.640625 C 284.667969 344.738281 295.761719 341.09375 306.902344 337.644531 C 307.046875 337.601562 307.164062 337.535156 307.25 337.457031 C 307.660156 337.242188 307.953125 336.789062 307.710938 336.160156 Z M 203.996094 337.859375 C 206.066406 335.421875 208.347656 338.191406 208.96875 340.371094 C 209.484375 342.15625 209.382812 344.070312 209.300781 345.902344 C 208.671875 346.972656 207.40625 347.480469 206.214844 347.050781 C 206.140625 347.011719 206.074219 347.011719 206.015625 346.996094 C 203.652344 344.996094 201.722656 340.546875 203.996094 337.859375 Z M 125.429688 375.921875 C 125.421875 374.394531 125.441406 372.839844 125.628906 371.335938 C 135.882812 371.667969 145.988281 373.484375 156.152344 374.785156 C 155.402344 376.121094 154.691406 377.480469 154.011719 378.851562 C 153.933594 378.828125 153.871094 378.8125 153.792969 378.804688 C 144.371094 377.625 134.949219 376.214844 125.429688 375.921875 Z M 152.222656 418.175781 C 153.21875 422.035156 155.039062 425.742188 156.777344 429.277344 C 157.734375 431.25 158.753906 433.191406 159.792969 435.121094 C 160.109375 435.707031 160.441406 436.296875 160.761719 436.882812 C 160.792969 436.941406 160.890625 437.136719 160.984375 437.328125 C 159.792969 439.832031 158.160156 442.0625 156.078125 443.820312 C 156.054688 443.730469 156.019531 443.621094 155.960938 443.523438 C 152.613281 437.453125 150.996094 430.75 151.179688 423.824219 C 151.214844 422.273438 148.8125 422.269531 148.777344 423.816406 C 148.582031 431.140625 150.335938 438.296875 153.875 444.714844 C 153.984375 444.914062 154.113281 445.046875 154.269531 445.140625 C 153.40625 445.679688 152.480469 446.152344 151.496094 446.527344 C 150.308594 446.976562 149.066406 447.277344 147.824219 447.445312 C 146.039062 444.277344 144.765625 440.921875 143.960938 437.382812 C 143.617188 435.878906 141.289062 436.492188 141.632812 437.996094 C 142.390625 441.355469 143.585938 444.574219 145.179688 447.601562 C 144.878906 447.601562 144.585938 447.585938 144.277344 447.566406 C 142.304688 447.449219 142.03125 447.175781 141.070312 445.566406 C 140.425781 444.488281 139.851562 443.386719 139.359375 442.238281 C 135.421875 433.332031 135.523438 422.601562 139.855469 413.875 C 140.5625 415.332031 141.695312 416.558594 143.09375 417.429688 C 142.308594 419.363281 141.722656 421.339844 141.351562 423.394531 C 141.078125 424.910156 143.398438 425.570312 143.675781 424.039062 C 144.03125 422.117188 144.5625 420.257812 145.28125 418.449219 C 147.492188 419.199219 150.164062 419.3125 152.222656 418.175781 Z M 151.40625 412.410156 C 151.558594 412.222656 151.65625 411.984375 151.65625 411.6875 C 151.675781 411.3125 151.683594 410.929688 151.707031 410.554688 C 152.945312 411.8125 153.148438 413.660156 152.191406 415.003906 C 152.082031 415.105469 151.984375 415.210938 151.917969 415.339844 C 151.605469 415.683594 151.195312 415.96875 150.714844 416.199219 C 148.925781 417.027344 146.453125 416.554688 144.757812 415.621094 C 142.976562 414.644531 141.566406 412.910156 141.492188 410.796875 C 141.394531 408.402344 143.1875 406.609375 145.503906 406.625 C 145.488281 406.984375 145.472656 407.328125 145.457031 407.691406 C 145.433594 410.453125 147.886719 411.882812 150.132812 412.804688 C 150.714844 413.097656 151.171875 412.828125 151.40625 412.410156 Z M 161.851562 375.992188 C 158.417969 381.417969 155.640625 387.296875 153.421875 393.308594 C 151.472656 398.585938 149.78125 404.183594 149.332031 409.847656 C 148.523438 409.355469 147.828125 408.699219 147.832031 407.738281 C 148.152344 397.347656 152.636719 386.589844 157.558594 377.597656 C 160.03125 373.0625 162.90625 368.574219 166.644531 364.972656 C 171.148438 360.636719 177.472656 358.054688 183.292969 356.023438 C 190.691406 353.441406 198.386719 351.769531 205.9375 349.660156 C 206.066406 349.664062 206.191406 349.628906 206.3125 349.5625 C 208.355469 349.902344 210.671875 348.789062 211.503906 346.863281 C 211.515625 346.832031 211.523438 346.804688 211.546875 346.777344 C 211.625 346.617188 211.671875 346.445312 211.675781 346.25 C 211.683594 346.21875 211.679688 346.183594 211.683594 346.167969 C 212.273438 346.613281 212.792969 347.1875 213.117188 347.859375 C 213.796875 349.242188 212.785156 350.136719 211.585938 350.800781 C 209.824219 351.769531 207.800781 352.199219 205.886719 352.695312 C 201.882812 353.738281 197.863281 354.65625 193.875 355.703125 C 186.3125 357.679688 178.621094 360.113281 172.085938 364.53125 C 167.816406 367.421875 164.59375 371.679688 161.851562 375.992188 Z M 276.46875 375.152344 C 270.695312 387.804688 262.777344 400.539062 249.523438 406.269531 C 242.15625 409.457031 233.902344 410.761719 225.941406 411.480469 C 217.980469 412.199219 209.945312 412.121094 202 411.300781 C 193.019531 410.394531 184.175781 408.5 175.527344 405.925781 C 174.984375 404.347656 174.53125 402.765625 174.136719 401.144531 C 189.46875 405.277344 205.4375 407.117188 221.289062 405.675781 C 229.183594 404.953125 237.242188 403.699219 244.628906 400.746094 C 251.199219 398.113281 256.804688 393.9375 261.410156 388.585938 C 266.316406 382.871094 270.082031 376.308594 273.261719 369.519531 C 274.40625 371.363281 275.464844 373.230469 276.46875 375.152344 Z M 271.742188 367.121094 C 266.09375 379.429688 258.394531 391.910156 245.621094 397.722656 C 238.578125 400.917969 230.671875 402.285156 223.035156 403.09375 C 215.226562 403.921875 207.355469 403.972656 199.535156 403.304688 C 190.742188 402.546875 182.074219 400.867188 173.59375 398.507812 C 173.351562 397.179688 173.167969 395.867188 173.042969 394.523438 C 188 398.222656 203.503906 399.699219 218.84375 398.082031 C 226.292969 397.285156 233.84375 396.003906 240.816406 393.171875 C 247.175781 390.578125 252.59375 386.480469 257.082031 381.3125 C 261.871094 375.78125 265.578125 369.433594 268.722656 362.832031 C 269.773438 364.238281 270.789062 365.664062 271.742188 367.121094 Z M 267.082031 360.6875 C 261.535156 372.523438 254.019531 384.390625 241.800781 390.109375 C 235.058594 393.257812 227.503906 394.65625 220.15625 395.511719 C 212.785156 396.378906 205.34375 396.546875 197.933594 396.0625 C 189.464844 395.511719 181.09375 394.078125 172.867188 392.003906 C 172.734375 388.964844 172.867188 385.921875 173.316406 382.878906 C 178.617188 383.011719 183.910156 382.757812 189.148438 381.8125 C 198.5 380.136719 207.242188 376.25 215.828125 372.324219 C 230.589844 365.570312 245.527344 359.199219 260.683594 353.417969 C 262.953125 355.738281 265.082031 358.15625 267.082031 360.6875 Z M 248.785156 355.480469 C 239.390625 359.265625 230.078125 363.238281 220.847656 367.402344 C 211.933594 371.421875 203.109375 375.847656 193.613281 378.34375 C 183.375 381.050781 172.835938 380.738281 162.382812 379.753906 C 163.179688 378.367188 164.019531 377.023438 164.914062 375.714844 L 164.917969 375.699219 C 173.617188 376.3125 182.449219 375.917969 190.921875 373.652344 C 199.988281 371.214844 208.476562 367.046875 216.964844 363.121094 C 234.753906 354.890625 253.164062 348.140625 271.769531 341.996094 C 282.339844 338.503906 292.957031 335.207031 303.585938 331.929688 C 304.046875 333.183594 304.523438 334.445312 304.984375 335.714844 C 286.007812 341.59375 267.210938 348.070312 248.785156 355.480469 Z M 248.785156 355.480469 " fill-opacity="1" fill-rule="nonzero"/><path fill="#0673e7" d="M 307.710938 336.160156 C 306.984375 334.183594 306.253906 332.222656 305.527344 330.246094 C 305.414062 329.933594 305.210938 329.710938 304.964844 329.59375 C 304.863281 329.480469 304.734375 329.398438 304.582031 329.355469 C 304.40625 329.273438 304.191406 329.261719 303.96875 329.300781 C 295.9375 329.734375 287.921875 330.304688 279.902344 330.941406 C 271.847656 331.585938 263.777344 332.460938 255.699219 332.597656 C 240.519531 332.867188 225.292969 333.425781 210.449219 336.953125 C 210.324219 336.984375 210.230469 337.027344 210.132812 337.082031 C 210.050781 336.960938 209.984375 336.839844 209.898438 336.734375 C 208.367188 334.667969 205.65625 333.449219 203.355469 335.097656 C 201.722656 336.265625 200.917969 337.898438 200.707031 339.664062 C 174.796875 348.175781 149.679688 358.84375 124.347656 368.90625 C 124.347656 368.90625 124.332031 368.902344 124.328125 368.917969 C 123.917969 368.953125 123.535156 369.210938 123.441406 369.78125 C 123.019531 372.183594 123.023438 374.671875 123.015625 377.089844 C 123.011719 377.519531 123.195312 377.820312 123.472656 378.011719 C 123.65625 378.179688 123.910156 378.285156 124.21875 378.304688 C 133.859375 378.515625 143.402344 379.910156 152.964844 381.113281 C 151.539062 384.28125 150.300781 387.484375 149.195312 390.558594 C 147.636719 394.964844 146.285156 399.582031 145.714844 404.261719 C 142.371094 404.0625 139.433594 406.578125 139.109375 409.9375 C 139.101562 410.035156 139.101562 410.148438 139.089844 410.246094 C 132.667969 420.644531 132.480469 434.488281 138.117188 445.273438 C 138.734375 446.457031 139.4375 448.09375 140.441406 449.019531 C 141.285156 449.800781 142.421875 449.820312 143.570312 449.925781 C 146.429688 450.191406 149.394531 449.855469 152.09375 448.847656 C 157.226562 446.960938 161.117188 442.933594 163.324219 437.980469 C 163.550781 437.710938 163.632812 437.351562 163.507812 436.96875 C 162.554688 434.25 160.671875 431.667969 159.394531 429.109375 C 157.355469 425.042969 155.214844 420.765625 154.273438 416.277344 C 156.1875 413.394531 155.117188 409.730469 152.21875 407.878906 C 152.148438 407.828125 152.074219 407.804688 152 407.769531 C 152.625 403.136719 154.058594 398.578125 155.648438 394.242188 C 157.175781 390.058594 158.980469 385.953125 161.117188 382.035156 C 164.375 382.363281 167.644531 382.644531 170.925781 382.777344 C 170.472656 386.132812 170.332031 389.492188 170.53125 392.832031 C 170.515625 393.007812 170.519531 393.175781 170.570312 393.339844 C 170.703125 395.429688 170.96875 397.511719 171.375 399.566406 C 171.378906 399.679688 171.414062 399.789062 171.449219 399.898438 C 171.9375 402.375 172.601562 404.8125 173.460938 407.207031 C 173.488281 407.28125 173.519531 407.355469 173.550781 407.414062 C 173.671875 407.699219 173.902344 407.945312 174.296875 408.070312 C 190.570312 412.996094 207.667969 415.367188 224.65625 414.007812 C 232.578125 413.375 240.679688 412.199219 248.152344 409.417969 C 255.085938 406.839844 261 402.632812 265.863281 397.070312 C 271.371094 390.742188 275.4375 383.335938 278.878906 375.738281 C 278.914062 375.667969 278.941406 375.574219 278.960938 375.496094 C 279.074219 375.214844 279.070312 374.863281 278.902344 374.519531 C 274.746094 366.449219 269.460938 359.042969 263.179688 352.488281 C 266.664062 351.167969 270.152344 349.882812 273.667969 348.640625 C 284.667969 344.738281 295.761719 341.09375 306.902344 337.644531 C 307.046875 337.601562 307.164062 337.535156 307.25 337.457031 C 307.660156 337.242188 307.953125 336.789062 307.710938 336.160156 Z M 256.570312 334.996094 C 264.363281 334.828125 272.128906 333.96875 279.890625 333.359375 C 284.65625 332.980469 289.429688 332.632812 294.207031 332.320312 C 278.691406 337.140625 263.210938 342.117188 247.984375 347.746094 C 239.222656 350.996094 230.535156 354.445312 221.972656 358.230469 C 213.140625 362.140625 204.523438 366.65625 195.363281 369.78125 C 186.039062 372.972656 176.40625 373.921875 166.617188 373.40625 C 170.101562 368.933594 174.171875 365.675781 179.539062 363.136719 C 187.328125 359.453125 195.867188 357.71875 204.195312 355.625 C 207.566406 354.769531 212.710938 354.148438 215.03125 351.175781 C 217.121094 348.492188 214.832031 345.039062 212.285156 343.648438 C 212.128906 343.554688 211.957031 343.507812 211.796875 343.496094 C 211.769531 342.046875 211.621094 340.613281 211.199219 339.269531 C 226.082031 335.714844 241.308594 335.328125 256.570312 334.996094 Z M 203.996094 337.859375 C 206.066406 335.421875 208.347656 338.191406 208.96875 340.371094 C 209.484375 342.15625 209.382812 344.070312 209.300781 345.902344 C 208.671875 346.972656 207.40625 347.480469 206.214844 347.050781 C 206.140625 347.011719 206.074219 347.011719 206.015625 346.996094 C 203.652344 344.996094 201.722656 340.546875 203.996094 337.859375 Z M 200.792969 342.160156 C 201.144531 344.230469 202.148438 346.285156 203.492188 347.835938 C 196.929688 349.605469 190.28125 351.15625 183.816406 353.304688 C 177.710938 355.351562 171.226562 357.910156 166.230469 362.105469 C 162.8125 364.96875 159.9375 368.578125 157.476562 372.535156 C 148.371094 371.410156 139.300781 369.800781 130.164062 369.148438 C 153.566406 359.773438 176.84375 350.054688 200.792969 342.160156 Z M 125.429688 375.921875 C 125.421875 374.394531 125.441406 372.839844 125.628906 371.335938 C 135.882812 371.667969 145.988281 373.484375 156.152344 374.785156 C 155.402344 376.121094 154.691406 377.480469 154.011719 378.851562 C 153.933594 378.828125 153.871094 378.8125 153.792969 378.804688 C 144.371094 377.625 134.949219 376.214844 125.429688 375.921875 Z M 152.222656 418.175781 C 153.21875 422.035156 155.039062 425.742188 156.777344 429.277344 C 157.734375 431.25 158.753906 433.191406 159.792969 435.121094 C 160.109375 435.707031 160.441406 436.296875 160.761719 436.882812 C 160.792969 436.941406 160.890625 437.136719 160.984375 437.328125 C 159.792969 439.832031 158.160156 442.0625 156.078125 443.820312 C 156.054688 443.730469 156.019531 443.621094 155.960938 443.523438 C 152.613281 437.453125 150.996094 430.75 151.179688 423.824219 C 151.214844 422.273438 148.8125 422.269531 148.777344 423.816406 C 148.582031 431.140625 150.335938 438.296875 153.875 444.714844 C 153.984375 444.914062 154.113281 445.046875 154.269531 445.140625 C 153.40625 445.679688 152.480469 446.152344 151.496094 446.527344 C 150.308594 446.976562 149.066406 447.277344 147.824219 447.445312 C 146.039062 444.277344 144.765625 440.921875 143.960938 437.382812 C 143.617188 435.878906 141.289062 436.492188 141.632812 437.996094 C 142.390625 441.355469 143.585938 444.574219 145.179688 447.601562 C 144.878906 447.601562 144.585938 447.585938 144.277344 447.566406 C 142.304688 447.449219 142.03125 447.175781 141.070312 445.566406 C 140.425781 444.488281 139.851562 443.386719 139.359375 442.238281 C 135.421875 433.332031 135.523438 422.601562 139.855469 413.875 C 140.5625 415.332031 141.695312 416.558594 143.09375 417.429688 C 142.308594 419.363281 141.722656 421.339844 141.351562 423.394531 C 141.078125 424.910156 143.398438 425.570312 143.675781 424.039062 C 144.03125 422.117188 144.5625 420.257812 145.28125 418.449219 C 147.492188 419.199219 150.164062 419.3125 152.222656 418.175781 Z M 151.40625 412.410156 C 151.558594 412.222656 151.65625 411.984375 151.65625 411.6875 C 151.675781 411.3125 151.683594 410.929688 151.707031 410.554688 C 152.945312 411.8125 153.148438 413.660156 152.191406 415.003906 C 152.082031 415.105469 151.984375 415.210938 151.917969 415.339844 C 151.605469 415.683594 151.195312 415.96875 150.714844 416.199219 C 148.925781 417.027344 146.453125 416.554688 144.757812 415.621094 C 142.976562 414.644531 141.566406 412.910156 141.492188 410.796875 C 141.394531 408.402344 143.1875 406.609375 145.503906 406.625 C 145.488281 406.984375 145.472656 407.328125 145.457031 407.691406 C 145.433594 410.453125 147.886719 411.882812 150.132812 412.804688 C 150.714844 413.097656 151.171875 412.828125 151.40625 412.410156 Z M 161.851562 375.992188 C 158.417969 381.417969 155.640625 387.296875 153.421875 393.308594 C 151.472656 398.585938 149.78125 404.183594 149.332031 409.847656 C 148.523438 409.355469 147.828125 408.699219 147.832031 407.738281 C 148.152344 397.347656 152.636719 386.589844 157.558594 377.597656 C 160.03125 373.0625 162.90625 368.574219 166.644531 364.972656 C 171.148438 360.636719 177.472656 358.054688 183.292969 356.023438 C 190.691406 353.441406 198.386719 351.769531 205.9375 349.660156 C 206.066406 349.664062 206.191406 349.628906 206.3125 349.5625 C 208.355469 349.902344 210.671875 348.789062 211.503906 346.863281 C 211.515625 346.832031 211.523438 346.804688 211.546875 346.777344 C 211.625 346.617188 211.671875 346.445312 211.675781 346.25 C 211.683594 346.21875 211.679688 346.183594 211.683594 346.167969 C 212.273438 346.613281 212.792969 347.1875 213.117188 347.859375 C 213.796875 349.242188 212.785156 350.136719 211.585938 350.800781 C 209.824219 351.769531 207.800781 352.199219 205.886719 352.695312 C 201.882812 353.738281 197.863281 354.65625 193.875 355.703125 C 186.3125 357.679688 178.621094 360.113281 172.085938 364.53125 C 167.816406 367.421875 164.59375 371.679688 161.851562 375.992188 Z M 276.46875 375.152344 C 270.695312 387.804688 262.777344 400.539062 249.523438 406.269531 C 242.15625 409.457031 233.902344 410.761719 225.941406 411.480469 C 217.980469 412.199219 209.945312 412.121094 202 411.300781 C 193.019531 410.394531 184.175781 408.5 175.527344 405.925781 C 174.984375 404.347656 174.53125 402.765625 174.136719 401.144531 C 189.46875 405.277344 205.4375 407.117188 221.289062 405.675781 C 229.183594 404.953125 237.242188 403.699219 244.628906 400.746094 C 251.199219 398.113281 256.804688 393.9375 261.410156 388.585938 C 266.316406 382.871094 270.082031 376.308594 273.261719 369.519531 C 274.40625 371.363281 275.464844 373.230469 276.46875 375.152344 Z M 271.742188 367.121094 C 266.09375 379.429688 258.394531 391.910156 245.621094 397.722656 C 238.578125 400.917969 230.671875 402.285156 223.035156 403.09375 C 215.226562 403.921875 207.355469 403.972656 199.535156 403.304688 C 190.742188 402.546875 182.074219 400.867188 173.59375 398.507812 C 173.351562 397.179688 173.167969 395.867188 173.042969 394.523438 C 188 398.222656 203.503906 399.699219 218.84375 398.082031 C 226.292969 397.285156 233.84375 396.003906 240.816406 393.171875 C 247.175781 390.578125 252.59375 386.480469 257.082031 381.3125 C 261.871094 375.78125 265.578125 369.433594 268.722656 362.832031 C 269.773438 364.238281 270.789062 365.664062 271.742188 367.121094 Z M 267.082031 360.6875 C 261.535156 372.523438 254.019531 384.390625 241.800781 390.109375 C 235.058594 393.257812 227.503906 394.65625 220.15625 395.511719 C 212.785156 396.378906 205.34375 396.546875 197.933594 396.0625 C 189.464844 395.511719 181.09375 394.078125 172.867188 392.003906 C 172.734375 388.964844 172.867188 385.921875 173.316406 382.878906 C 178.617188 383.011719 183.910156 382.757812 189.148438 381.8125 C 198.5 380.136719 207.242188 376.25 215.828125 372.324219 C 230.589844 365.570312 245.527344 359.199219 260.683594 353.417969 C 262.953125 355.738281 265.082031 358.15625 267.082031 360.6875 Z M 248.785156 355.480469 C 239.390625 359.265625 230.078125 363.238281 220.847656 367.402344 C 211.933594 371.421875 203.109375 375.847656 193.613281 378.34375 C 183.375 381.050781 172.835938 380.738281 162.382812 379.753906 C 163.179688 378.367188 164.019531 377.023438 164.914062 375.714844 L 164.917969 375.699219 C 173.617188 376.3125 182.449219 375.917969 190.921875 373.652344 C 199.988281 371.214844 208.476562 367.046875 216.964844 363.121094 C 234.753906 354.890625 253.164062 348.140625 271.769531 341.996094 C 282.339844 338.503906 292.957031 335.207031 303.585938 331.929688 C 304.046875 333.183594 304.523438 334.445312 304.984375 335.714844 C 286.007812 341.59375 267.210938 348.070312 248.785156 355.480469 Z M 248.785156 355.480469 " fill-opacity="1" fill-rule="nonzero"/></g></g></g></svg>