<svg xmlns="http://www.w3.org/2000/svg" xmlns:xlink="http://www.w3.org/1999/xlink" width="1080" zoomAndPan="magnify" viewBox="0 0 810 809.999993" height="1080" preserveAspectRatio="xMidYMid meet" version="1.0"><defs><g/><clipPath id="2cec33f11b"><path d="M 81 232 L 775 232 L 775 663 L 81 663 Z M 81 232 " clip-rule="nonzero"/></clipPath><clipPath id="388ca64ca9"><path d="M 186.457031 46.414062 L 786.25 243.996094 L 599.695312 810.3125 L -0.0976562 612.726562 Z M 186.457031 46.414062 " clip-rule="nonzero"/></clipPath><clipPath id="7e2de13795"><path d="M 186.457031 46.414062 L 786.25 243.996094 L 599.695312 810.3125 L -0.0976562 612.726562 Z M 186.457031 46.414062 " clip-rule="nonzero"/></clipPath><clipPath id="31a0bc37c3"><path d="M 94 245 L 762 245 L 762 651 L 94 651 Z M 94 245 " clip-rule="nonzero"/></clipPath><clipPath id="8b163066f4"><path d="M 186.457031 46.414062 L 786.25 243.996094 L 599.695312 810.3125 L -0.0976562 612.726562 Z M 186.457031 46.414062 " clip-rule="nonzero"/></clipPath><clipPath id="5dcf66ec6f"><path d="M 186.457031 46.414062 L 786.25 243.996094 L 599.695312 810.3125 L -0.0976562 612.726562 Z M 186.457031 46.414062 " clip-rule="nonzero"/></clipPath><clipPath id="c34da8a1ab"><rect x="0" width="9" y="0" height="42"/></clipPath></defs><g clip-path="url(#2cec33f11b)"><g clip-path="url(#388ca64ca9)"><g clip-path="url(#7e2de13795)"><path fill="#ffffff" d="M 144.945312 660.171875 C 141.359375 658.992188 138.246094 657.125 135.777344 654.566406 C 131.402344 650.113281 128.796875 644.320312 126.738281 639.609375 C 126.410156 638.777344 126.007812 637.984375 125.699219 637.277344 C 105.585938 593.992188 109.054688 541.4375 134.371094 502.40625 C 137.019531 488.527344 147.519531 478.023438 160.617188 474.992188 C 163.46875 462.507812 167.886719 449.09375 174.214844 433.539062 C 176.976562 426.804688 179.71875 420.484375 182.425781 414.457031 C 154.601562 409.5625 125.925781 404.511719 97.605469 402.585938 C 96.140625 402.464844 94.785156 402.199219 93.480469 401.769531 C 91.253906 401.035156 89.28125 399.902344 87.574219 398.316406 C 83.75 395.132812 81.726562 390.3125 81.960938 385.210938 L 82.046875 384.035156 C 82.484375 375.210938 82.960938 366.097656 85.007812 356.960938 C 86.464844 350.519531 91.402344 345.761719 97.621094 344.621094 C 117.25 337.84375 137.238281 330.882812 156.507812 324.109375 C 225.433594 299.980469 296.675781 275.050781 368.453125 254.875 C 371.144531 248.175781 375.714844 242.699219 381.921875 238.660156 C 388.832031 234.136719 397 233.09375 404.929688 235.707031 C 409.597656 237.246094 413.929688 239.996094 417.59375 243.671875 C 470.484375 234.425781 523.007812 235.054688 576.605469 236.636719 C 598.121094 237.285156 620.214844 236.375 641.546875 235.578125 C 648.558594 235.300781 655.628906 235.039062 662.625 234.816406 C 693.792969 233.765625 721.976562 233.179688 748.714844 232.957031 C 750.941406 232.785156 753.019531 233.050781 755.082031 233.730469 C 755.574219 233.890625 756.0625 234.050781 756.53125 234.269531 C 758.109375 234.96875 759.558594 235.867188 760.828125 236.945312 C 763.5625 239.050781 765.617188 241.957031 766.679688 245.316406 L 773.496094 266.824219 C 775.964844 274.5 772.683594 282.449219 765.609375 286.019531 C 764.328125 286.800781 762.882812 287.347656 761.4375 287.714844 C 718.59375 298.820312 679.289062 309.773438 641.234375 321.316406 C 634.730469 323.328125 627.902344 325.414062 620.769531 327.699219 C 637.679688 349.28125 651.972656 372.769531 663.324219 397.699219 C 665.238281 401.941406 665.363281 406.496094 663.75 410.660156 C 663.570312 411.203125 663.25 412 662.78125 412.871094 C 646.082031 445.65625 629.535156 470.121094 610.621094 489.894531 C 590.535156 510.851562 566.828125 525.796875 540.0625 534.316406 C 508.296875 544.5 474.53125 546.679688 451.894531 547.410156 C 396.46875 549.015625 338.90625 540.285156 280.800781 521.144531 C 276.671875 519.785156 272.453125 518.335938 268.308594 516.847656 C 263.835938 515.257812 260.300781 511.921875 258.496094 507.71875 C 258.257812 507.15625 257.949219 506.453125 257.675781 505.640625 C 254.914062 496.664062 252.800781 487.359375 251.339844 477.910156 C 251.171875 477.132812 251.0625 476.375 250.96875 475.5625 C 249.929688 468.113281 249.289062 460.558594 249.117188 453.039062 C 248.988281 451.792969 248.910156 450.5625 249.03125 449.277344 C 248.96875 441.25 249.445312 433.222656 250.355469 425.15625 C 245.890625 424.644531 241.167969 423.992188 236.15625 423.304688 C 230.121094 433.957031 224.554688 445.367188 219.515625 457.375 C 215.070312 467.949219 209.765625 481.492188 206.417969 495.679688 C 211.171875 500.796875 214.324219 507.132812 215.429688 513.816406 C 216.503906 520.613281 215.480469 527.378906 212.515625 533.445312 C 215.347656 546.597656 221.179688 559.777344 226.882812 572.609375 L 226.957031 572.753906 C 228.34375 575.859375 230.054688 579.070312 231.820312 582.484375 C 235.222656 588.960938 238.679688 595.640625 240.894531 602.992188 C 242.320312 607.792969 241.472656 612.75 238.773438 616.738281 C 228.125 637.371094 210.839844 652.382812 190.015625 658.949219 C 178.65625 662.550781 166.109375 663.535156 153.863281 661.789062 L 152.761719 661.664062 C 150.480469 661.457031 147.824219 661.121094 144.945312 660.171875 Z M 144.945312 660.171875 " fill-opacity="1" fill-rule="nonzero"/></g></g></g><g clip-path="url(#31a0bc37c3)"><g clip-path="url(#8b163066f4)"><g clip-path="url(#5dcf66ec6f)"><path fill="#ffffff" d="M 759.621094 274.957031 C 759.242188 275.191406 758.8125 275.410156 758.339844 275.558594 C 717.878906 286.003906 677.597656 297.175781 637.664062 309.304688 C 624.894531 313.164062 612.179688 317.222656 599.519531 321.300781 C 620.886719 345.796875 638.558594 373.105469 652.042969 402.710938 C 652.644531 403.992188 652.558594 405.167969 652.089844 406.21875 C 652 406.492188 651.910156 406.761719 651.75 407.070312 C 638.210938 433.730469 622.375 459.515625 601.640625 481.160156 C 583.375 500.242188 561.472656 514.277344 536.242188 522.339844 C 509.117188 531.042969 479.875 533.929688 451.472656 534.808594 C 390.492188 536.8125 329.8125 525.492188 272.460938 505.15625 C 271.121094 504.652344 270.269531 503.769531 269.902344 502.6875 C 269.792969 502.46875 269.703125 502.199219 269.613281 501.929688 C 266.941406 493.222656 264.976562 484.386719 263.644531 475.460938 C 263.53125 475.0625 263.476562 474.683594 263.441406 474.25 C 262.402344 466.804688 261.796875 459.324219 261.605469 451.855469 C 261.441406 451.257812 261.476562 450.609375 261.546875 450.03125 C 261.394531 438.0625 262.457031 426.070312 264.636719 414.148438 C 252.953125 413.066406 241.289062 411.570312 229.691406 409.859375 C 221.441406 423.574219 214.242188 437.9375 208.089844 452.585938 C 201.671875 467.871094 195.78125 483.925781 192.78125 500.335938 C 193.035156 500.480469 193.289062 500.625 193.542969 500.769531 C 203.605469 507.875 206.8125 521.152344 199.492188 531.140625 C 202.097656 547.347656 209.042969 563 215.640625 577.875 C 219.832031 587.261719 226.082031 596.785156 229.027344 606.667969 C 229.414062 608.058594 229.058594 609.324219 228.210938 610.25 C 219.539062 627.617188 204.90625 641.339844 186.230469 647.226562 C 176.40625 650.371094 165.757812 651.078125 155.574219 649.648438 C 151.488281 649.085938 147.4375 648.773438 144.53125 645.890625 C 141.15625 642.433594 138.859375 636.4375 136.855469 632.105469 C 118.507812 592.589844 121.5 543.132812 146.214844 507.027344 C 146.210938 506.667969 146.265625 506.324219 146.335938 505.925781 C 148.046875 493.96875 158.921875 485.449219 170.894531 486.746094 C 173.726562 470.101562 179.328125 453.828125 185.640625 438.328125 C 190.050781 427.5 195.019531 416.253906 200.710938 405.1875 C 166.769531 399.304688 132.882812 392.714844 98.394531 390.324219 C 97.273438 390.257812 96.40625 389.789062 95.769531 389.160156 C 94.863281 388.4375 94.28125 387.285156 94.292969 385.78125 C 94.75 377.085938 95.152344 368.1875 97.039062 359.71875 C 97.503906 357.765625 98.875 356.890625 100.355469 356.777344 C 100.355469 356.777344 100.410156 356.796875 100.429688 356.742188 C 192.6875 325.011719 284.292969 291.078125 378.363281 265 C 379.40625 258.722656 382.550781 253.015625 388.59375 249.105469 C 397.019531 243.636719 406.582031 248.410156 411.707031 256.058594 C 411.996094 256.457031 412.269531 256.90625 412.488281 257.339844 C 412.851562 257.15625 413.191406 257.03125 413.644531 256.9375 C 467.324219 246.75 521.839844 247.371094 576.160156 248.953125 C 605.128906 249.828125 634.066406 248.042969 662.976562 247.089844 C 691.753906 246.15625 720.519531 245.460938 749.300781 245.25 C 750.117188 245.15625 750.875 245.226562 751.492188 245.550781 C 752.015625 245.78125 752.503906 246.125 752.8125 246.46875 C 753.664062 246.988281 754.375 247.761719 754.722656 248.902344 C 756.988281 256.089844 759.273438 263.222656 761.542969 270.410156 C 762.363281 272.667969 761.246094 274.226562 759.621094 274.957031 Z M 759.621094 274.957031 " fill-opacity="1" fill-rule="nonzero"/><path fill="#ffffff" d="M 761.613281 270.375 C 759.347656 263.1875 757.0625 256.054688 754.792969 248.863281 C 754.445312 247.726562 753.757812 246.898438 752.886719 246.429688 C 752.542969 246.015625 752.105469 245.691406 751.5625 245.511719 C 750.949219 245.191406 750.1875 245.121094 749.375 245.214844 C 720.589844 245.421875 691.828125 246.121094 663.046875 247.054688 C 634.140625 248.007812 605.144531 249.773438 576.230469 248.914062 C 521.914062 247.335938 467.378906 246.769531 413.71875 256.902344 C 413.265625 256.992188 412.921875 257.121094 412.5625 257.304688 C 412.289062 256.851562 412.070312 256.417969 411.78125 256.023438 C 406.652344 248.375 397.164062 243.5625 388.667969 249.070312 C 382.625 252.980469 379.480469 258.683594 378.433594 264.964844 C 284.363281 291.039062 192.761719 324.976562 100.5 356.707031 C 100.5 356.707031 100.445312 356.6875 100.429688 356.742188 C 98.964844 356.800781 97.539062 357.65625 97.113281 359.683594 C 95.207031 368.207031 94.804688 377.101562 94.367188 385.746094 C 94.28125 387.285156 94.882812 388.382812 95.839844 389.121094 C 96.476562 389.753906 97.363281 390.164062 98.46875 390.289062 C 132.902344 392.664062 166.789062 399.25 200.78125 405.152344 C 195.144531 416.238281 190.175781 427.480469 185.710938 438.292969 C 179.402344 453.789062 173.800781 470.066406 170.964844 486.707031 C 159.046875 485.429688 148.121094 493.929688 146.410156 505.886719 C 146.355469 506.230469 146.339844 506.648438 146.285156 506.992188 C 121.570312 543.09375 118.582031 592.554688 136.925781 632.070312 C 138.929688 636.402344 141.175781 642.378906 144.605469 645.855469 C 147.492188 648.792969 151.558594 649.046875 155.648438 649.613281 C 165.832031 651.042969 176.480469 650.335938 186.304688 647.191406 C 204.976562 641.304688 219.554688 627.566406 228.28125 610.210938 C 229.128906 609.289062 229.484375 608.019531 229.101562 606.628906 C 226.15625 596.75 219.847656 587.207031 215.710938 577.839844 C 209.113281 562.964844 202.167969 547.3125 199.5625 531.105469 C 206.886719 521.117188 203.675781 507.835938 193.617188 500.730469 C 193.378906 500.535156 193.109375 500.445312 192.855469 500.300781 C 195.871094 483.835938 201.761719 467.777344 208.164062 452.550781 C 214.332031 437.847656 221.476562 423.464844 229.765625 409.824219 C 241.359375 411.535156 253.007812 413.085938 264.710938 414.109375 C 262.527344 426.035156 261.46875 438.023438 261.617188 449.992188 C 261.53125 450.625 261.515625 451.222656 261.679688 451.820312 C 261.796875 459.320312 262.402344 466.804688 263.511719 474.214844 C 263.496094 474.628906 263.605469 475.027344 263.714844 475.425781 C 265.046875 484.351562 267.015625 493.1875 269.683594 501.890625 C 269.777344 502.164062 269.867188 502.433594 269.976562 502.648438 C 270.359375 503.679688 271.140625 504.597656 272.535156 505.117188 C 329.882812 525.457031 390.621094 536.792969 451.597656 534.789062 C 480.019531 533.859375 509.1875 531.007812 536.371094 522.324219 C 561.601562 514.261719 583.445312 500.207031 601.765625 481.140625 C 622.519531 459.441406 638.300781 433.640625 651.878906 407.050781 C 652.019531 406.796875 652.128906 406.472656 652.21875 406.199219 C 652.664062 405.203125 652.714844 403.957031 652.167969 402.691406 C 638.667969 373.144531 621.015625 345.777344 599.648438 321.28125 C 612.324219 317.148438 625.023438 313.144531 637.792969 309.285156 C 677.777344 297.175781 718.058594 286.003906 758.46875 275.539062 C 758.992188 275.410156 759.425781 275.191406 759.75 274.9375 C 761.246094 274.226562 762.363281 272.667969 761.613281 270.375 Z M 204.949219 397.253906 C 204.679688 397.164062 204.460938 397.09375 204.171875 397.058594 C 170.613281 391.300781 137.15625 384.671875 103.195312 381.972656 C 103.425781 376.511719 103.75 370.960938 104.671875 365.605469 C 141.277344 368.511719 177.105469 376.703125 213.234375 383.066406 C 210.320312 387.707031 207.554688 392.453125 204.949219 397.253906 Z M 390.492188 259.0625 C 398.308594 250.683594 405.992188 260.980469 407.847656 268.875 C 409.386719 275.339844 408.707031 282.160156 408.117188 288.707031 C 405.6875 292.421875 401.066406 294.027344 396.882812 292.289062 C 396.628906 292.144531 396.394531 292.128906 396.175781 292.058594 C 388.066406 284.511719 381.917969 268.277344 390.492188 259.0625 Z M 632.902344 383.886719 C 636.632812 390.652344 640.089844 397.511719 643.371094 404.550781 C 620.601562 448.820312 590.144531 493.023438 541.808594 511.292969 C 514.921875 521.457031 485.191406 524.726562 456.613281 525.96875 C 428.03125 527.207031 399.3125 525.574219 371.039062 521.316406 C 339.074219 516.5625 307.785156 508.304688 277.28125 497.652344 C 275.617188 491.925781 274.257812 486.183594 273.117188 480.328125 C 327.238281 497.675781 384.023438 506.929688 440.949219 504.433594 C 469.296875 503.175781 498.324219 500.039062 525.230469 490.722656 C 549.15625 482.410156 569.898438 468.414062 587.265625 450.058594 C 605.800781 430.519531 620.363281 407.6875 632.902344 383.886719 Z M 612.230469 351.25 C 590.40625 392.640625 561.550781 433.820312 516.902344 452.222656 C 492.257812 462.34375 465.023438 466.074219 438.597656 467.902344 C 412.097656 469.765625 385.464844 469.121094 359.054688 466.140625 C 328.867188 462.757812 299.175781 456.226562 270.105469 447.433594 C 270.140625 436.546875 271.132812 425.679688 273.246094 414.875 C 292.183594 416.238281 311.148438 416.226562 330.035156 413.71875 C 363.753906 409.296875 395.660156 396.871094 427.019531 384.265625 C 480.933594 362.597656 535.410156 342.316406 590.5625 324.1875 C 598.296875 332.875 605.507812 341.871094 612.230469 351.25 Z M 547.679688 329.5625 C 513.457031 341.527344 479.492188 354.175781 445.785156 367.511719 C 413.25 380.390625 380.953125 394.734375 346.570312 402.070312 C 309.515625 410.03125 271.882812 407.144531 234.671875 401.867188 C 237.765625 397.046875 240.984375 392.390625 244.402344 387.859375 L 244.421875 387.804688 C 275.425781 391.453125 307.066406 391.523438 337.742188 384.835938 C 370.570312 377.648438 401.621094 364.160156 432.621094 351.558594 C 497.617188 325.113281 564.566406 304.066406 632.121094 285.203125 C 670.503906 274.492188 709.015625 264.484375 747.5625 254.550781 C 749.007812 259.117188 750.507812 263.707031 751.933594 268.328125 C 683.089844 286.164062 614.800781 306.167969 547.679688 329.5625 Z M 547.679688 329.5625 " fill-opacity="1" fill-rule="nonzero"/><path fill="#ffffff" d="M 761.613281 270.375 C 759.347656 263.1875 757.0625 256.054688 754.792969 248.863281 C 754.445312 247.726562 753.757812 246.898438 752.886719 246.429688 C 752.542969 246.015625 752.105469 245.691406 751.5625 245.511719 C 750.949219 245.191406 750.1875 245.121094 749.375 245.214844 C 720.589844 245.421875 691.828125 246.121094 663.046875 247.054688 C 634.140625 248.007812 605.144531 249.773438 576.230469 248.914062 C 521.914062 247.335938 467.378906 246.769531 413.71875 256.902344 C 413.265625 256.992188 412.921875 257.121094 412.5625 257.304688 C 412.289062 256.851562 412.070312 256.417969 411.78125 256.023438 C 406.652344 248.375 397.164062 243.5625 388.667969 249.070312 C 382.625 252.980469 379.480469 258.683594 378.433594 264.964844 C 284.363281 291.039062 192.761719 324.976562 100.5 356.707031 C 100.5 356.707031 100.445312 356.6875 100.429688 356.742188 C 98.964844 356.800781 97.539062 357.65625 97.113281 359.683594 C 95.207031 368.207031 94.804688 377.101562 94.367188 385.746094 C 94.28125 387.285156 94.882812 388.382812 95.839844 389.121094 C 96.476562 389.753906 97.363281 390.164062 98.46875 390.289062 C 132.902344 392.664062 166.789062 399.25 200.78125 405.152344 C 195.144531 416.238281 190.175781 427.480469 185.710938 438.292969 C 179.402344 453.789062 173.800781 470.066406 170.964844 486.707031 C 159.046875 485.429688 148.121094 493.929688 146.410156 505.886719 C 146.355469 506.230469 146.339844 506.648438 146.285156 506.992188 C 121.570312 543.09375 118.582031 592.554688 136.925781 632.070312 C 138.929688 636.402344 141.175781 642.378906 144.605469 645.855469 C 147.492188 648.792969 151.558594 649.046875 155.648438 649.613281 C 165.832031 651.042969 176.480469 650.335938 186.304688 647.191406 C 204.976562 641.304688 219.554688 627.566406 228.28125 610.210938 C 229.128906 609.289062 229.484375 608.019531 229.101562 606.628906 C 226.15625 596.75 219.847656 587.207031 215.710938 577.839844 C 209.113281 562.964844 202.167969 547.3125 199.5625 531.105469 C 206.886719 521.117188 203.675781 507.835938 193.617188 500.730469 C 193.378906 500.535156 193.109375 500.445312 192.855469 500.300781 C 195.871094 483.835938 201.761719 467.777344 208.164062 452.550781 C 214.332031 437.847656 221.476562 423.464844 229.765625 409.824219 C 241.359375 411.535156 253.007812 413.085938 264.710938 414.109375 C 262.527344 426.035156 261.46875 438.023438 261.617188 449.992188 C 261.53125 450.625 261.515625 451.222656 261.679688 451.820312 C 261.796875 459.320312 262.402344 466.804688 263.511719 474.214844 C 263.496094 474.628906 263.605469 475.027344 263.714844 475.425781 C 265.046875 484.351562 267.015625 493.1875 269.683594 501.890625 C 269.777344 502.164062 269.867188 502.433594 269.976562 502.648438 C 270.359375 503.679688 271.140625 504.597656 272.535156 505.117188 C 329.882812 525.457031 390.621094 536.792969 451.597656 534.789062 C 480.019531 533.859375 509.1875 531.007812 536.371094 522.324219 C 561.601562 514.261719 583.445312 500.207031 601.765625 481.140625 C 622.519531 459.441406 638.300781 433.640625 651.878906 407.050781 C 652.019531 406.796875 652.128906 406.472656 652.21875 406.199219 C 652.664062 405.203125 652.714844 403.957031 652.167969 402.691406 C 638.667969 373.144531 621.015625 345.777344 599.648438 321.28125 C 612.324219 317.148438 625.023438 313.144531 637.792969 309.285156 C 677.777344 297.175781 718.058594 286.003906 758.46875 275.539062 C 758.992188 275.410156 759.425781 275.191406 759.75 274.9375 C 761.246094 274.226562 762.363281 272.667969 761.613281 270.375 Z M 390.492188 259.0625 C 398.308594 250.683594 405.992188 260.980469 407.847656 268.875 C 409.386719 275.339844 408.707031 282.160156 408.117188 288.707031 C 405.6875 292.421875 401.066406 294.027344 396.882812 292.289062 C 396.628906 292.144531 396.394531 292.128906 396.175781 292.058594 C 388.066406 284.511719 381.917969 268.277344 390.492188 259.0625 Z M 103.195312 381.972656 C 103.425781 376.511719 103.75 370.960938 104.671875 365.605469 C 141.277344 368.511719 177.105469 376.703125 213.234375 383.066406 C 210.320312 387.707031 207.554688 392.453125 204.894531 397.234375 C 204.625 397.144531 204.40625 397.074219 204.117188 397.039062 C 170.628906 391.246094 137.175781 384.621094 103.195312 381.972656 Z M 191.902344 537.550781 C 194.824219 551.515625 200.714844 565.074219 206.328125 578 C 209.425781 585.21875 212.742188 592.332031 216.128906 599.40625 C 217.167969 601.554688 218.261719 603.722656 219.300781 605.867188 C 219.410156 606.085938 219.71875 606.789062 220.027344 607.492188 C 215.339844 616.242188 209.128906 623.949219 201.394531 629.886719 C 201.320312 629.5625 201.210938 629.167969 201.027344 628.804688 C 190.066406 606.53125 185.40625 582.304688 187.234375 557.5625 C 187.613281 552.027344 179.023438 551.605469 178.644531 557.140625 C 176.710938 583.292969 181.792969 609.164062 193.359375 632.71875 C 193.722656 633.441406 194.15625 633.945312 194.703125 634.304688 C 191.527344 636.089844 188.132812 637.621094 184.554688 638.789062 C 180.238281 640.195312 175.742188 641.0625 171.277344 641.457031 C 165.414062 629.835938 161.429688 617.625 159.140625 604.832031 C 158.164062 599.394531 149.746094 601.195312 150.722656 606.636719 C 152.863281 618.777344 156.59375 630.480469 161.785156 641.582031 C 160.71875 641.53125 159.667969 641.425781 158.566406 641.304688 C 151.53125 640.550781 150.605469 639.523438 147.4375 633.605469 C 145.308594 629.652344 143.449219 625.609375 141.878906 621.417969 C 129.289062 588.917969 131.449219 550.5625 148.410156 520.09375 C 150.691406 525.417969 154.539062 529.996094 159.394531 533.34375 C 156.257812 540.132812 153.839844 547.101562 152.164062 554.378906 C 150.9375 559.75 159.121094 562.507812 160.367188 557.078125 C 161.949219 550.257812 164.167969 543.703125 167.039062 537.367188 C 174.824219 540.410156 184.355469 541.265625 191.902344 537.550781 Z M 189.949219 516.800781 C 190.523438 516.148438 190.917969 515.3125 190.96875 514.246094 C 191.109375 512.910156 191.195312 511.550781 191.335938 510.214844 C 195.566406 514.917969 195.96875 521.550781 192.332031 526.195312 C 191.917969 526.539062 191.558594 526.902344 191.289062 527.355469 C 190.117188 528.535156 188.601562 529.480469 186.847656 530.226562 C 180.3125 532.890625 171.554688 530.785156 165.648438 527.15625 C 159.433594 523.363281 154.691406 516.925781 154.773438 509.367188 C 154.832031 500.777344 161.539062 494.679688 169.820312 495.121094 C 169.699219 496.40625 169.59375 497.632812 169.472656 498.917969 C 168.929688 508.792969 177.464844 514.3125 185.34375 517.992188 C 187.371094 519.140625 189.050781 518.25 189.949219 516.800781 Z M 233.414062 388.332031 C 220.226562 407.164062 209.304688 427.703125 200.359375 448.835938 C 192.503906 467.378906 185.523438 487.109375 182.972656 507.277344 C 180.164062 505.390625 177.785156 502.921875 177.953125 499.484375 C 180.84375 462.390625 198.683594 424.6875 217.789062 393.355469 C 227.390625 377.558594 238.417969 361.988281 252.386719 349.734375 C 269.222656 334.992188 292.265625 326.8125 313.414062 320.535156 C 340.308594 312.539062 368.097656 307.851562 395.449219 301.570312 C 395.921875 301.605469 396.371094 301.511719 396.804688 301.292969 C 404.0625 302.839844 412.527344 299.25 415.832031 292.511719 C 415.867188 292.402344 415.902344 292.296875 415.992188 292.203125 C 416.296875 291.644531 416.496094 291.046875 416.546875 290.339844 C 416.582031 290.230469 416.5625 290.105469 416.582031 290.050781 C 418.613281 291.742188 420.375 293.886719 421.433594 296.34375 C 423.621094 301.398438 419.851562 304.429688 415.464844 306.597656 C 409.003906 309.765625 401.683594 310.96875 394.765625 312.421875 C 380.277344 315.472656 365.75 318.089844 351.3125 321.160156 C 323.941406 326.953125 296.035156 334.375 271.929688 349.070312 C 256.179688 358.6875 243.9375 373.375 233.414062 388.332031 Z M 643.371094 404.550781 C 620.601562 448.820312 590.144531 493.023438 541.808594 511.292969 C 514.921875 521.457031 485.191406 524.726562 456.613281 525.96875 C 428.03125 527.207031 399.3125 525.574219 371.039062 521.316406 C 339.074219 516.5625 307.785156 508.304688 277.28125 497.652344 C 275.617188 491.925781 274.257812 486.183594 273.117188 480.328125 C 327.238281 497.675781 384.023438 506.929688 440.949219 504.433594 C 469.296875 503.175781 498.324219 500.039062 525.230469 490.722656 C 549.15625 482.410156 569.898438 468.414062 587.265625 450.058594 C 605.765625 430.445312 620.328125 407.613281 632.847656 383.867188 C 636.632812 390.652344 640.089844 397.511719 643.371094 404.550781 Z M 627.808594 375.042969 C 605.558594 418.097656 575.933594 461.433594 529.277344 480.074219 C 503.566406 490.328125 475.066406 493.882812 447.628906 495.496094 C 419.570312 497.152344 391.417969 496.003906 363.558594 492.304688 C 332.25 488.128906 301.539062 480.660156 271.617188 470.804688 C 270.96875 466.015625 270.535156 461.296875 270.320312 456.472656 C 323.171875 472.195312 378.359375 480.082031 433.476562 476.871094 C 460.25 475.273438 487.464844 471.960938 512.875 462.992188 C 536.042969 454.792969 556.097656 441.054688 573.011719 423.332031 C 591.0625 404.355469 605.378906 382.28125 617.734375 359.203125 C 621.261719 364.398438 624.644531 369.667969 627.808594 375.042969 Z M 612.230469 351.25 C 590.40625 392.640625 561.550781 433.820312 516.902344 452.222656 C 492.257812 462.34375 465.023438 466.074219 438.597656 467.902344 C 412.097656 469.765625 385.464844 469.121094 359.054688 466.140625 C 328.867188 462.757812 299.175781 456.226562 270.105469 447.433594 C 270.140625 436.546875 271.132812 425.679688 273.246094 414.875 C 292.183594 416.238281 311.148438 416.226562 330.035156 413.71875 C 363.753906 409.296875 395.660156 396.871094 427.019531 384.265625 C 480.933594 362.597656 535.410156 342.316406 590.5625 324.1875 C 598.296875 332.875 605.507812 341.871094 612.230469 351.25 Z M 547.679688 329.5625 C 513.457031 341.527344 479.492188 354.175781 445.785156 367.511719 C 413.25 380.390625 380.953125 394.734375 346.570312 402.070312 C 309.515625 410.03125 271.882812 407.144531 234.671875 401.867188 C 237.765625 397.046875 240.984375 392.390625 244.402344 387.859375 L 244.421875 387.804688 C 275.425781 391.453125 307.066406 391.523438 337.742188 384.835938 C 370.570312 377.648438 401.621094 364.160156 432.621094 351.558594 C 497.617188 325.113281 564.566406 304.066406 632.121094 285.203125 C 670.503906 274.492188 709.015625 264.484375 747.5625 254.550781 C 749.007812 259.117188 750.507812 263.707031 751.933594 268.328125 C 683.089844 286.164062 614.800781 306.167969 547.679688 329.5625 Z M 547.679688 329.5625 " fill-opacity="1" fill-rule="nonzero"/><path fill="#0673e7" d="M 761.613281 270.375 C 759.347656 263.1875 757.0625 256.054688 754.792969 248.863281 C 754.445312 247.726562 753.757812 246.898438 752.886719 246.429688 C 752.542969 246.015625 752.105469 245.691406 751.5625 245.511719 C 750.949219 245.191406 750.1875 245.121094 749.375 245.214844 C 720.589844 245.421875 691.828125 246.121094 663.046875 247.054688 C 634.140625 248.007812 605.144531 249.773438 576.230469 248.914062 C 521.914062 247.335938 467.378906 246.769531 413.71875 256.902344 C 413.265625 256.992188 412.921875 257.121094 412.5625 257.304688 C 412.289062 256.851562 412.070312 256.417969 411.78125 256.023438 C 406.652344 248.375 397.164062 243.5625 388.667969 249.070312 C 382.625 252.980469 379.480469 258.683594 378.433594 264.964844 C 284.363281 291.039062 192.761719 324.976562 100.5 356.707031 C 100.5 356.707031 100.445312 356.6875 100.429688 356.742188 C 98.964844 356.800781 97.539062 357.65625 97.113281 359.683594 C 95.207031 368.207031 94.804688 377.101562 94.367188 385.746094 C 94.28125 387.285156 94.882812 388.382812 95.839844 389.121094 C 96.476562 389.753906 97.363281 390.164062 98.46875 390.289062 C 132.902344 392.664062 166.789062 399.25 200.78125 405.152344 C 195.144531 416.238281 190.175781 427.480469 185.710938 438.292969 C 179.402344 453.789062 173.800781 470.066406 170.964844 486.707031 C 159.046875 485.429688 148.121094 493.929688 146.410156 505.886719 C 146.355469 506.230469 146.339844 506.648438 146.285156 506.992188 C 121.570312 543.09375 118.582031 592.554688 136.925781 632.070312 C 138.929688 636.402344 141.175781 642.378906 144.605469 645.855469 C 147.492188 648.792969 151.558594 649.046875 155.648438 649.613281 C 165.832031 651.042969 176.480469 650.335938 186.304688 647.191406 C 204.976562 641.304688 219.554688 627.566406 228.28125 610.210938 C 229.128906 609.289062 229.484375 608.019531 229.101562 606.628906 C 226.15625 596.75 219.847656 587.207031 215.710938 577.839844 C 209.113281 562.964844 202.167969 547.3125 199.5625 531.105469 C 206.886719 521.117188 203.675781 507.835938 193.617188 500.730469 C 193.378906 500.535156 193.109375 500.445312 192.855469 500.300781 C 195.871094 483.835938 201.761719 467.777344 208.164062 452.550781 C 214.332031 437.847656 221.476562 423.464844 229.765625 409.824219 C 241.359375 411.535156 253.007812 413.085938 264.710938 414.109375 C 262.527344 426.035156 261.46875 438.023438 261.617188 449.992188 C 261.53125 450.625 261.515625 451.222656 261.679688 451.820312 C 261.796875 459.320312 262.402344 466.804688 263.511719 474.214844 C 263.496094 474.628906 263.605469 475.027344 263.714844 475.425781 C 265.046875 484.351562 267.015625 493.1875 269.683594 501.890625 C 269.777344 502.164062 269.867188 502.433594 269.976562 502.648438 C 270.359375 503.679688 271.140625 504.597656 272.535156 505.117188 C 329.882812 525.457031 390.621094 536.792969 451.597656 534.789062 C 480.019531 533.859375 509.1875 531.007812 536.371094 522.324219 C 561.601562 514.261719 583.445312 500.207031 601.765625 481.140625 C 622.519531 459.441406 638.300781 433.640625 651.878906 407.050781 C 652.019531 406.796875 652.128906 406.472656 652.21875 406.199219 C 652.664062 405.203125 652.714844 403.957031 652.167969 402.691406 C 638.667969 373.144531 621.015625 345.777344 599.648438 321.28125 C 612.324219 317.148438 625.023438 313.144531 637.792969 309.285156 C 677.777344 297.175781 718.058594 286.003906 758.46875 275.539062 C 758.992188 275.410156 759.425781 275.191406 759.75 274.9375 C 761.246094 274.226562 762.363281 272.667969 761.613281 270.375 Z M 578.957031 257.640625 C 606.839844 258.335938 634.75 256.574219 662.609375 255.699219 C 679.710938 255.132812 696.832031 254.691406 713.96875 254.378906 C 657.683594 269.003906 601.507812 284.210938 546.117188 301.78125 C 514.238281 311.925781 482.601562 322.816406 451.347656 334.914062 C 419.117188 347.410156 387.546875 362.113281 354.277344 371.742188 C 320.390625 381.585938 285.792969 383.371094 250.882812 379.878906 C 264.082031 364.484375 279.195312 353.507812 298.800781 345.339844 C 327.273438 333.46875 358.101562 328.695312 388.21875 322.605469 C 400.414062 320.121094 418.925781 318.753906 427.710938 308.527344 C 435.636719 299.277344 428.03125 286.539062 419.15625 281.144531 C 418.609375 280.785156 418.011719 280.589844 417.433594 280.519531 C 417.578125 275.328125 417.289062 270.179688 416.007812 265.300781 C 469.8125 255.09375 524.332031 256.257812 578.957031 257.640625 Z M 390.492188 259.0625 C 398.308594 250.683594 405.992188 260.980469 407.847656 268.875 C 409.386719 275.339844 408.707031 282.160156 408.117188 288.707031 C 405.6875 292.421875 401.066406 294.027344 396.882812 292.289062 C 396.628906 292.144531 396.394531 292.128906 396.175781 292.058594 C 388.066406 284.511719 381.917969 268.277344 390.492188 259.0625 Z M 378.320312 273.894531 C 379.234375 281.359375 382.476562 288.867188 387.019531 294.640625 C 363.261719 299.875 339.230469 304.300781 315.75 310.890625 C 293.570312 317.1875 269.964844 325.246094 251.394531 339.414062 C 238.699219 349.078125 227.804688 361.5 218.339844 375.238281 C 185.976562 369.695312 153.820312 362.414062 121.261719 358.550781 C 206.5 328.957031 291.367188 298.105469 378.320312 273.894531 Z M 103.195312 381.972656 C 103.425781 376.511719 103.75 370.960938 104.671875 365.605469 C 141.277344 368.511719 177.105469 376.703125 213.234375 383.066406 C 210.320312 387.707031 207.554688 392.453125 204.894531 397.234375 C 204.625 397.144531 204.40625 397.074219 204.117188 397.039062 C 170.628906 391.246094 137.175781 384.621094 103.195312 381.972656 Z M 191.902344 537.550781 C 194.824219 551.515625 200.714844 565.074219 206.328125 578 C 209.425781 585.21875 212.742188 592.332031 216.128906 599.40625 C 217.167969 601.554688 218.261719 603.722656 219.300781 605.867188 C 219.410156 606.085938 219.71875 606.789062 220.027344 607.492188 C 215.339844 616.242188 209.128906 623.949219 201.394531 629.886719 C 201.320312 629.5625 201.210938 629.167969 201.027344 628.804688 C 190.066406 606.53125 185.40625 582.304688 187.234375 557.5625 C 187.613281 552.027344 179.023438 551.605469 178.644531 557.140625 C 176.710938 583.292969 181.792969 609.164062 193.359375 632.71875 C 193.722656 633.441406 194.15625 633.945312 194.703125 634.304688 C 191.527344 636.089844 188.132812 637.621094 184.554688 638.789062 C 180.238281 640.195312 175.742188 641.0625 171.277344 641.457031 C 165.414062 629.835938 161.429688 617.625 159.140625 604.832031 C 158.164062 599.394531 149.746094 601.195312 150.722656 606.636719 C 152.863281 618.777344 156.59375 630.480469 161.785156 641.582031 C 160.71875 641.53125 159.667969 641.425781 158.566406 641.304688 C 151.53125 640.550781 150.605469 639.523438 147.4375 633.605469 C 145.308594 629.652344 143.449219 625.609375 141.878906 621.417969 C 129.289062 588.917969 131.449219 550.5625 148.410156 520.09375 C 150.691406 525.417969 154.539062 529.996094 159.394531 533.34375 C 156.257812 540.132812 153.839844 547.101562 152.164062 554.378906 C 150.9375 559.75 159.121094 562.507812 160.367188 557.078125 C 161.949219 550.257812 164.167969 543.703125 167.039062 537.367188 C 174.824219 540.410156 184.355469 541.265625 191.902344 537.550781 Z M 189.949219 516.800781 C 190.523438 516.148438 190.917969 515.3125 190.96875 514.246094 C 191.109375 512.910156 191.195312 511.550781 191.335938 510.214844 C 195.566406 514.917969 195.96875 521.550781 192.332031 526.195312 C 191.917969 526.539062 191.558594 526.902344 191.289062 527.355469 C 190.117188 528.535156 188.601562 529.480469 186.847656 530.226562 C 180.3125 532.890625 171.554688 530.785156 165.648438 527.15625 C 159.433594 523.363281 154.691406 516.925781 154.773438 509.367188 C 154.832031 500.777344 161.539062 494.679688 169.820312 495.121094 C 169.699219 496.40625 169.59375 497.632812 169.472656 498.917969 C 168.929688 508.792969 177.464844 514.3125 185.34375 517.992188 C 187.371094 519.140625 189.050781 518.25 189.949219 516.800781 Z M 233.414062 388.332031 C 220.226562 407.164062 209.304688 427.703125 200.359375 448.835938 C 192.503906 467.378906 185.523438 487.109375 182.972656 507.277344 C 180.164062 505.390625 177.785156 502.921875 177.953125 499.484375 C 180.84375 462.390625 198.683594 424.6875 217.789062 393.355469 C 227.390625 377.558594 238.417969 361.988281 252.386719 349.734375 C 269.222656 334.992188 292.265625 326.8125 313.414062 320.535156 C 340.308594 312.539062 368.097656 307.851562 395.449219 301.570312 C 395.921875 301.605469 396.371094 301.511719 396.804688 301.292969 C 404.0625 302.839844 412.527344 299.25 415.832031 292.511719 C 415.867188 292.402344 415.902344 292.296875 415.992188 292.203125 C 416.296875 291.644531 416.496094 291.046875 416.546875 290.339844 C 416.582031 290.230469 416.5625 290.105469 416.582031 290.050781 C 418.613281 291.742188 420.375 293.886719 421.433594 296.34375 C 423.621094 301.398438 419.851562 304.429688 415.464844 306.597656 C 409.003906 309.765625 401.683594 310.96875 394.765625 312.421875 C 380.277344 315.472656 365.75 318.089844 351.3125 321.160156 C 323.941406 326.953125 296.035156 334.375 271.929688 349.070312 C 256.179688 358.6875 243.9375 373.375 233.414062 388.332031 Z M 643.371094 404.550781 C 620.601562 448.820312 590.144531 493.023438 541.808594 511.292969 C 514.921875 521.457031 485.191406 524.726562 456.613281 525.96875 C 428.03125 527.207031 399.3125 525.574219 371.039062 521.316406 C 339.074219 516.5625 307.785156 508.304688 277.28125 497.652344 C 275.617188 491.925781 274.257812 486.183594 273.117188 480.328125 C 327.238281 497.675781 384.023438 506.929688 440.949219 504.433594 C 469.296875 503.175781 498.324219 500.039062 525.230469 490.722656 C 549.15625 482.410156 569.898438 468.414062 587.265625 450.058594 C 605.765625 430.445312 620.328125 407.613281 632.847656 383.867188 C 636.632812 390.652344 640.089844 397.511719 643.371094 404.550781 Z M 627.808594 375.042969 C 605.558594 418.097656 575.933594 461.433594 529.277344 480.074219 C 503.566406 490.328125 475.066406 493.882812 447.628906 495.496094 C 419.570312 497.152344 391.417969 496.003906 363.558594 492.304688 C 332.25 488.128906 301.539062 480.660156 271.617188 470.804688 C 270.96875 466.015625 270.535156 461.296875 270.320312 456.472656 C 323.171875 472.195312 378.359375 480.082031 433.476562 476.871094 C 460.25 475.273438 487.464844 471.960938 512.875 462.992188 C 536.042969 454.792969 556.097656 441.054688 573.011719 423.332031 C 591.0625 404.355469 605.378906 382.28125 617.734375 359.203125 C 621.261719 364.398438 624.644531 369.667969 627.808594 375.042969 Z M 612.230469 351.25 C 590.40625 392.640625 561.550781 433.820312 516.902344 452.222656 C 492.257812 462.34375 465.023438 466.074219 438.597656 467.902344 C 412.097656 469.765625 385.464844 469.121094 359.054688 466.140625 C 328.867188 462.757812 299.175781 456.226562 270.105469 447.433594 C 270.140625 436.546875 271.132812 425.679688 273.246094 414.875 C 292.183594 416.238281 311.148438 416.226562 330.035156 413.71875 C 363.753906 409.296875 395.660156 396.871094 427.019531 384.265625 C 480.933594 362.597656 535.410156 342.316406 590.5625 324.1875 C 598.296875 332.875 605.507812 341.871094 612.230469 351.25 Z M 547.679688 329.5625 C 513.457031 341.527344 479.492188 354.175781 445.785156 367.511719 C 413.25 380.390625 380.953125 394.734375 346.570312 402.070312 C 309.515625 410.03125 271.882812 407.144531 234.671875 401.867188 C 237.765625 397.046875 240.984375 392.390625 244.402344 387.859375 L 244.421875 387.804688 C 275.425781 391.453125 307.066406 391.523438 337.742188 384.835938 C 370.570312 377.648438 401.621094 364.160156 432.621094 351.558594 C 497.617188 325.113281 564.566406 304.066406 632.121094 285.203125 C 670.503906 274.492188 709.015625 264.484375 747.5625 254.550781 C 749.007812 259.117188 750.507812 263.707031 751.933594 268.328125 C 683.089844 286.164062 614.800781 306.167969 547.679688 329.5625 Z M 547.679688 329.5625 " fill-opacity="1" fill-rule="nonzero"/></g></g></g><g transform="matrix(1, 0, 0, 1, 212, 559)"><g clip-path="url(#c34da8a1ab)"><g fill="#0673e7" fill-opacity="1"><g transform="translate(0.287507, 32.266792)"><g><path d="M 4.09375 0.125 C 3.582031 0.125 3.128906 0.0195312 2.734375 -0.1875 C 2.335938 -0.394531 2.035156 -0.679688 1.828125 -1.046875 C 1.617188 -1.410156 1.515625 -1.828125 1.515625 -2.296875 C 1.515625 -2.753906 1.617188 -3.164062 1.828125 -3.53125 C 2.035156 -3.90625 2.335938 -4.195312 2.734375 -4.40625 C 3.128906 -4.625 3.582031 -4.734375 4.09375 -4.734375 C 4.613281 -4.734375 5.066406 -4.628906 5.453125 -4.421875 C 5.847656 -4.210938 6.148438 -3.921875 6.359375 -3.546875 C 6.566406 -3.179688 6.671875 -2.769531 6.671875 -2.3125 C 6.671875 -1.601562 6.4375 -1.019531 5.96875 -0.5625 C 5.5 -0.101562 4.875 0.125 4.09375 0.125 Z M 4.09375 0.125 "/></g></g></g></g></g></svg>