<svg xmlns="http://www.w3.org/2000/svg" xmlns:xlink="http://www.w3.org/1999/xlink" width="1920" zoomAndPan="magnify" viewBox="0 0 1440 809.999993" height="1080" preserveAspectRatio="xMidYMid meet" version="1.0"><defs><clipPath id="331b908fd7"><path d="M 451 129.761719 L 462 129.761719 L 462 149 L 451 149 Z M 451 129.761719 " clip-rule="nonzero"/></clipPath><clipPath id="13e6e4b2ee"><path d="M 519 490 L 559.027344 490 L 559.027344 523 L 519 523 Z M 519 490 " clip-rule="nonzero"/></clipPath></defs><path fill="#e0f0ff" d="M 544.101562 813.175781 C 506.261719 865.15625 63.691406 879.914062 -1.089844 813.175781 C -38.0625 775.085938 111.328125 638.007812 287.714844 646.351562 C 447.886719 653.925781 571.339844 775.761719 544.101562 813.175781 Z M 544.101562 813.175781 " fill-opacity="1" fill-rule="nonzero"/><path fill="#000000" d="M 381.957031 304.917969 C 383.023438 304.277344 384.308594 304.042969 385.566406 304.371094 C 388.109375 305.035156 389.574219 307.746094 388.835938 310.421875 C 388.585938 311.332031 388.117188 312.117188 387.503906 312.734375 C 387.597656 312.753906 387.6875 312.777344 387.78125 312.796875 C 390.480469 313.503906 392.03125 316.378906 391.25 319.222656 C 390.773438 320.957031 389.535156 322.28125 388.023438 322.886719 C 390.167969 323.804688 391.324219 326.273438 390.652344 328.71875 C 390.226562 330.277344 389.144531 331.484375 387.8125 332.089844 C 388.382812 332.917969 388.59375 334.015625 388.292969 335.105469 C 387.863281 336.667969 386.519531 337.730469 385.046875 337.808594 C 385.082031 338.367188 385.023438 338.941406 384.867188 339.511719 C 384.128906 342.191406 381.472656 343.824219 378.929688 343.160156 C 377.96875 342.910156 377.164062 342.371094 376.574219 341.648438 C 375.386719 343.121094 373.472656 343.855469 371.617188 343.371094 C 371.15625 343.253906 370.726562 343.0625 370.34375 342.820312 C 369.117188 344.609375 366.933594 345.542969 364.828125 344.996094 C 362.34375 344.347656 360.828125 341.855469 361.214844 339.246094 C 360.316406 339.101562 359.410156 338.914062 358.507812 338.675781 C 354.769531 337.699219 351.445312 336.023438 348.691406 333.875 C 347.558594 334.320312 346.300781 334.429688 345.058594 334.105469 C 342.511719 333.4375 340.816406 331.148438 340.691406 328.539062 C 340.226562 328.535156 339.753906 328.476562 339.289062 328.355469 C 336.125 327.527344 334.300781 324.15625 335.21875 320.820312 C 335.394531 320.183594 335.65625 319.59375 335.988281 319.0625 C 334.757812 318.277344 334.136719 316.699219 334.566406 315.132812 C 334.863281 314.054688 335.59375 313.21875 336.5 312.773438 C 335.992188 311.71875 335.851562 310.453125 336.199219 309.195312 C 336.871094 306.753906 339.136719 305.179688 341.457031 305.425781 C 341.4375 305.039062 341.480469 304.636719 341.589844 304.238281 C 342.007812 302.722656 343.285156 301.675781 344.699219 301.542969 C 344.574219 300.707031 344.617188 299.820312 344.859375 298.941406 C 345.746094 295.714844 348.945312 293.75 352.007812 294.546875 C 352.835938 294.765625 353.570312 295.160156 354.179688 295.6875 C 355.03125 294.6875 356.363281 294.199219 357.652344 294.535156 C 358.171875 294.671875 358.628906 294.929688 359.003906 295.269531 C 359.703125 293.675781 361.414062 292.761719 363.058594 293.191406 C 364.484375 293.5625 365.433594 294.832031 365.523438 296.285156 C 366.507812 295.804688 367.636719 295.660156 368.746094 295.949219 C 369.558594 296.160156 370.265625 296.582031 370.820312 297.148438 C 371.96875 296.269531 373.453125 295.902344 374.898438 296.28125 C 377.363281 296.925781 378.816406 299.492188 378.230469 302.085938 C 378.65625 302.023438 379.09375 302.042969 379.527344 302.15625 C 380.839844 302.5 381.75 303.609375 381.957031 304.917969 Z M 381.957031 304.917969 " fill-opacity="1" fill-rule="nonzero"/><path fill="#573515" d="M 372.347656 340.828125 C 368.917969 351.988281 358.277344 358.785156 348.582031 356.011719 C 338.886719 353.238281 333.808594 341.941406 337.242188 330.78125 C 340.671875 319.621094 349.882812 321.914062 360.421875 320.183594 C 356.957031 335.453125 375.777344 329.664062 372.347656 340.828125 Z M 372.347656 340.828125 " fill-opacity="1" fill-rule="nonzero"/><path stroke-linecap="butt" transform="matrix(-0.159918, 1.27343, -1.273692, -0.152709, 329.252188, 656.608523)" fill="none" stroke-linejoin="miter" d="M -0.000428573 -3.871686 L 28.296687 0.267183 " stroke="#573515" stroke-width="7.746" stroke-opacity="1" stroke-miterlimit="4"/><path fill="#ffffff" d="M 300.070312 714.292969 L 323.460938 692.105469 L 335.160156 692.105469 L 335.160156 711.125 Z M 300.070312 714.292969 " fill-opacity="1" fill-rule="nonzero"/><path fill="#573515" d="M 297.488281 333.453125 C 307.097656 355.164062 323.308594 376.113281 343.605469 388.609375 L 350.746094 377.660156 C 332.34375 366.566406 318.582031 348.589844 309.664062 328.226562 C 300.761719 308.019531 297.578125 286.722656 300.796875 270.214844 L 287.792969 267.992188 C 283.957031 287.667969 287.859375 311.59375 297.488281 333.453125 Z M 297.488281 333.453125 " fill-opacity="1" fill-rule="evenodd"/><path fill="#99ceff" d="M 307.222656 351.589844 C 316.679688 366.445312 329.152344 379.792969 343.714844 388.796875 L 350.84375 377.820312 C 337.65625 369.839844 326.84375 358.335938 318.472656 344.953125 Z M 307.222656 351.589844 " fill-opacity="1" fill-rule="evenodd"/><path fill="#573515" d="M 426.769531 343.414062 C 414.730469 361.800781 401.179688 376.425781 381.816406 385.714844 L 373.894531 377.898438 C 391.40625 369.6875 406.261719 354.972656 417.472656 337.71875 C 428.644531 320.597656 435.199219 302.019531 435.492188 287.117188 L 446.839844 286.285156 C 446.492188 304.046875 438.855469 324.898438 426.769531 343.414062 Z M 426.769531 343.414062 " fill-opacity="1" fill-rule="evenodd"/><path fill="#99ceff" d="M 379.804688 385.128906 L 372.988281 377.429688 C 384.6875 372.757812 394.910156 365.011719 403.410156 355.4375 L 412.136719 362.582031 C 403.535156 372.367188 393.433594 380.378906 381.433594 386.464844 Z M 379.804688 385.128906 " fill-opacity="1" fill-rule="evenodd"/><path fill="#000000" d="M 342.828125 351.746094 C 340.175781 351.390625 337.742188 349.789062 334.890625 346.214844 L 337.253906 344.222656 C 339.882812 347.523438 341.71875 348.476562 343.3125 348.691406 C 344.660156 348.871094 345.941406 348.582031 347.746094 348.175781 C 348.347656 348.035156 349.011719 347.886719 349.753906 347.738281 L 350.242188 350.757812 C 349.722656 350.863281 349.199219 350.984375 348.671875 351.105469 C 346.730469 351.546875 344.75 352 342.828125 351.746094 Z M 342.828125 351.746094 " fill-opacity="1" fill-rule="evenodd"/><path fill="#000000" d="M 340.648438 336.292969 C 341.550781 335.117188 342.214844 334.058594 342.417969 333.402344 L 345.394531 334.261719 C 345.027344 335.472656 344.058594 336.898438 343.152344 338.074219 C 342.808594 338.519531 342.449219 338.957031 342.101562 339.371094 L 347.015625 340.792969 L 346.144531 343.636719 L 338.925781 341.550781 L 336.53125 340.855469 L 338.21875 339.109375 C 338.835938 338.46875 339.777344 337.425781 340.648438 336.292969 Z M 340.648438 336.292969 " fill-opacity="1" fill-rule="evenodd"/><path fill="#333333" d="M 332.175781 479.324219 L 360.03125 481.03125 L 340.535156 674.941406 L 323.125 673.875 Z M 332.175781 479.324219 " fill-opacity="1" fill-rule="nonzero"/><path fill="#333333" d="M 360.960938 479.324219 L 388.234375 485.34375 C 388.234375 485.34375 391.933594 578.328125 391.933594 595.011719 C 391.933594 612.980469 373.976562 617.472656 372.050781 595.011719 C 370.125 572.554688 360.960938 479.324219 360.960938 479.324219 Z M 360.960938 479.324219 " fill-opacity="1" fill-rule="nonzero"/><path stroke-linecap="butt" transform="matrix(0.0593164, 1.282069, -1.280427, 0.0781255, 385.935455, 668.91157)" fill="none" stroke-linejoin="miter" d="M 0.000298523 -3.872972 L 28.13154 -3.0701 " stroke="#573515" stroke-width="7.746" stroke-opacity="1" stroke-miterlimit="4"/><path fill="#ffffff" d="M 367.417969 718.355469 L 387.1875 695.964844 L 398.945312 695.351562 L 402.003906 710.9375 Z M 367.417969 718.355469 " fill-opacity="1" fill-rule="nonzero"/><path fill="#333333" d="M 372.050781 591.160156 C 372.050781 586.667969 387.914062 581.105469 390.652344 587.953125 C 393.214844 594.371094 390.652344 615.546875 398.691406 678.824219 C 392.429688 680.648438 382.324219 681.832031 382.324219 681.832031 C 374.144531 624.636719 372.050781 595.65625 372.050781 591.160156 Z M 372.050781 591.160156 " fill-opacity="1" fill-rule="nonzero"/><path fill="#333333" d="M 388.671875 487.976562 L 388.671875 520.621094 L 367 517.609375 L 334.488281 505.558594 L 334.488281 481.695312 Z M 388.671875 487.976562 " fill-opacity="1" fill-rule="evenodd"/><path fill="#99ceff" d="M 382.160156 382.09375 C 372.613281 367.355469 350.335938 361.917969 340.390625 363.671875 L 329.996094 487.390625 L 389.089844 487.390625 C 390.082031 454.054688 391.707031 396.832031 382.160156 382.09375 Z M 382.160156 382.09375 " fill-opacity="1" fill-rule="nonzero"/><path stroke-linecap="butt" transform="matrix(0, 1.283442, 1.282805, 0, 217.699418, 667.223842)" fill="none" stroke-linejoin="miter" d="M -0.00092422 -3.873502 L 28.170394 -3.873502 " stroke="#e6bf99" stroke-width="7.746" stroke-opacity="1" stroke-miterlimit="4"/><path fill="#fcd858" d="M 220.597656 493.441406 L 165.898438 493.441406 C 165.898438 493.441406 155.257812 608.488281 153.972656 618.117188 C 151.871094 633.898438 185.414062 639.761719 186.683594 623.890625 C 187.96875 607.847656 192.144531 552.726562 192.144531 552.726562 L 201.019531 689.082031 L 240.207031 689.082031 Z M 220.597656 493.441406 " fill-opacity="1" fill-rule="nonzero"/><path fill="#ef5d5d" d="M 242.015625 724.46875 L 217.699219 703.378906 L 205.539062 703.378906 L 205.539062 721.457031 Z M 242.015625 724.46875 " fill-opacity="1" fill-rule="nonzero"/><path fill="#af9df2" d="M 162.574219 409.953125 C 162.574219 359.378906 176.183594 359.378906 192.972656 359.378906 C 214.921875 361.660156 222.011719 376.300781 223.1875 420.039062 L 223.371094 420.070312 L 223.371094 434.234375 C 223.371094 434.566406 223.371094 434.902344 223.371094 435.238281 C 223.371094 435.390625 223.371094 435.542969 223.371094 435.695312 L 223.371094 502.519531 L 186.894531 506.042969 L 162.574219 508.574219 Z M 162.574219 409.953125 " fill-opacity="1" fill-rule="evenodd"/><path fill="#e6bf99" d="M 263.742188 335.714844 C 248.34375 358.929688 225.535156 380.246094 199.742188 391.308594 L 193.761719 377.722656 C 217.101562 367.96875 236.503906 349.652344 250.835938 327.863281 C 265.117188 306.242188 273.0625 282.496094 272.699219 263.199219 L 288.054688 262.695312 C 288.488281 285.699219 279.1875 312.328125 263.742188 335.714844 Z M 263.742188 335.714844 " fill-opacity="1" fill-rule="evenodd"/><path fill="#af9df2" d="M 237.375 345.527344 L 248.933594 354.839844 C 235.152344 370.210938 218.210938 383.390625 199.742188 391.3125 L 193.765625 377.726562 C 210.453125 370.75 225.128906 359.398438 237.375 345.527344 Z M 237.375 345.527344 " fill-opacity="1" fill-rule="evenodd"/><path fill="#000000" d="M 169.289062 340.710938 C 169.722656 341.28125 170.179688 341.828125 170.664062 342.359375 C 171.144531 342.886719 171.652344 343.390625 172.179688 343.875 C 172.710938 344.359375 173.257812 344.816406 173.828125 345.246094 C 174.398438 345.679688 174.984375 346.085938 175.589844 346.460938 C 176.195312 346.839844 176.8125 347.1875 177.449219 347.507812 C 178.082031 347.828125 178.726562 348.113281 179.386719 348.371094 C 180.042969 348.628906 180.707031 348.855469 181.382812 349.050781 C 182.058594 349.242188 182.738281 349.402344 183.421875 349.53125 C 184.105469 349.660156 184.792969 349.753906 185.484375 349.816406 C 186.171875 349.875 186.859375 349.902344 187.546875 349.894531 C 188.230469 349.890625 188.914062 349.847656 189.589844 349.773438 C 190.265625 349.699219 190.9375 349.59375 191.597656 349.453125 C 192.257812 349.308594 192.90625 349.136719 193.546875 348.929688 C 194.183594 348.722656 194.808594 348.484375 195.421875 348.214844 C 196.03125 347.945312 196.625 347.644531 197.199219 347.3125 C 197.777344 346.980469 198.332031 346.621094 198.867188 346.234375 C 199.40625 345.84375 199.917969 345.429688 200.410156 344.988281 C 200.902344 344.542969 201.367188 344.078125 201.808594 343.585938 C 202.25 343.089844 202.667969 342.578125 203.054688 342.039062 C 203.441406 341.503906 203.800781 340.945312 204.128906 340.367188 C 204.460938 339.789062 204.761719 339.195312 205.03125 338.585938 C 205.296875 337.972656 205.535156 337.347656 205.742188 336.707031 C 205.949219 336.070312 206.121094 335.417969 206.261719 334.757812 C 206.402344 334.09375 206.507812 333.425781 206.582031 332.746094 C 206.65625 332.070312 206.695312 331.386719 206.699219 330.699219 C 206.707031 330.015625 206.679688 329.324219 206.617188 328.636719 C 206.554688 327.945312 206.460938 327.257812 206.332031 326.574219 C 206.203125 325.886719 206.042969 325.207031 205.847656 324.53125 C 205.652344 323.859375 205.425781 323.191406 205.167969 322.535156 C 204.910156 321.875 204.621094 321.230469 204.304688 320.59375 C 203.984375 319.960938 203.636719 319.339844 203.257812 318.734375 C 202.878906 318.128906 202.476562 317.542969 202.042969 316.972656 C 201.609375 316.402344 201.152344 315.855469 200.667969 315.324219 C 200.1875 314.796875 199.679688 314.292969 199.152344 313.808594 C 198.625 313.324219 198.074219 312.867188 197.503906 312.4375 C 196.933594 312.003906 196.347656 311.597656 195.742188 311.222656 C 195.140625 310.84375 194.519531 310.496094 193.886719 310.175781 C 193.25 309.859375 192.605469 309.570312 191.949219 309.3125 C 191.289062 309.054688 190.625 308.828125 189.949219 308.632812 C 189.273438 308.441406 188.59375 308.28125 187.910156 308.152344 C 187.226562 308.023438 186.539062 307.929688 185.851562 307.867188 C 185.160156 307.808594 184.472656 307.78125 183.789062 307.789062 C 183.101562 307.792969 182.417969 307.835938 181.742188 307.910156 C 181.066406 307.984375 180.398438 308.089844 179.734375 308.230469 C 179.074219 308.375 178.425781 308.546875 177.785156 308.753906 C 177.148438 308.960938 176.523438 309.199219 175.914062 309.46875 C 175.300781 309.738281 174.710938 310.039062 174.132812 310.371094 C 173.558594 310.703125 173 311.0625 172.464844 311.449219 C 171.929688 311.839844 171.414062 312.253906 170.921875 312.695312 C 170.429688 313.140625 169.964844 313.605469 169.523438 314.101562 C 169.082031 314.59375 168.667969 315.105469 168.277344 315.644531 C 167.890625 316.179688 167.53125 316.738281 167.203125 317.316406 C 166.871094 317.894531 166.574219 318.488281 166.304688 319.097656 C 166.035156 319.710938 165.796875 320.335938 165.589844 320.976562 C 165.386719 321.613281 165.210938 322.265625 165.074219 322.925781 C 164.933594 323.589844 164.824219 324.257812 164.75 324.9375 C 164.679688 325.613281 164.636719 326.296875 164.632812 326.984375 C 164.625 327.667969 164.652344 328.359375 164.714844 329.046875 C 164.777344 329.738281 164.871094 330.425781 165 331.109375 C 165.128906 331.796875 165.289062 332.476562 165.484375 333.152344 C 165.679688 333.824219 165.90625 334.492188 166.164062 335.152344 C 166.421875 335.808594 166.710938 336.453125 167.03125 337.089844 C 167.347656 337.722656 167.699219 338.34375 168.074219 338.949219 C 168.453125 339.554688 168.859375 340.140625 169.289062 340.710938 Z M 169.289062 340.710938 " fill-opacity="1" fill-rule="nonzero"/><path fill="#e6bf99" d="M 205.289062 322.707031 C 210.03125 332.085938 213.644531 348.867188 203.632812 350.328125 C 185.777344 352.933594 184.386719 354.777344 176.097656 343.863281 C 168.953125 334.449219 169.695312 322.082031 177.757812 316.242188 C 185.816406 310.398438 198.144531 313.292969 205.289062 322.707031 Z M 205.289062 322.707031 " fill-opacity="1" fill-rule="nonzero"/><path fill="#000000" d="M 199.4375 317.707031 C 193.148438 323.644531 163.472656 327.226562 163.472656 327.226562 C 163.472656 327.226562 192.355469 302.882812 193.238281 295.316406 C 200.472656 300.59375 205.726562 311.769531 199.4375 317.707031 Z M 199.4375 317.707031 " fill-opacity="1" fill-rule="nonzero"/><path fill="#000000" d="M 205.921875 344.222656 C 208.910156 342.640625 211.148438 339.75 213.101562 334.449219 L 209.535156 333.253906 C 207.734375 338.144531 205.949219 340.039062 204.152344 340.992188 C 202.632812 341.792969 201.011719 342.039062 198.726562 342.382812 C 197.960938 342.496094 197.121094 342.621094 196.1875 342.78125 L 196.796875 346.410156 C 197.453125 346.296875 198.117188 346.199219 198.789062 346.101562 C 201.246094 345.738281 203.757812 345.367188 205.921875 344.222656 Z M 205.921875 344.222656 " fill-opacity="1" fill-rule="evenodd"/><path fill="#000000" d="M 201.980469 326.539062 C 200.382812 325.5 199.121094 324.496094 198.585938 323.789062 L 195.496094 326.03125 C 196.480469 327.328125 198.269531 328.644531 199.867188 329.6875 C 200.472656 330.085938 201.09375 330.464844 201.691406 330.816406 L 196.59375 334.511719 L 198.917969 337.570312 L 206.402344 332.144531 L 208.882812 330.347656 L 206.109375 328.933594 C 205.09375 328.417969 203.515625 327.546875 201.980469 326.539062 Z M 201.980469 326.539062 " fill-opacity="1" fill-rule="evenodd"/><path fill="#e6bf99" d="M 148.238281 411.25 L 160.625 397.636719 L 167.332031 411.25 C 160.625 420.832031 133.386719 446.546875 144.222656 456.128906 L 176.734375 484.363281 L 169.507812 493.945312 L 131.839844 462.179688 C 119.453125 445.539062 136.097656 432.933594 148.238281 411.25 Z M 148.238281 411.25 " fill-opacity="1" fill-rule="nonzero"/><path fill="#af9df2" d="M 138.03125 422.851562 L 170.542969 369.90625 L 172.089844 416.800781 C 168.820312 418.652344 161.253906 426.882812 155.0625 432.933594 Z M 138.03125 422.851562 " fill-opacity="1" fill-rule="nonzero"/><path stroke-linecap="butt" transform="matrix(-0.22955, 1.262726, 1.26284, 0.225555, 167.291599, 684.827506)" fill="none" stroke-linejoin="miter" d="M -0.000855389 -3.871791 L 28.180928 -3.871485 " stroke="#e6bf99" stroke-width="7.746" stroke-opacity="1" stroke-miterlimit="4"/><path fill="#ef5d5d" d="M 180.128906 735.167969 L 162.441406 711.507812 L 150.472656 709.371094 L 145.570312 723.605469 Z M 180.128906 735.167969 " fill-opacity="1" fill-rule="nonzero"/><path fill="#fcd858" d="M 141.144531 688.703125 C 141.144531 688.703125 152.050781 638.652344 154.613281 612.980469 C 155.894531 600.175781 188.019531 603.980469 187.328125 616.832031 C 186.042969 640.574219 179.628906 698.972656 179.628906 698.972656 Z M 141.144531 688.703125 " fill-opacity="1" fill-rule="nonzero"/><path fill="#fcd858" d="M 268.339844 396.722656 L 283.429688 405.4375 L 280.667969 410.226562 L 265.578125 401.507812 Z M 268.339844 396.722656 " fill-opacity="1" fill-rule="nonzero"/><path fill="#f0a4a4" d="M 248.285156 203.117188 L 239.574219 218.214844 L 234.789062 215.453125 L 243.5 200.355469 Z M 248.285156 203.117188 " fill-opacity="1" fill-rule="nonzero"/><path fill="#fcd858" d="M 414.679688 248.246094 L 419.1875 231.40625 L 424.523438 232.835938 L 420.015625 249.675781 Z M 414.679688 248.246094 " fill-opacity="1" fill-rule="nonzero"/><path fill="#f5980c" d="M 534.617188 252.859375 L 519.53125 244.140625 L 522.292969 239.355469 L 537.382812 248.070312 Z M 534.617188 252.859375 " fill-opacity="1" fill-rule="nonzero"/><g clip-path="url(#331b908fd7)"><path fill="#99ceff" d="M 451.585938 146.605469 L 456.09375 129.765625 L 461.429688 131.195312 L 456.921875 148.035156 Z M 451.585938 146.605469 " fill-opacity="1" fill-rule="nonzero"/></g><path fill="#f5980c" d="M 32.105469 183.367188 L 40.820312 168.269531 L 45.605469 171.03125 L 36.890625 186.132812 Z M 32.105469 183.367188 " fill-opacity="1" fill-rule="nonzero"/><path fill="#99ceff" d="M 116.773438 245.429688 L 121.28125 228.589844 L 126.617188 230.023438 L 122.109375 246.863281 Z M 116.773438 245.429688 " fill-opacity="1" fill-rule="nonzero"/><path fill="#99ceff" d="M 444.0625 545.921875 L 428.96875 537.203125 L 431.730469 532.417969 L 446.824219 541.132812 Z M 444.0625 545.921875 " fill-opacity="1" fill-rule="nonzero"/><path fill="#fcd858" d="M 136.847656 558.492188 L 124.527344 570.820312 L 120.621094 566.910156 L 132.941406 554.582031 Z M 136.847656 558.492188 " fill-opacity="1" fill-rule="nonzero"/><path fill="#f0a4a4" d="M 546.476562 445.335938 L 534.152344 433.011719 L 538.0625 429.101562 L 550.382812 441.429688 Z M 546.476562 445.335938 " fill-opacity="1" fill-rule="nonzero"/><path fill="#99ceff" d="M 67.988281 527.476562 L 55.667969 515.148438 L 59.574219 511.242188 L 71.894531 523.566406 Z M 67.988281 527.476562 " fill-opacity="1" fill-rule="nonzero"/><path fill="#fcd858" d="M 11.476562 400.226562 L -3.613281 408.941406 L -6.378906 404.15625 L 8.710938 395.441406 Z M 11.476562 400.226562 " fill-opacity="1" fill-rule="nonzero"/><path stroke-linecap="butt" transform="matrix(1.282805, 0, 0, 1.283442, -7.972978, 129.765877)" fill="none" stroke-linejoin="miter" d="M 267.739251 24.999718 C 262.857982 29.023322 265.997463 33.777384 269.831224 33.777384 C 275.059633 33.777384 274.015169 30.122052 271.923196 29.75378 C 269.831224 29.388551 268.065075 33.046927 269.831224 36.340074 C 271.792258 39.998449 277.84893 38.899719 277.151605 36.340074 C 276.454281 33.777384 273.317845 35.606572 273.317845 39.998449 C 273.317845 43.288552 276.804466 44.022054 279.243578 41.459365 " stroke="#fcd858" stroke-width="1.5" stroke-opacity="1" stroke-miterlimit="4"/><path stroke-linecap="butt" transform="matrix(1.282805, 0, 0, 1.283442, -7.972978, 129.765877)" fill="none" stroke-linejoin="miter" d="M 73.770453 126.320287 C 68.621216 122.646693 64.839222 126.907697 65.831919 130.611726 C 67.186981 135.661015 70.448266 133.703997 70.262516 131.588713 C 70.073721 129.476473 66.081616 128.715579 63.359311 131.275225 C 60.335543 134.114879 62.96345 139.681576 65.253353 138.345447 C 67.546301 137.009318 64.97016 134.452716 60.728358 135.587969 C 57.549291 136.44017 57.744176 139.998107 60.850162 141.690334 " stroke="#f0a4a4" stroke-width="1.5" stroke-opacity="1" stroke-miterlimit="4"/><g clip-path="url(#13e6e4b2ee)"><path stroke-linecap="butt" transform="matrix(1.282805, 0, 0, 1.283442, -7.972978, 129.765877)" fill="none" stroke-linejoin="miter" d="M 439.296232 297.271736 C 439.905249 290.974582 434.32361 289.830198 431.61044 292.542022 C 427.913709 296.239964 431.23894 298.087413 432.977683 296.86694 C 434.716426 295.646467 433.376589 291.811564 429.798615 290.731096 C 425.827826 289.531928 422.319889 294.590347 424.625018 295.908215 C 426.927101 297.226082 427.852807 293.713798 424.749866 290.609353 C 422.420377 288.281019 419.43924 290.228906 419.524502 293.765539 " stroke="#f5980c" stroke-width="1.5" stroke-opacity="1" stroke-miterlimit="4"/></g></svg>